<svg width="724" height="626" viewBox="0 0 724 626" fill="none" xmlns="http://www.w3.org/2000/svg">
<path opacity="0.5" d="M718.73 455.853C715.93 444.146 711.847 432.784 706.553 421.974C701.133 410.945 694.314 400.66 686.263 391.375C680.666 385.009 674.488 379.178 667.81 373.957C664.552 371.398 661.163 369.01 657.657 366.802C661.553 356.989 664.393 346.789 666.131 336.375C669.108 319.114 669.841 301.54 668.312 284.09C666.824 266.981 663.252 250.118 657.673 233.876C655.821 227.992 653.311 222.312 650.894 216.615C649.654 213.775 648.164 211.029 646.799 208.22L644.68 204.046C643.943 202.681 643.111 201.347 642.326 199.998C640.757 197.314 639.188 194.615 637.509 191.932C635.83 189.249 633.978 186.581 632.048 184.086C628.281 178.94 624.22 174.015 619.887 169.336C602.579 150.623 581.445 135.857 557.92 126.042C546.024 121.041 533.585 117.444 520.856 115.325C514.389 114.272 507.866 113.607 501.32 113.332C494.675 113.123 488.024 113.338 481.407 113.975C474.721 114.657 468.093 115.816 461.572 117.443C460.003 117.804 458.308 118.275 456.676 118.761C455.044 119.248 453.428 119.671 451.828 120.236L447.026 121.931C445.457 122.464 443.778 123.218 442.177 123.877C438.882 125.163 435.791 126.811 432.652 128.349C431.083 129.196 429.608 130.059 428.102 130.938C426.595 131.817 425.104 132.696 423.661 133.668C417.86 137.397 412.376 141.596 407.263 146.222C403.963 149.194 400.82 152.337 397.848 155.637C398.24 153.566 398.601 151.463 398.899 149.36C400.331 139.272 400.61 129.054 399.731 118.902C397.696 97.9245 390.209 77.8439 378.013 60.6543C366.482 44.2531 351.597 30.4906 334.343 20.2793C317.238 10.0007 298.172 3.41548 278.37 0.94695C268.246 -0.272154 258.015 -0.314306 247.881 0.821388C237.964 1.97331 228.202 4.20969 218.773 7.49041C200.394 13.8915 183.405 23.7388 168.716 36.5046C154.392 48.8749 142.226 63.5433 132.719 79.9082C124.542 93.924 118.472 109.067 114.705 124.85C112.712 122.967 110.656 121.131 108.506 119.389C102.661 114.738 96.3511 110.705 89.6761 107.353C82.9842 103.994 75.9504 101.363 68.6961 99.5073C61.4072 97.6153 53.926 96.5624 46.398 96.3689C44.5307 96.3689 42.6477 96.2434 40.7803 96.3689L35.1627 96.6513C31.4594 97.0592 27.7561 97.4515 24.1784 98.2204C9.9915 101.022 -3.57066 106.371 -15.8514 114.007C-21.7491 117.667 -27.3903 121.724 -32.7359 126.152C-37.9452 130.555 -42.8815 135.271 -47.5175 140.275C-52.065 145.254 -56.3194 150.494 -60.2593 155.966C-64.1522 161.468 -67.7254 167.19 -70.9611 173.102C-74.1767 179.053 -77.0376 185.188 -79.5288 191.477C-82.0255 197.842 -84.1218 204.356 -85.8056 210.982L-86.9354 216.019C-87.3277 217.714 -87.516 219.267 -87.8298 220.899C-88.3477 224.132 -88.9596 227.349 -89.399 230.581L-90.4347 240.263C-90.6387 241.832 -90.7171 243.496 -90.7956 245.112L-91.031 249.929C-91.5788 262.63 -91.1854 275.354 -89.8541 287.997C-87.3748 312.947 -82.0082 336.736 -76.2807 359.74C-70.5532 382.745 -64.0097 405.058 -59.0197 426.729C-56.5874 437.619 -54.3121 448.493 -52.7429 459.289C-51.1241 469.949 -50.0765 480.687 -49.6046 491.458C-49.2004 501.884 -49.557 512.326 -50.6716 522.7C-51.918 532.68 -54.1036 542.521 -57.1994 552.091L-59.8199 558.995C-60.22 560.153 -60.7025 561.28 -61.2636 562.369L-62.8328 565.696L-64.4019 569.022L-65.9711 571.91L-67.6972 574.718C-68.2778 575.644 -68.9369 576.523 -69.5331 577.433C-74.5702 584.51 -81.0196 590.3 -86.6686 592.858C-89.0146 594.014 -91.5859 594.641 -94.2007 594.694C-94.768 594.728 -95.3373 594.691 -95.8954 594.584C-96.4987 594.551 -97.0976 594.462 -97.6843 594.317C-98.81 594.039 -99.9039 593.645 -100.948 593.141C-103.319 591.854 -105.389 590.078 -107.021 587.931C-108.144 586.544 -109.146 585.063 -110.018 583.506C-111.049 581.74 -111.966 579.911 -112.764 578.029C-116.338 569.104 -118.708 559.743 -119.81 550.192C-120.155 547.65 -120.437 545.077 -120.657 542.487L-120.971 538.58L-121.253 534.281L-122.368 517.02C-125.286 470.886 -127.441 424.71 -128.833 378.492C-129.978 340.832 -129.115 303.281 -129.272 266.076C-129.429 228.871 -130.574 191.948 -135.768 155.292C-135.894 154.382 -136.098 152.389 -136.208 151.384C-138.609 127.219 -144.619 135.489 -148.871 128.004C-158.459 110.962 -165.081 108.907 -169.27 123.767C-173.46 138.627 -175.437 170.387 -174.527 220.648C-174.056 242.522 -175.029 265.699 -175.547 288.123C-176.191 313.999 -176.143 348.741 -175.437 383.514C-174.731 418.287 -173.382 453.107 -172.158 479.234C-171.828 487.08 -171.357 495.114 -170.855 503.148C-170.353 511.182 -169.773 519.295 -169.129 527.423C-168.815 531.472 -168.486 535.536 -168.172 539.616C-168.015 541.546 -167.811 543.947 -167.576 546.175C-167.34 548.403 -167.089 550.694 -166.775 552.954C-165.584 562.263 -163.669 571.466 -161.048 580.477C-158.253 590.354 -154.113 599.8 -148.745 608.55C-145.689 613.444 -142.088 617.976 -138.012 622.061C-133.601 626.484 -128.562 630.233 -123.058 633.186C-117.517 636.136 -111.551 638.206 -105.373 639.322C-103.853 639.611 -102.318 639.82 -100.776 639.949C-99.2064 640.091 -97.6372 640.31 -96.068 640.295C-92.9953 640.376 -89.921 640.218 -86.8727 639.824C-81.0927 639.099 -75.4355 637.606 -70.051 635.383C-65.2179 633.34 -60.6022 630.817 -56.2736 627.851C-47.9941 622.158 -40.6649 615.194 -34.5561 607.216C-31.6089 603.436 -28.8944 599.479 -26.4277 595.369L-24.6702 592.231C-24.0583 591.179 -23.4933 590.143 -23.1011 589.092L-20.2138 583.098C-12.8202 567.208 -7.76732 550.332 -5.21239 532.994C-2.77502 516.3 -2.04417 499.402 -3.0312 482.56C-3.95746 466.326 -5.91771 450.167 -8.89998 434.182C-11.7245 418.491 -15.3493 402.94 -19.0997 388.017C-22.85 373.094 -26.6003 358.501 -29.9741 344.08C-36.7059 315.317 -41.7586 287.15 -41.3349 260.317C-41.3349 258.654 -41.335 256.959 -41.2565 255.296L-40.927 250.353C-40.8015 248.784 -40.7701 247.042 -40.5818 245.41L-39.9855 240.561C-39.7658 238.992 -39.6559 237.297 -39.3421 235.712L-38.4634 231.005L-38.0397 228.62C-37.8985 227.819 -37.7729 227.05 -37.5846 226.313C-37.208 224.885 -36.9256 223.441 -36.5019 222.013C-33.2215 210.267 -28.0429 199.136 -21.171 189.06C-14.4289 179.053 -6.07176 170.235 3.55934 162.965C12.2377 156.274 22.3178 151.634 33.0443 149.392C42.6614 147.518 52.6148 148.455 61.7132 152.091C71.0163 155.889 79.1174 162.136 85.1568 170.168C92.0475 179.378 97.1614 189.792 100.237 200.876C103.661 212.832 105.409 225.206 105.431 237.642C105.469 244.901 104.944 252.151 103.861 259.328C103.626 261.117 103.297 262.875 102.936 264.617C102.575 266.358 102.198 268.1 101.806 269.842L101.508 271.129L101.115 272.541L100.346 275.334L98.7773 280.936C93.9031 296.408 87.9518 311.519 80.9671 326.16C73.9058 341.397 65.9814 356.869 58.0414 372.937C50.1013 389.006 42.1926 405.89 35.3667 423.637C34.5193 425.866 33.6563 428.078 32.8403 430.338L30.5022 437.195C28.933 441.636 27.3639 446.61 26.0928 451.553C23.4823 461.348 21.5424 471.309 20.2868 481.368C17.6827 501.668 18.0846 522.241 21.4794 542.425C23.2538 552.873 26.0175 563.13 29.7333 573.055C33.615 583.405 38.6973 593.264 44.8759 602.43C51.3305 611.967 59.1438 620.51 68.0685 627.788C77.0503 635.139 87.105 641.072 97.8829 645.379C108.582 649.641 119.838 652.341 131.306 653.397C142.389 654.305 153.54 653.846 164.51 652.032C174.926 650.269 185.147 647.505 195.031 643.778C204.517 640.222 213.728 635.968 222.586 631.052C239.661 621.535 255.673 610.225 270.352 597.315C284.789 584.594 298.05 570.598 309.974 555.496C321.341 541.259 331.054 525.776 338.925 509.346L340.949 510.523C351.655 516.578 363.03 521.365 374.844 524.787C377.794 525.744 380.838 526.356 383.866 527.078C386.895 527.8 389.955 528.302 393.03 528.804C396.106 529.306 399.197 529.667 402.304 529.95C403.873 530.091 405.443 530.279 407.012 530.358L411.515 530.577C417.494 530.75 423.3 530.687 428.949 530.468C434.598 530.248 440.012 529.871 445.3 529.51C455.845 528.757 465.699 527.941 474.942 527.941C477.264 527.941 479.477 527.941 481.721 528.067C483.964 528.192 486.161 528.318 487.997 528.569C491.979 528.968 495.921 529.697 499.782 530.75C506.944 532.526 513.694 535.67 519.663 540.008C522.046 541.826 524.191 543.935 526.05 546.285C527.593 548.411 528.79 550.767 529.596 553.268C530.45 555.863 530.843 558.587 530.758 561.318C530.758 562.845 530.653 564.371 530.444 565.884C530.287 566.7 530.13 567.453 530.004 568.316C529.879 569.179 529.565 569.995 529.377 570.843C527.128 578.506 523.714 585.777 519.255 592.403C516.823 596.131 514.205 599.735 511.409 603.199C508.475 606.855 505.227 610.716 501.869 614.654C495.153 622.579 487.872 631.052 480.952 640.875C477.384 646.028 474.135 651.394 471.223 656.944C468.122 662.912 465.574 669.152 463.612 675.585L462.231 680.591C461.823 682.458 461.368 684.514 461.102 686.429C460.506 690.264 460.233 694.143 460.286 698.025C460.316 701.782 460.625 705.533 461.211 709.244C461.77 712.913 462.593 716.537 463.675 720.087C464.74 723.659 466.067 727.146 467.645 730.523C469.229 733.991 471.087 737.328 473.2 740.503C477.721 747.421 483.521 753.412 490.288 758.156C497.986 763.496 506.942 766.741 516.274 767.571C520.922 767.944 525.599 767.728 530.193 766.927C534.448 766.136 538.608 764.9 542.605 763.24C549.294 760.37 555.577 756.635 561.294 752.13C566.378 748.223 570.615 744.425 574.459 741.067C605.984 713.45 638.388 684.577 666.178 649.804C680.321 632.168 692.496 613.042 702.489 592.764L706.051 584.918C706.647 583.6 707.243 582.329 707.824 580.979L709.472 576.884C710.617 574.154 711.527 571.376 712.61 568.614C713.693 565.852 714.446 563.044 715.293 560.235C718.611 549.015 721.004 537.543 722.449 525.933C725.396 502.538 724.136 478.804 718.73 455.853ZM433.217 188.056C440.88 179.596 450.25 172.857 460.709 168.284C463.331 167.182 466.008 166.213 468.728 165.382C470.124 165.005 471.49 164.55 472.902 164.22C474.314 163.891 475.726 163.546 477.154 163.247C482.889 162.083 488.721 161.468 494.572 161.411C518.204 161.098 542.542 169.257 562.8 183.066C572.929 189.925 582.037 198.182 589.853 207.593C590.794 208.769 591.767 209.931 592.677 211.123L595.345 214.764L597.856 218.467L600.225 222.437L602.61 226.407C603.411 227.709 604.023 229.153 604.744 230.518C606.125 233.28 607.632 235.979 608.762 238.882C617.094 257.712 621.315 276.433 624.155 293.458C626.995 310.484 627.686 326.003 628.518 339.09C628.847 343.892 629.114 348.364 629.396 352.507C620.452 349.022 611.283 346.144 601.951 343.892C571.886 336.579 542.605 334.241 514.909 330.24C501.485 328.445 488.184 325.825 475.083 322.394C462.608 318.816 450.87 314.281 441.126 307.769C439.933 306.937 438.615 306.2 437.501 305.321L434.08 302.669C433.5 302.247 432.95 301.786 432.432 301.288L430.863 299.829C429.756 298.912 428.708 297.927 427.725 296.879L424.806 293.741C423.802 292.736 423.033 291.512 422.123 290.414C420.391 288.272 418.817 286.006 417.415 283.635C411.822 274.079 408.779 263.244 408.581 252.173C407.828 229.467 417.4 205.254 433.217 188.056ZM163.569 159.513C163.569 155.59 164.165 151.667 164.526 147.854C165.006 144.062 165.724 140.304 166.676 136.603C170.484 121.515 177.276 107.344 186.652 94.9252C195.88 82.5624 207.584 72.2589 221.017 64.6715C227.516 61.0454 234.428 58.216 241.604 56.2448C245.128 55.2954 248.707 54.5671 252.322 54.0638C253.232 53.8912 254.095 53.8597 254.974 53.7656C255.852 53.6714 256.716 53.5458 257.594 53.5145C259.352 53.5145 261.109 53.3105 262.898 53.389C277.623 53.6452 292.043 57.6295 304.811 64.9696C317.682 72.1386 328.544 82.4287 336.399 94.8938C338.242 97.9047 339.853 101.052 341.216 104.309C341.953 105.878 342.456 107.447 343.083 109.126C343.366 109.942 343.57 110.774 343.821 111.574C344.096 112.382 344.327 113.205 344.511 114.038L345.092 116.501L345.531 118.997C345.892 120.566 345.955 122.339 346.19 124.002L346.457 129.353L346.347 134.72C345.578 149.015 340.651 163.702 333.025 178.516C325.399 193.329 315.387 208.204 304.78 223.598C294.172 238.992 283.062 254.982 273.176 272.949C268.062 282.111 263.589 291.617 259.791 301.398C258.991 303.47 258.222 305.604 257.5 307.785C254.362 305.572 251.223 303.391 248.085 301.21C240.6 295.938 233.35 290.712 226.603 285.33C223.213 282.662 219.981 279.932 216.843 277.17C215.273 275.789 213.877 274.361 212.386 272.965C210.895 271.568 209.389 270.203 208.039 268.681L203.834 264.224C202.438 262.655 201.198 261.086 199.864 259.517C197.134 256.473 194.811 253.099 192.316 249.851C187.574 243.205 183.335 236.213 179.637 228.933C172.218 214.587 167.188 199.126 164.746 183.16C163.618 175.332 163.224 167.415 163.569 159.513ZM280.724 510.115C273.482 520.837 265.391 530.959 256.527 540.385C247.638 549.931 238.038 558.791 227.811 566.888C217.814 574.868 207.098 581.902 195.8 587.9C185.124 593.655 173.724 597.951 161.906 600.673C151.162 603.172 140.018 603.423 129.172 601.41C118.911 599.36 109.3 594.854 101.163 588.276C92.8615 581.343 86.2227 572.634 81.736 562.793C76.8208 552.056 73.6023 540.622 72.1954 528.898C70.625 516.594 70.5302 504.146 71.9129 491.819C72.5827 485.592 73.5832 479.406 74.9101 473.286L75.9928 468.736C76.3537 467.167 76.7931 465.723 77.201 464.217C78.0641 461.204 78.9115 458.348 80.0413 455.178C84.3847 442.503 89.4242 430.077 95.1368 417.957C106.67 393.07 120.448 367.963 132.672 340.785C137.677 329.801 142.259 318.204 146.355 306.373L149.274 297.381C150.199 294.368 151 291.277 151.863 288.217C152.255 286.742 152.679 285.33 153.055 283.839C156.131 287.888 159.343 291.832 162.69 295.671L164.353 297.742L166.613 300.268L171.179 305.29C172.67 307 174.318 308.538 175.887 310.123L180.767 314.83C187.326 320.887 194.042 326.317 200.758 331.401C214.175 341.554 227.544 350.231 240.082 358.862C243.346 361.09 246.558 363.313 249.717 365.531C250.411 376.811 252.241 387.994 255.178 398.907C261.503 422.179 272.313 443.991 287.001 463.118C290.495 467.711 294.219 472.141 298.173 476.409C298.048 476.723 297.938 477.052 297.828 477.382C293.409 488.916 287.669 499.901 280.724 510.115ZM668.03 537.419C666.963 541.907 665.55 546.301 664.122 550.663C663.322 552.797 662.553 554.978 661.706 557.081C660.858 559.183 660.027 561.302 658.944 563.483L655.931 569.995C654.927 572.161 653.703 574.263 652.604 576.398C650.47 580.713 647.897 584.84 645.418 588.951C644.225 591.069 642.75 593.062 641.448 595.133C640.145 597.205 638.843 599.26 637.352 601.253C634.433 605.27 631.64 609.335 628.486 613.242C622.461 621.182 615.729 628.824 608.919 636.419C595.016 651.467 579.889 665.951 564.024 680.214C557.183 686.439 549.98 692.805 542.417 699.311L536.767 704.254C534.916 705.824 533.237 707.299 531.636 708.601C529.201 710.672 526.574 712.506 523.79 714.078C522.878 714.615 521.872 714.972 520.825 715.129C520.825 715.129 520.683 715.129 520.573 714.988C519.409 714.241 518.414 713.257 517.655 712.1C516.232 710.07 515.121 707.838 514.36 705.478C513.536 702.943 513.097 700.298 513.057 697.633C513.018 696.487 513.097 695.341 513.293 694.212C513.316 693.963 513.358 693.717 513.418 693.474C513.471 693.182 513.544 692.893 513.638 692.611C513.873 691.795 514.093 691.042 514.297 690.179C516.972 682.589 520.85 675.479 525.783 669.12C531.26 661.588 538.211 653.68 545.586 644.971L548.364 641.675L551.188 638.239C552.098 637.156 553.134 635.807 554.123 634.583C555.111 633.359 556.084 632.072 557.026 630.754C560.92 625.581 564.499 620.179 567.743 614.576C569.438 611.767 570.976 608.723 572.451 605.725C573.926 602.728 575.369 599.527 576.625 596.216C579.333 589.443 581.306 582.399 582.509 575.205C583.812 567.458 584.029 559.568 583.153 551.761C582.191 543.753 580.017 535.938 576.703 528.584C573.428 521.547 569.152 515.019 564.008 509.205C562.8 507.777 561.498 506.553 560.227 505.251L558.312 503.352C557.653 502.756 556.994 502.191 556.335 501.626C555.001 500.496 553.683 499.335 552.334 498.284L548.27 495.333C543.102 491.734 537.606 488.629 531.856 486.06C526.624 483.683 521.227 481.685 515.709 480.081C510.551 478.621 505.312 477.468 500.017 476.629L496.22 476.048L492.438 475.64C489.88 475.342 487.731 475.248 485.377 475.091C476.338 474.605 468.288 474.809 461.196 475.091C447.073 475.829 436.512 476.801 428.918 477.084C422.641 477.398 416.882 477.649 411.923 477.617C409.381 477.617 407.216 477.445 405.16 477.335C403.21 477.225 401.27 476.978 399.354 476.597C382.805 473.362 367.245 466.289 353.926 455.947C354.312 451.732 354.485 447.5 354.444 443.268C354.393 437.712 353.973 432.166 353.189 426.666C352.377 421.143 351.177 415.684 349.595 410.331C348.032 405.008 346.124 399.793 343.884 394.718C341.619 389.724 339.046 384.876 336.179 380.203C333.376 375.633 330.322 371.222 327.031 366.99C323.751 362.894 320.377 358.893 316.831 355.221C312.641 350.796 308.31 346.701 303.932 342.809C304.089 341.554 304.277 340.314 304.481 339.074C305.14 336.187 305.627 333.253 306.537 330.444C307.447 327.635 308.357 324.607 309.424 321.625C311.781 315.424 314.522 309.376 317.631 303.517C324.555 290.688 332.215 278.271 340.573 266.327C347.116 256.661 354.052 246.759 360.972 236.262C360.303 242.515 360.098 248.809 360.36 255.092C360.649 262.213 361.584 269.293 363.153 276.244C364.768 283.339 367.054 290.264 369.979 296.926C373.019 303.639 376.698 310.045 380.963 316.054C383.097 318.879 385.279 321.625 387.475 324.371C389.672 327.117 392.261 329.565 394.678 332.123C404.594 341.823 415.973 349.904 428.4 356.069C439.946 361.757 452.038 366.263 464.491 369.516C476.002 372.536 487.661 374.961 499.421 376.782C522.127 380.407 543.766 382.572 564.056 385.977C584.345 389.382 603.285 393.933 618.867 401.543C626.401 405.109 633.417 409.68 639.722 415.133C642.762 417.788 645.604 420.662 648.227 423.732C649.498 425.301 650.863 426.87 652.008 428.549C652.604 429.396 653.248 430.118 653.813 431.06L655.523 433.649C660.042 440.865 663.663 448.606 666.304 456.7C669.076 465.17 670.964 473.905 671.937 482.764C673.851 501.072 672.523 519.573 668.014 537.419H668.03Z" fill="white"/>
</svg>
