<svg width="26" height="20" viewBox="0 0 26 20" fill="none" xmlns="http://www.w3.org/2000/svg">
<path d="M18.1797 9.60307C18.1711 9.55153 18.1526 9.46376 18.1155 9.3537C18.0869 9.23947 18.0184 9.11269 17.9471 8.98592C17.8757 8.85635 17.7758 8.74908 17.6874 8.67107C17.6759 8.66131 17.6659 8.65017 17.656 8.63903C17.6445 8.62788 17.6246 8.61813 17.6103 8.60837C17.5775 8.58887 17.5518 8.56101 17.5161 8.5443C17.4804 8.52758 17.4476 8.50807 17.4162 8.48857C17.3834 8.47046 17.3449 8.4607 17.3106 8.44399C17.1494 8.38269 16.971 8.32418 16.7712 8.28935C16.5714 8.25452 16.3559 8.23362 16.1333 8.22666C15.6866 8.22248 15.21 8.2782 14.7833 8.4008C14.3323 8.51922 13.8357 8.73654 13.3191 9.02352C12.8068 9.32305 12.2659 9.69919 11.7322 10.1645C11.6908 10.2021 11.6466 10.2411 11.5995 10.2829C11.5538 10.3261 11.5053 10.3707 11.4468 10.4125C11.3283 10.4933 11.1871 10.5699 10.9759 10.6033C10.7632 10.6354 10.4978 10.6368 10.1268 10.5657C9.75714 10.4947 9.28763 10.3567 8.69683 10.1032C7.46527 9.57938 6.5648 8.99567 6.08816 8.34786C5.6158 7.70981 5.56871 7.01185 6.00111 6.44763C7.03859 5.08793 8.40571 3.96647 9.92696 3.09715C10.6919 2.6611 11.4853 2.29192 12.333 1.9729C13.1807 1.65526 14.0426 1.40728 14.9331 1.19692C15.5867 1.04786 16.2632 0.967057 16.951 0.964271C17.6403 0.967057 18.3381 1.04508 19.0331 1.20389C19.7266 1.36689 20.4145 1.61765 21.0738 1.94782C21.2379 2.03419 21.4006 2.12197 21.5618 2.21252C21.7217 2.30725 21.8772 2.41034 22.0328 2.51204C22.1883 2.60956 22.3425 2.73076 22.4952 2.84779C22.6464 2.9662 22.802 3.08462 22.9375 3.21418C23.5141 3.7171 23.9936 4.29385 24.4089 4.90126C24.8256 5.51006 25.1538 6.16622 25.4106 6.85303C25.5448 7.19296 25.6418 7.5496 25.7389 7.90624C25.8174 8.26985 25.8973 8.63066 25.9344 9.0082C26.0229 9.75492 26.0286 10.5295 25.9101 11.3152L25.873 11.5785L25.8159 11.8432C25.776 12.0188 25.7374 12.1943 25.6875 12.3698C25.5748 12.7153 25.4592 13.072 25.3122 13.3882C25.0253 14.036 24.6557 14.6211 24.2519 15.1463C23.8466 15.6715 23.4013 16.1313 22.9404 16.5381C22.478 16.9449 21.9985 17.3057 21.509 17.6219C20.5172 18.2349 19.4669 18.7754 18.3709 19.1251C18.0998 19.2296 17.8229 19.3006 17.5461 19.3773C17.2692 19.4511 16.9938 19.5389 16.7127 19.5876L15.8721 19.7548C15.591 19.7966 15.3084 19.8314 15.0259 19.869C14.8932 19.8844 14.7604 19.908 14.6277 19.9164L14.2281 19.9443C13.9613 19.9596 13.693 19.9889 13.4261 19.9916L12.6213 19.9986L12.4186 20L12.2174 19.9902L11.8136 19.968C11.2727 19.9499 10.7361 19.8718 10.1952 19.8008C9.92553 19.7604 9.65868 19.6991 9.38897 19.6461L8.9851 19.5612C8.85095 19.5305 8.71825 19.4887 8.58553 19.4525C8.31867 19.3773 8.05179 19.2993 7.78636 19.2171C7.52378 19.1209 7.26264 19.022 7.00006 18.9189C6.8702 18.866 6.73746 18.82 6.60903 18.7587L6.22658 18.5748C5.97399 18.4467 5.71426 18.3296 5.4688 18.182C5.22335 18.0343 4.97932 17.8838 4.73814 17.7292L4.5569 17.6122L4.38281 17.4826L4.0389 17.2193C3.57367 16.8682 3.1541 16.4851 2.75737 16.0644C2.07381 15.3414 1.48871 14.4985 1.02634 13.5651C0.568253 12.629 0.237182 11.5952 0.0901945 10.5128C0.0516637 10.2467 0.0288223 9.9625 0.0102704 9.68388C0.000280947 9.40525 -0.00541269 9.12662 0.00743092 8.85078C0.030264 8.2991 0.0944723 7.75299 0.211492 7.21664C0.327084 6.68028 0.486915 6.1509 0.692413 5.63405C0.899337 5.11719 1.15621 4.61288 1.45732 4.12668C1.73845 3.66973 1.99105 3.11665 2.34354 2.56358C2.69745 2.00494 3.17409 1.45047 3.73207 1.10219C4.19302 0.813812 4.83376 0.480858 5.52017 0.270495C6.20374 0.0559532 6.92727 -0.0401751 7.47527 0.0155501C7.70931 0.0336607 7.9519 0.0796378 8.18452 0.0977485C8.41427 0.12979 8.63975 0.135363 8.8638 0.106107C9.1221 0.0740649 9.359 0.0629148 9.56878 0.0921705C9.77856 0.115854 9.96264 0.163221 10.1125 0.241236C10.4179 0.386122 10.592 0.622957 10.6391 0.923873C10.6876 1.22479 10.6077 1.59257 10.4264 2.04255C10.2466 2.49393 9.9655 3.02889 9.65012 3.68087C9.51312 3.96647 9.40608 4.31336 9.28764 4.63099C9.17062 4.95002 9.04932 5.2356 8.92232 5.42786C8.91233 5.44318 8.89091 5.47523 8.88093 5.49473C8.77675 5.68977 8.69541 5.85555 8.63119 5.99347L8.4785 6.31667C8.43854 6.39748 8.40714 6.45181 8.37859 6.49221C8.35005 6.52982 8.32579 6.54515 8.30438 6.5563C8.28298 6.56187 8.25873 6.55351 8.23019 6.54515C8.20308 6.53261 8.17168 6.51311 8.13743 6.50196C8.10318 6.48525 8.0675 6.46992 8.03183 6.46853C7.99615 6.46156 7.96046 6.46295 7.93049 6.48246C7.78065 6.56047 7.63938 6.66635 7.54805 6.77223C7.53663 6.78616 7.52522 6.79731 7.51237 6.80985C7.50381 6.82517 7.49381 6.8391 7.48239 6.85164C7.45813 6.87393 7.44387 6.91015 7.41675 6.9422C7.39392 6.97702 7.37252 7.01463 7.34968 7.05086C7.33256 7.09265 7.30544 7.12608 7.28831 7.17206C7.12705 7.50084 7.0343 7.98704 7.07997 8.46489C7.1185 8.91347 7.29688 9.43868 7.61655 9.95553C7.7778 10.2147 7.97188 10.4724 8.19735 10.7204C8.31295 10.843 8.42854 10.9656 8.55698 11.0812C8.68113 11.1996 8.81671 11.311 8.95371 11.41C9.60873 11.9212 10.3736 12.3573 11.2299 12.622C12.0818 12.8881 13.0251 12.9536 13.8985 12.7655C14.0169 12.7376 14.1354 12.6986 14.2496 12.6471C14.3623 12.5885 14.4736 12.5273 14.5835 12.4785C14.6391 12.4534 14.6934 12.4325 14.749 12.4144C14.8033 12.3921 14.8575 12.3712 14.9117 12.3587C15.0216 12.3322 15.1358 12.3308 15.2613 12.3657H15.2528C15.6966 12.1636 16.0805 11.8864 16.4644 11.7025L16.6056 11.6426L16.677 11.6134L16.7412 11.5744C16.8268 11.5228 16.9153 11.4727 17.0024 11.4239C17.1808 11.3278 17.3434 11.2024 17.4861 11.0881C17.773 10.8541 17.9714 10.6173 18.0755 10.4473C18.1283 10.3609 18.1612 10.2927 18.184 10.2397C18.1868 10.2328 18.1897 10.2272 18.194 10.2202C18.194 10.216 18.194 10.2105 18.194 10.2063C18.1954 10.1979 18.1982 10.191 18.2039 10.184C18.2111 10.1673 18.2111 10.145 18.2268 10.1269C18.2525 10.0363 18.2882 9.88866 18.3067 9.69084C18.3081 9.67552 18.2796 9.66297 18.2496 9.65043C18.2197 9.63789 18.184 9.62397 18.1797 9.60307Z" fill="#4633FF"/>
</svg>
