<svg width="117" height="6" viewBox="0 0 117 6" fill="none" xmlns="http://www.w3.org/2000/svg">
<path d="M39.5052 5.41938C37.905 5.41957 32.2391 5.3149 28.6076 5.27777C20.2029 5.18336 11.7951 4.94898 3.4756 4.32932C2.1764 4.2326 -0.0459469 4.14291 0.136801 3.20167C0.32657 2.22126 1.88322 1.70554 4.13649 1.82878C5.50139 1.90729 6.86621 1.98663 8.23267 2.06518C9.59955 2.13955 10.968 2.21397 12.3372 2.28003C15.0733 2.4213 17.8151 2.48904 20.5481 2.47359C28.5426 2.40045 36.4992 2.62776 44.475 2.58508C51.6331 2.53905 58.7951 2.51659 65.9468 2.33217C67.6253 2.28147 69.3034 2.21986 70.9787 2.15482C71.8172 2.12107 72.6553 2.0915 73.4929 2.05185L76.0041 1.93289L81.0256 1.70331C82.6992 1.62315 84.3722 1.5505 86.0483 1.49219C87.4943 1.4457 88.9405 1.39587 90.3886 1.3595C91.8367 1.32229 93.287 1.29435 94.7371 1.26893L99.087 1.16416C100.537 1.12615 101.988 1.09237 103.435 1.02751C104.798 0.971103 106.4 0.704613 107.892 0.635153C109.126 0.584277 111.176 0.45542 112.414 0.460771C112.948 0.462688 113.504 0.472747 114.012 0.405242C116.343 0.0951576 117.048 0.395144 116.501 1.51859C116.38 1.76556 116.655 2.06155 116.114 2.25965C116.092 2.26821 116.048 2.28455 116.028 2.29404C114.428 3.0556 112.563 2.86811 110.762 2.99737C101.902 3.61023 92.998 4.05013 84.0858 4.40435C82.7187 4.45728 81.3512 4.51356 79.982 4.55638L75.8745 4.68318C73.138 4.78061 70.401 4.85206 67.6707 4.98066C66.1769 5.05425 64.6852 5.21585 63.1593 5.15786L63.1858 5.15778C61.6001 5.21533 60.0157 5.30643 58.4275 5.32623C52.4202 5.37928 46.1423 5.50499 40.3767 5.38323C40.1465 5.37998 39.84 5.42228 39.5052 5.41938Z" fill="#F1F1F1"/>
</svg>
