<svg width="1440" height="1232" viewBox="0 0 1440 1232" fill="none" xmlns="http://www.w3.org/2000/svg">
<g opacity="0.3">
<path d="M944.824 148.263C946.183 147.014 947.809 145.862 949.462 144.515C951.088 143.188 953.05 141.854 955.131 140.562C959.294 137.978 964.193 135.569 969.751 133.629C980.826 129.798 994.7 127.732 1009.74 130.362C1017.21 131.744 1024.98 134.219 1032.28 138.595C1039.55 142.907 1046.31 149.135 1051.08 157.019C1055.95 164.825 1058.6 174.471 1058.46 184.14C1058.23 193.837 1055.39 203.389 1050.75 211.919C1046.04 220.435 1039.71 228.104 1032.09 234.358C1024.44 240.584 1015.58 245.64 1005.78 248.391C1000.9 249.776 995.817 250.622 990.664 250.802C989.381 250.81 988.084 250.881 986.801 250.819L982.944 250.577L979.207 250.097C977.965 249.915 976.731 249.65 975.49 249.434C965.63 247.423 956.252 243.428 948.002 238.05C931.459 227.204 919.308 211.522 911.532 194.975C907.605 186.691 904.786 178.083 902.97 169.503C901.146 160.901 900.473 152.313 900.557 144.137C900.724 134.636 901.928 125.163 904.227 115.919C906.512 106.669 910.038 97.7053 914.637 89.2944C919.215 80.8555 925.105 73.1236 932.04 66.3514C933.722 64.5971 935.627 63.095 937.456 61.5017C939.313 59.9576 941.296 58.5465 943.237 57.1145C947.259 54.4255 951.372 51.8697 955.767 49.8395C964.472 45.632 973.829 42.714 983.483 41.5556C993.123 40.3903 1003.08 40.6971 1012.6 43.2199C1022.2 45.5394 1031.29 50.2151 1038.92 56.3715C1046.59 62.5279 1052.96 70.158 1057.8 78.6167C1062.64 87.0753 1065.98 96.4328 1067.43 106.143C1068.87 115.852 1068.37 125.991 1065.5 135.565C1064.08 140.341 1062.06 144.991 1059.48 149.291C1056.89 153.592 1053.78 157.542 1050.27 161.065C1043.26 168.132 1034.78 173.482 1025.65 177.059C1016.52 180.636 1006.7 182.446 996.83 182.216C986.979 181.98 976.992 179.59 968.161 174.711C959.259 169.832 952.009 162.588 946.589 154.348L945.557 152.799L944.637 151.201C944.033 150.129 943.401 149.078 942.826 147.984C941.779 145.763 940.641 143.583 939.805 141.291C937.929 136.763 936.655 132.045 935.635 127.314C933.74 117.801 933.353 108.041 934.579 98.455C935.713 88.8062 938.538 79.6326 942.155 70.837C949.621 53.3086 960.868 37.9996 973.344 24.3722C985.882 10.6537 1000.43 -1.39786 1016.53 -10.8495C1032.62 -20.2731 1050.43 -27.4404 1069.41 -29.7078C1074.14 -30.2588 1078.92 -30.5505 1083.74 -30.3724C1086.14 -30.3675 1088.54 -30.0962 1090.94 -29.916C1093.33 -29.5815 1095.73 -29.3312 1098.1 -28.8004C1100.48 -28.3818 1102.82 -27.7247 1105.16 -27.1168C1106.32 -26.7812 1107.46 -26.3686 1108.62 -26.005C1109.77 -25.6554 1110.91 -25.2287 1112.02 -24.7599C1116.57 -23.0531 1120.85 -20.7781 1124.99 -18.2716C1133.26 -13.1324 1140.51 -6.34451 1146.17 1.4754C1149.05 5.36428 1151.54 9.51296 1153.64 13.8232C1155.75 18.1335 1157.58 22.5701 1158.96 27.1475C1164.64 45.4005 1165 64.9764 1160.62 83.3925C1158.4 92.6076 1154.96 101.543 1150.26 109.835C1147.93 114.016 1145.1 117.791 1142.39 121.643C1139.41 125.27 1136.51 129.01 1133.15 132.294C1125.03 140.771 1114.1 149.37 1101.93 156.175C1089.79 163.085 1076.41 168.061 1064.23 171.268C1052.03 174.448 1040.99 175.987 1033.17 176.288C1031.22 176.423 1029.46 176.473 1027.93 176.426C1026.4 176.399 1025.1 176.344 1024.06 176.247C1021.98 176.066 1020.92 175.766 1021.09 175.31C1021.76 173.192 1035.07 171.841 1056.74 165.603C1067.53 162.403 1080.36 157.729 1093.95 150.299C1094.8 149.828 1095.67 149.407 1096.52 148.901C1097.35 148.389 1098.21 147.869 1099.04 147.357C1100.72 146.304 1102.5 145.313 1104.19 144.162C1105.88 142.99 1107.58 141.803 1109.3 140.596C1110.18 140.02 1111.02 139.367 1111.84 138.693C1112.69 138.026 1113.53 137.36 1114.37 136.693C1121.05 131.267 1127.73 125.049 1133.5 117.555C1136.99 113.023 1140.31 108.357 1142.94 103.377C1145.62 98.3894 1147.8 93.1358 1149.51 87.7144C1152.91 76.8645 1154.39 65.3573 1153.9 53.971C1153.42 42.5847 1150.96 31.2492 1146.34 20.9183C1141.75 10.5873 1134.91 1.28893 1126.16 -5.6869C1117.45 -12.6628 1106.79 -17.3652 1095.75 -19.4589C1084.64 -21.5667 1073.06 -21.0728 1061.82 -18.7421C1050.55 -16.4255 1039.63 -12.237 1029.3 -6.9342C1018.95 -1.6174 1009.17 4.85579 1000.11 12.2329C991.023 19.5609 982.763 27.8627 975.149 36.8021C967.571 45.7064 960.708 55.213 955.332 65.4616C949.956 75.6751 946.018 86.6586 944.331 97.9066C942.728 109.162 943.489 120.772 946.661 131.623C949.783 142.467 955.731 152.46 963.976 159.85C972.102 167.304 982.882 171.508 993.989 172.284C1005.1 173.129 1016.48 170.784 1026.53 165.917C1031.58 163.493 1036.24 160.369 1040.42 156.726C1044.55 153.042 1048.15 148.79 1050.95 144.089C1055.04 137.229 1057.36 129.296 1057.97 121.261C1058.58 113.204 1057.49 104.987 1055.01 97.2137C1050.02 81.6875 1039.47 67.7859 1025.6 59.4823C1022.12 57.431 1018.46 55.7304 1014.65 54.4576C1012.75 53.8072 1010.75 53.3743 1008.82 52.794C1006.82 52.4452 1004.84 51.9841 1002.83 51.7335C994.78 50.6958 986.514 51.1097 978.501 52.8065C970.481 54.4823 962.75 57.5461 955.602 61.584C948.475 65.6499 941.874 70.697 936.369 76.7458C930.793 82.7946 926.094 89.649 922.335 97.0074C918.555 104.373 915.828 112.263 913.928 120.356C912.077 128.456 911.046 136.773 911.061 145.102C911.071 149.26 911.222 153.453 911.682 157.554C912.141 161.656 912.832 165.75 913.796 169.788C917.631 185.911 925.308 201.217 936.117 213.688C946.877 226.152 961.188 235.605 977.037 238.957C981 239.795 985.032 240.247 988.937 240.251C990.914 240.291 992.877 240.079 994.848 239.888C996.81 239.571 998.773 239.289 1000.71 238.782C1004.57 237.818 1008.37 236.49 1012.01 234.748C1015.64 232.985 1019.1 230.892 1022.37 228.512C1025.67 226.161 1028.67 223.402 1031.47 220.49C1034.27 217.557 1036.82 214.399 1038.99 210.997C1043.38 204.248 1046.51 196.68 1047.51 188.875C1048.03 184.983 1048.04 181.064 1047.5 177.236C1046.92 173.408 1045.75 169.707 1044.1 166.203C1040.8 159.159 1035.4 153.155 1028.83 148.842C1022.24 144.486 1014.53 141.758 1006.55 140.531C998.567 139.297 990.321 139.529 982.358 141.128C974.408 142.733 966.726 145.699 959.971 150.038C953.307 154.545 947.127 160.153 941.951 166.524C931.529 179.301 924.658 194.935 920.444 211.178C918.341 219.327 916.882 227.658 915.999 236.066C915.826 238.169 915.547 240.273 915.458 242.384L915.197 248.736L914.922 255.082C914.847 257.2 914.996 259.324 915.012 261.434C915.279 278.388 917.341 295.361 921.5 311.856C925.229 326.647 930.171 341.149 936.507 355.034C942.984 368.848 950.652 382.1 959.441 394.58C968.371 406.954 978.527 418.416 989.586 428.875L998.112 436.475C1001.04 438.898 1004.11 441.167 1007.09 443.528C1010.03 445.958 1013.25 448.003 1016.39 450.131C1019.56 452.239 1022.65 454.466 1026.01 456.279C1078.31 487.631 1143.31 497.124 1202.52 482.614C1206.25 481.867 1209.88 480.679 1213.53 479.575C1217.17 478.464 1220.86 477.465 1224.38 476.018C1227.93 474.655 1231.53 473.382 1235.05 471.949C1238.5 470.361 1242.02 468.907 1245.43 467.228C1259.1 460.555 1272.02 452.375 1283.87 442.85C1307.52 423.863 1326.96 399.236 1337.64 371.012C1338.41 369.294 1338.9 367.47 1339.49 365.682L1341.21 360.302C1342.26 356.69 1343 352.995 1343.92 349.355C1345.44 342.034 1346.19 334.559 1346.28 327.07C1346.45 312.086 1343.96 297.056 1339.08 282.848C1334.21 268.661 1326.95 255.261 1317.47 243.714C1307.98 232.203 1296.23 222.572 1282.91 216.119C1276.66 213.089 1270.08 210.717 1263.38 209.286C1256.66 207.84 1249.74 207.278 1242.82 207.523C1228.98 208.012 1215.21 211.691 1202.72 217.865C1190.23 224.039 1178.95 232.743 1170.22 243.437C1161.48 254.109 1155.39 266.896 1153.53 280.367C1152.56 287.085 1152.72 293.949 1153.76 300.721C1154.79 307.472 1156.71 314.125 1159.4 320.461C1164.8 333.161 1173.34 344.498 1183.62 353.779C1194.03 362.97 1206.29 369.872 1219.57 374.152C1232.84 378.389 1246.92 380.347 1260.98 379.97C1275.03 379.621 1289.1 377.302 1302.5 372.929L1307.53 371.305L1312.46 369.386C1315.79 368.192 1318.95 366.632 1322.16 365.185C1323.79 364.489 1325.33 363.626 1326.89 362.811L1331.57 360.346L1336.11 357.635C1337.62 356.723 1339.17 355.866 1340.61 354.834C1352.41 347.09 1363.19 337.818 1372.52 327.286C1381.76 316.669 1389.5 304.778 1395.27 292.012C1401.15 279.281 1404.51 265.57 1405.88 251.644C1406.35 248.18 1406.33 244.667 1406.48 241.168C1406.6 239.422 1406.47 237.676 1406.44 235.924L1406.28 230.679L1405.77 225.449C1405.59 223.71 1405.5 221.964 1405.17 220.24C1404.57 216.791 1404.15 213.32 1403.25 209.928L1402.07 204.817L1400.54 199.798C1399.63 196.42 1398.26 193.209 1397.06 189.929C1396.49 188.282 1395.68 186.719 1394.96 185.135L1392.77 180.397L1390.25 175.828C1389.41 174.307 1388.61 172.751 1387.6 171.336C1380.19 159.563 1370.8 149.11 1359.62 140.923C1340.28 126.84 1316.23 119.085 1292.28 119.085C1280.32 119.075 1268.35 121.041 1257.19 125.09C1255.79 125.603 1254.39 126.074 1253 126.629L1248.97 128.526C1247.64 129.172 1246.25 129.741 1244.97 130.436C1243.72 131.181 1242.42 131.827 1241.2 132.62C1236.27 135.695 1231.69 139.423 1227.55 143.612C1219.29 151.998 1212.76 162.234 1208.47 173.253C1204.2 184.278 1202.12 196.207 1203.22 207.726C1204.36 219.224 1208.99 230.137 1216.96 238.214C1224.92 246.341 1235.68 251.534 1247.16 252.947C1252.88 253.734 1258.77 253.645 1264.61 252.862C1270.45 252.078 1276.26 250.699 1281.89 248.675C1293.14 244.668 1303.77 238.615 1313 230.936C1317.61 227.104 1321.9 222.886 1325.73 218.297C1329.49 213.568 1333.13 208.727 1336.17 203.48C1342.38 193.104 1347.22 181.818 1349.98 170.051L1350.99 165.632C1351.32 164.153 1351.48 162.652 1351.74 161.172C1351.95 159.679 1352.28 158.199 1352.38 156.692L1352.77 152.19C1352.95 150.682 1352.96 149.182 1352.97 147.681L1353.03 143.173L1352.76 138.693C1352.67 137.192 1352.63 135.699 1352.34 134.227L1351.7 129.789C1351.62 129.046 1351.48 128.31 1351.29 127.588L1350.79 125.407C1350.42 123.963 1350.18 122.477 1349.73 121.061L1348.37 116.806C1348.14 116.098 1347.92 115.376 1347.67 114.689L1346.8 112.643L1345.06 108.536C1343.8 105.872 1342.4 103.3 1340.78 100.827C1327.95 81.0374 1304.92 67.6024 1281.31 66.3049C1275.77 66.0293 1270.07 66.476 1264.47 67.7641C1258.86 69.031 1253.43 71.3145 1248.37 74.383C1238.41 80.5759 1230.22 90.6446 1226.47 102.196C1224.56 107.954 1223.97 114.055 1224.61 119.944C1225.35 125.833 1227.47 131.412 1230.97 136.205C1234.43 140.998 1239.04 144.997 1244.22 148.036C1249.43 151.039 1255.15 153.124 1260.99 154.212C1265.82 155.099 1271.18 155.388 1276.7 154.71C1282.21 153.92 1287.87 152.345 1293.02 149.15C1303.64 143.132 1312.46 132.375 1317.22 119.877C1322.11 107.42 1323.29 93.536 1321.18 81.2186C1320.17 75.0563 1318.22 69.2315 1315.87 63.9749C1313.48 58.7323 1310.78 53.9528 1307.76 49.9238C1302.73 42.8255 1296.23 36.619 1289.01 31.6331C1281.76 26.6823 1273.56 23.3099 1265.34 21.6624C1255.89 19.9108 1246.99 20.5847 1239.31 22.3793C1231.62 24.2722 1225.14 27.2438 1219.87 30.4457C1209.29 36.9757 1203.7 44.2795 1200.4 48.924C1198.66 51.2464 1197.69 53.0913 1196.88 54.1438C1196.09 55.2172 1195.58 55.5612 1195.38 55.1968C1195.17 54.8324 1195.28 53.7314 1195.68 51.88C1196.02 49.9796 1197.01 47.4967 1198.44 44.2842C1199.89 41.5764 1199.35 41.4437 1199.89 39.9077C1200.13 39.1011 1200.82 38.0979 1202.2 36.1895C1202.55 35.7194 1202.95 35.2002 1203.4 34.6179C1203.91 34.0846 1204.47 33.4881 1205.08 32.8285C1205.72 32.1829 1206.41 31.4601 1207.17 30.6811C1207.98 29.9442 1208.9 29.1792 1209.9 28.3439C1210.55 27.7964 1211.86 26.6454 1212.53 26.2241C1225.14 16.6073 1241.31 11.2854 1257.67 11.9511C1274.14 12.6168 1289.97 19.6916 1302.3 30.4155C1314.69 41.1673 1323.88 55.533 1328.42 71.4101C1332.97 87.3644 1332.33 104.599 1326.98 120.275C1323.75 129.933 1318.47 138.968 1311.39 146.491C1310.95 146.954 1310.53 147.445 1310.08 147.901L1308.64 149.199L1305.76 151.81L1302.64 154.141L1301.07 155.306C1300.55 155.692 1299.97 155.98 1299.42 156.338L1296.06 158.325C1294.93 158.971 1293.71 159.519 1292.52 160.081C1290.1 161.1 1287.63 162.056 1285.09 162.696C1274.94 165.433 1264.24 165.155 1254.26 162.471C1244.28 159.787 1234.84 154.607 1227.51 146.971C1223.91 143.124 1220.79 138.696 1218.65 133.776C1217.57 131.323 1216.74 128.771 1216.11 126.163C1215.55 123.556 1215.12 120.92 1215 118.269C1214.4 107.633 1217.41 97.1486 1222.58 88.1833C1227.81 79.211 1235.29 71.6039 1244.22 66.2463C1253.12 60.8957 1263.36 57.9278 1273.62 57.3159C1283.9 56.6968 1294.15 58.3076 1303.77 61.5665C1313.39 64.8395 1322.41 69.7606 1330.38 76.05C1338.35 82.3394 1345.23 90.0812 1350.4 98.9322C1355.46 107.853 1358.88 117.477 1360.72 127.439C1364.4 147.391 1361.65 167.972 1354.76 186.664C1351.3 196.027 1346.76 204.978 1341.28 213.333L1339.17 216.434C1338.48 217.473 1337.77 218.504 1336.99 219.479C1335.43 221.437 1333.97 223.457 1332.34 225.38C1329.09 229.239 1325.55 232.839 1321.79 236.166C1306.75 249.424 1288.31 258.99 1268.23 262.394C1258.21 264.001 1247.73 263.919 1237.67 261.32C1227.61 258.756 1218.14 253.575 1210.65 246.297C1203.13 239.026 1197.62 229.6 1195 219.548C1193.64 214.528 1192.9 209.39 1192.67 204.264C1192.5 199.132 1192.83 194.006 1193.58 188.985C1194.3 183.951 1195.56 179.006 1197.14 174.202C1198.71 169.398 1200.65 164.705 1202.97 160.223C1207.56 151.209 1213.53 142.923 1220.7 135.723C1224.32 132.151 1228.22 128.859 1232.4 125.932C1234.53 124.528 1236.66 123.102 1238.92 121.88L1240.6 120.946L1242.31 120.139L1245.74 118.537L1249.17 116.935L1252.72 115.642L1256.27 114.349L1258.05 113.709L1259.87 113.217L1267.17 111.268L1274.59 109.944C1284.53 108.491 1294.62 108.264 1304.58 109.188C1314.53 110.28 1324.34 112.494 1333.81 115.746L1340.82 118.419C1343.11 119.405 1345.35 120.525 1347.63 121.575C1349.94 122.569 1352.07 123.878 1354.26 125.11L1357.53 126.965C1358.63 127.567 1359.62 128.345 1360.68 129.01C1362.73 130.438 1364.88 131.755 1366.86 133.288L1372.75 137.995C1374.68 139.606 1376.44 141.413 1378.29 143.109C1379.19 143.991 1380.17 144.797 1380.99 145.749L1383.5 148.545C1386.96 152.181 1389.9 156.259 1392.9 160.26L1397 166.546C1398.37 168.648 1399.46 170.891 1400.7 173.07C1405.35 181.908 1409.22 191.181 1411.81 200.812C1418.33 224.407 1418.74 249.613 1412.79 273.402C1406.84 297.239 1394.33 319.084 1377.83 336.992C1361.31 354.928 1340.83 369.081 1318.29 378.321C1295.78 387.589 1271.12 391.825 1246.69 389.939C1234.47 389.031 1222.37 386.356 1210.83 382.054C1205.11 379.759 1199.47 377.247 1194.13 374.076C1188.81 370.911 1183.69 367.41 1179.02 363.361C1176.59 361.435 1174.42 359.228 1172.17 357.106C1171.08 356.02 1170.05 354.857 1168.98 353.729L1167.39 352.027C1166.88 351.438 1166.41 350.836 1165.92 350.24L1162.98 346.653L1160.27 342.883C1159.34 341.65 1158.51 340.339 1157.69 339.022C1156.88 337.704 1156.02 336.415 1155.26 335.055C1152.21 329.645 1149.58 323.989 1147.54 318.101C1147 316.636 1146.63 315.122 1146.16 313.629C1145.72 312.129 1145.27 310.643 1144.99 309.101L1144.02 304.516L1143.38 299.868C1141.7 287.452 1143.31 274.5 1147.58 262.717C1149.77 256.819 1152.62 251.214 1155.98 245.952C1159.32 240.684 1163.21 235.772 1167.52 231.316C1171.82 226.839 1176.48 222.733 1181.46 219.069C1186.47 215.432 1191.76 212.202 1197.24 209.386C1202.74 206.555 1208.51 204.286 1214.4 202.401C1217.33 201.431 1220.34 200.706 1223.34 199.961C1226.38 199.355 1229.41 198.714 1232.5 198.361C1245.93 196.568 1259.92 197.292 1273.09 201.41C1286.15 205.452 1298.37 212.074 1308.91 220.731C1319.46 229.36 1328.42 239.841 1335.6 251.376C1342.73 262.96 1348.11 275.611 1351.61 288.783C1351.53 288.481 1351.47 288.187 1351.38 287.878C1355.18 301.583 1356.98 315.87 1356.55 330.16C1356.31 337.298 1355.54 344.444 1354.14 351.456L1351.69 361.85L1348.47 372.019C1338.96 398.882 1322.11 422.645 1301.47 441.748C1281.95 459.918 1258.8 474.249 1233.77 483.926L1224.35 487.461C1221.16 488.48 1217.93 489.409 1214.72 490.4L1209.89 491.849C1208.28 492.32 1206.63 492.637 1204.99 493.031L1195.17 495.297C1181.97 497.7 1168.62 499.64 1155.16 499.862C1128.26 500.951 1101.26 497.224 1075.42 489.709C1072.14 488.898 1069.02 487.653 1065.81 486.597L1061.04 484.953C1059.46 484.408 1057.84 483.884 1056.31 483.205C1050.11 480.567 1043.81 478.196 1037.83 475.039C1025.63 469.335 1014.25 462.011 1003.23 454.308C959.816 422.345 928.385 375.739 913.862 325.093C909.952 312.49 907.711 299.492 905.835 286.537C905.537 283.27 905.254 280.009 904.95 276.756L904.511 271.877C904.411 270.25 904.424 268.609 904.359 266.983C904.286 263.723 904.199 260.455 904.126 257.195C904.123 253.935 904.359 250.688 904.475 247.435C904.878 234.442 906.78 221.462 910.002 208.859L910.603 206.496L911.295 204.16C911.756 202.603 912.204 201.039 912.7 199.482C913.791 196.417 914.763 193.31 916.057 190.294C918.436 184.227 921.362 178.363 924.708 172.744C928.993 165.701 935.534 156.419 944.824 148.263Z" fill="white"/>
<path d="M192.124 752.425C191.126 750.872 190.27 749.074 189.225 747.214C188.196 745.385 187.217 743.224 186.3 740.952C184.467 736.409 182.931 731.17 181.971 725.362C180.091 713.795 180.428 699.772 185.592 685.408C188.232 678.28 192.001 671.047 197.56 664.607C203.054 658.177 210.346 652.585 218.93 649.229C227.454 645.771 237.411 644.808 246.913 646.606C256.427 648.492 265.353 652.922 272.963 658.955C280.549 665.047 287.022 672.597 291.88 681.178C296.706 689.774 300.171 699.374 301.204 709.499C301.734 714.543 301.698 719.696 300.993 724.804C300.782 726.069 300.63 727.36 300.35 728.613L299.451 732.371L298.339 735.972C297.948 737.164 297.475 738.334 297.05 739.52C293.382 748.891 287.841 757.447 281.131 764.656C267.614 779.099 250.085 788.387 232.452 793.218C223.618 795.67 214.655 796.975 205.89 797.296C197.103 797.621 188.526 796.816 180.485 795.334C171.153 793.544 162.025 790.736 153.312 786.89C144.589 783.057 136.36 778.049 128.86 772.079C121.329 766.124 114.719 758.998 109.233 751.007C107.792 749.05 106.638 746.915 105.381 744.841C104.178 742.747 103.127 740.552 102.048 738.395C100.087 733.972 98.2722 729.482 97.0238 724.805C94.3675 715.509 93.0936 705.79 93.6039 696.08C94.105 686.383 96.1108 676.625 100.225 667.68C104.152 658.618 110.314 650.461 117.686 643.993C125.064 637.49 133.672 632.516 142.834 629.196C151.995 625.877 161.786 624.188 171.6 624.425C181.414 624.661 191.317 626.892 200.259 631.353C204.722 633.569 208.958 636.357 212.753 639.638C216.548 642.919 219.908 646.659 222.778 650.719C228.541 658.837 232.361 668.114 234.323 677.717C236.286 687.32 236.39 697.307 234.474 706.995C232.556 716.66 228.493 726.091 222.175 733.958C215.844 741.894 207.467 747.797 198.421 751.727L196.718 752.479L194.987 753.112C193.827 753.523 192.683 753.966 191.508 754.347C189.14 754.998 186.797 755.746 184.396 756.178C179.614 757.251 174.748 757.699 169.911 757.895C160.214 758.134 150.532 756.846 141.298 753.998C131.985 751.23 123.43 746.877 115.383 741.808C99.3902 731.454 86.2311 717.753 74.9391 703.13C63.568 688.429 54.1827 672.037 47.6256 654.553C41.0937 637.088 37.0779 618.321 38.0921 599.227C38.3576 594.478 38.8895 589.71 39.8891 584.994C40.3042 582.632 40.983 580.309 41.5708 577.977C42.3094 575.678 42.9664 573.358 43.8937 571.121C44.714 568.843 45.761 566.655 46.7607 564.451C47.2905 563.361 47.8926 562.305 48.4476 561.234C48.99 560.154 49.6048 559.107 50.2575 558.089C52.7168 553.903 55.6903 550.076 58.8692 546.42C65.3465 539.157 73.2744 533.176 81.9483 528.933C86.2722 526.762 90.785 525.023 95.3922 523.684C99.9995 522.345 104.684 521.298 109.43 520.723C128.386 518.248 147.735 521.242 165.129 528.715C173.829 532.474 182.045 537.393 189.41 543.44C193.131 546.452 196.366 549.886 199.697 553.215C202.761 556.775 205.949 560.272 208.611 564.14C215.574 573.589 222.176 585.83 226.798 598.988C231.529 612.129 234.143 626.164 235.219 638.716C236.264 651.284 235.892 662.42 234.85 670.18C234.65 672.117 234.399 673.86 234.089 675.364C233.802 676.866 233.524 678.141 233.251 679.147C232.717 681.168 232.24 682.16 231.82 681.91C229.848 680.886 230.794 667.544 228.355 645.129C227.049 633.946 224.638 620.509 219.643 605.849C219.324 604.933 219.059 603.998 218.706 603.076C218.344 602.166 217.978 601.235 217.616 600.326C216.866 598.489 216.193 596.572 215.349 594.705C214.483 592.84 213.604 590.966 212.709 589.062C212.293 588.093 211.793 587.16 211.27 586.23C210.757 585.288 210.244 584.345 209.731 583.403C205.528 575.889 200.544 568.247 194.149 561.279C190.28 557.067 186.252 552.991 181.794 549.553C177.339 546.058 172.536 543.009 167.486 540.4C157.378 535.196 146.294 531.766 134.993 530.297C123.691 528.829 112.102 529.31 101.133 532.097C90.169 534.85 79.838 539.995 71.4681 547.422C63.1042 554.815 56.6483 564.508 52.6957 575.032C48.7186 585.616 47.2236 597.112 47.5974 608.583C47.9525 620.078 50.2109 631.554 53.667 642.646C57.1356 653.748 61.8397 664.494 67.5581 674.682C73.2233 684.889 79.9897 694.447 87.4947 703.478C94.9711 712.468 103.163 720.856 112.341 727.906C121.484 734.95 131.632 740.709 142.426 744.296C153.241 747.8 164.81 749.037 176.044 747.769C187.262 746.548 198.125 742.398 206.817 735.538C215.551 728.807 221.537 718.905 224.202 708.095C226.935 697.296 226.573 685.678 223.496 674.943C221.972 669.557 219.691 664.431 216.818 659.687C213.894 654.984 210.32 650.716 206.168 647.153C200.108 641.951 192.691 638.3 184.878 636.324C177.043 634.352 168.762 634.017 160.678 635.132C144.527 637.394 129.025 645.411 118.471 657.655C115.855 660.732 113.554 664.042 111.647 667.583C110.681 669.344 109.914 671.233 109.011 673.041C108.326 674.95 107.533 676.82 106.942 678.76C104.542 686.514 103.536 694.729 103.837 702.914C104.116 711.102 105.811 719.243 108.567 726.977C111.354 734.694 115.197 742.061 120.215 748.52C125.22 755.049 131.17 760.851 137.777 765.813C144.387 770.798 151.694 774.835 159.343 778.091C167.007 781.301 175.024 783.739 183.234 785.15C187.332 785.851 191.489 786.419 195.608 786.669C199.728 786.918 203.88 786.938 208.023 786.679C224.564 785.658 240.959 780.713 255.095 772.197C269.216 763.729 280.978 751.245 286.992 736.203C288.496 732.443 289.631 728.548 290.303 724.7C290.681 722.759 290.808 720.789 290.956 718.815C290.98 716.827 291.038 714.844 290.869 712.852C290.581 708.881 289.922 704.911 288.828 701.029C287.712 697.15 286.242 693.381 284.457 689.75C282.704 686.103 280.5 682.67 278.111 679.411C275.699 676.155 273.025 673.096 270.044 670.376C264.145 664.902 257.223 660.526 249.705 658.203C245.96 657.022 242.1 656.341 238.236 656.222C234.366 656.136 230.519 656.653 226.784 657.68C219.28 659.728 212.441 664.018 207.066 669.757C201.648 675.502 197.64 682.637 195.067 690.283C192.485 697.941 191.303 706.104 191.515 714.224C191.737 722.331 193.345 730.408 196.464 737.806C199.765 745.143 204.232 752.19 209.624 758.38C220.43 770.834 234.658 780.279 249.94 787.21C257.61 790.676 265.568 793.538 273.701 795.847C275.744 796.377 277.769 797.012 279.833 797.461L286.047 798.805L292.252 800.161C294.326 800.598 296.444 800.814 298.526 801.16C315.276 803.797 332.352 804.669 349.314 803.394C364.525 802.25 379.659 799.863 394.423 795.995C409.142 791.977 423.51 786.689 437.31 780.164C451.03 773.484 464.06 765.439 476.257 756.332L485.203 749.232C488.091 746.764 490.853 744.124 493.687 741.597C496.585 739.116 499.15 736.293 501.785 733.561C504.404 730.797 507.128 728.13 509.488 725.136C549.326 678.966 569.799 616.55 565.633 555.734C565.537 551.924 564.986 548.151 564.523 544.364C564.051 540.589 563.698 536.785 562.875 533.064C562.139 529.33 561.501 525.569 560.691 521.857C559.718 518.181 558.885 514.473 557.815 510.823C553.579 496.216 547.732 482.078 540.374 468.775C525.713 442.228 504.774 418.866 478.793 403.513C477.232 402.46 475.519 401.666 473.859 400.775L468.853 398.159C465.474 396.508 461.959 395.147 458.531 393.616C451.577 390.87 444.34 388.852 436.978 387.48C422.244 384.75 407.009 384.63 392.176 387.006C377.365 389.378 362.92 394.241 349.921 401.608C336.957 408.981 325.458 418.913 316.821 430.933C312.766 436.573 309.304 442.649 306.748 449.003C304.173 455.381 302.436 462.104 301.492 468.964C299.606 482.684 300.876 496.878 304.822 510.239C308.768 523.6 315.414 536.204 324.456 546.639C333.475 557.077 345.033 565.257 357.986 569.401C364.439 571.505 371.231 572.515 378.081 572.652C384.908 572.792 391.791 572.039 398.494 570.472C411.931 567.321 424.562 560.851 435.465 552.31C446.301 543.623 455.199 532.729 461.688 520.374C468.133 508.025 472.47 494.493 474.504 480.571C476.565 466.668 476.687 452.408 474.67 438.463L473.931 433.226L472.885 428.036C472.278 424.551 471.282 421.17 470.405 417.76C469.998 416.039 469.41 414.379 468.874 412.7L467.246 407.666L465.353 402.728C464.711 401.087 464.132 399.415 463.362 397.816C457.751 384.864 450.46 372.661 441.68 361.66C432.801 350.741 422.409 341.083 410.819 333.211C399.281 325.241 386.346 319.591 372.861 315.853C369.528 314.8 366.064 314.216 362.642 313.469C360.942 313.054 359.2 312.881 357.467 312.617L352.274 311.87L347.034 311.477C345.289 311.36 343.553 311.153 341.798 311.184C338.298 311.177 334.806 311.001 331.309 311.308L326.072 311.598L320.866 312.243C317.382 312.559 313.984 313.367 310.546 313.99C308.827 314.262 307.148 314.797 305.464 315.232L300.422 316.581L295.488 318.283C293.847 318.847 292.177 319.369 290.609 320.123C277.743 325.407 265.836 332.878 255.858 342.489C238.673 359.137 226.919 381.499 222.822 405.097C220.765 416.88 220.655 429.007 222.733 440.701C223 442.163 223.223 443.632 223.534 445.087L224.713 449.382C225.121 450.812 225.444 452.277 225.911 453.652C226.431 455.009 226.845 456.404 227.418 457.741C229.604 463.128 232.493 468.273 235.913 473.069C242.761 482.648 251.729 490.829 261.852 496.939C271.984 503.037 283.381 507.126 294.919 508.009C306.441 508.861 317.985 506.166 327.307 499.693C336.676 493.236 343.634 483.523 346.989 472.462C348.744 466.958 349.664 461.133 349.892 455.246C350.119 449.358 349.753 443.403 348.723 437.504C346.7 425.735 342.554 414.231 336.567 403.826C333.58 398.628 330.159 393.676 326.293 389.116C322.277 384.601 318.131 380.185 313.48 376.294C304.32 368.4 294.029 361.698 282.906 356.973L278.726 355.22C277.326 354.636 275.873 354.229 274.461 353.714C273.024 353.26 271.623 352.676 270.156 352.316L265.787 351.163C264.331 350.734 262.855 350.464 261.379 350.195L256.947 349.365L252.487 348.865C250.993 348.7 249.514 348.487 248.015 348.513L243.533 348.386C242.786 348.342 242.037 348.355 241.294 348.412L239.059 348.538C237.574 348.652 236.069 348.634 234.597 348.835L230.171 349.451C229.435 349.551 228.687 349.642 227.967 349.774L225.801 350.282L221.458 351.29C218.617 352.08 215.844 353.017 213.129 354.191C191.436 363.451 174.259 383.843 168.943 406.875C167.723 412.286 167.187 417.985 167.498 423.724C167.787 429.466 169.107 435.209 171.266 440.712C175.664 451.583 184.182 461.379 194.922 467.048C200.269 469.914 206.178 471.54 212.089 471.921C218.018 472.198 223.879 471.061 229.199 468.437C234.513 465.847 239.242 461.989 243.122 457.408C246.973 452.786 250.006 447.504 252.076 441.942C253.776 437.333 254.978 432.105 255.255 426.546C255.42 420.981 254.835 415.138 252.569 409.517C248.457 398.02 239.368 387.491 227.868 380.659C216.431 373.717 202.953 370.179 190.457 370.148C184.213 370.087 178.141 371.009 172.559 372.428C166.984 373.892 161.814 375.731 157.328 378.016C149.474 381.754 142.246 387.101 136.099 393.361C129.98 399.661 125.254 407.163 122.225 414.979C118.883 423.986 118.024 432.874 118.479 440.744C119.028 448.644 120.848 455.533 123.1 461.28C127.723 472.823 133.963 479.579 137.975 483.623C139.966 485.732 141.617 487.006 142.516 487.98C143.437 488.95 143.69 489.506 143.296 489.644C142.902 489.782 141.836 489.484 140.08 488.776C138.265 488.12 135.989 486.717 133.068 484.761C130.649 482.863 130.425 483.379 129.004 482.586C128.251 482.207 127.381 481.352 125.736 479.673C125.334 479.241 124.89 478.759 124.393 478.217C123.955 477.622 123.463 476.968 122.918 476.255C122.391 475.516 121.797 474.709 121.159 473.831C120.571 472.911 119.975 471.869 119.323 470.746C118.896 470.003 117.986 468.515 117.685 467.787C110.368 453.716 107.89 436.879 111.345 420.869C114.819 404.755 124.498 390.368 137.173 380.056C149.885 369.693 165.613 363.088 182.032 361.335C198.53 359.582 215.4 363.165 229.929 371.118C238.893 375.946 246.892 382.693 253.092 390.958C253.473 391.472 253.885 391.97 254.257 392.497L255.29 394.134L257.37 397.418L259.131 400.895L260.012 402.634C260.303 403.218 260.487 403.84 260.746 404.44L262.13 408.088C262.573 409.31 262.904 410.605 263.254 411.875C263.844 414.432 264.363 417.033 264.558 419.65C265.519 430.111 263.413 440.613 259.062 449.986C254.71 459.36 247.992 467.77 239.214 473.689C234.808 476.578 229.912 478.891 224.699 480.154C222.095 480.807 219.44 481.188 216.763 481.359C214.099 481.461 211.427 481.44 208.796 481.1C198.215 479.87 188.398 475.114 180.451 468.483C172.505 461.795 166.289 453.129 162.538 443.416C158.79 433.725 157.618 423.127 158.77 412.917C159.919 402.684 163.26 392.858 168.117 383.935C172.987 375.021 179.379 366.975 186.939 360.198C194.499 353.421 203.304 347.968 212.908 344.391C222.564 340.929 232.631 339.21 242.761 339.095C263.048 338.885 282.855 345.117 300.092 355.104C308.725 360.117 316.768 366.117 324.063 372.949L326.757 375.556C327.662 376.417 328.557 377.29 329.383 378.23C331.046 380.096 332.787 381.884 334.403 383.814C337.648 387.683 340.591 391.778 343.225 396.054C353.714 413.142 359.984 432.946 359.903 453.311C359.773 463.456 357.897 473.777 353.616 483.24C349.368 492.71 342.644 501.154 334.191 507.293C325.741 513.454 315.511 517.273 305.158 518.138C299.982 518.61 294.791 518.468 289.702 517.816C284.616 517.109 279.623 515.905 274.805 514.304C269.968 512.728 265.312 510.643 260.848 508.271C256.383 505.899 252.092 503.187 248.073 500.13C239.976 494.071 232.835 486.768 226.967 478.475C224.067 474.296 221.491 469.887 219.322 465.272C218.304 462.926 217.264 460.583 216.446 458.151L215.812 456.341L215.31 454.511L214.319 450.86L213.327 447.209L212.661 443.487L211.995 439.764L211.668 437.907L211.494 436.028L210.823 428.504L210.788 420.963C211.057 410.92 212.559 400.948 215.174 391.288C217.952 381.672 221.812 372.384 226.637 363.611L230.468 357.165C231.833 355.074 233.32 353.054 234.744 350.988C236.118 348.884 237.773 347.007 239.361 345.061L241.747 342.165C242.529 341.183 243.465 340.334 244.301 339.411C246.06 337.63 247.724 335.74 249.575 334.046L255.219 329.051C257.137 327.426 259.219 326 261.206 324.464C262.228 323.737 263.19 322.907 264.269 322.261L267.453 320.264C271.627 317.477 276.148 315.277 280.603 313.008L287.498 310.044C289.803 309.054 292.199 308.366 294.559 307.514C304.062 304.445 313.86 302.217 323.793 301.314C348.156 298.927 373.06 302.838 395.48 312.766C417.948 322.709 437.33 338.772 452.151 358.096C466.996 377.439 477.437 400.041 482.685 423.823C487.965 447.59 487.918 472.614 481.881 496.361C478.897 508.24 474.19 519.708 467.978 530.34C464.738 535.587 461.299 540.706 457.261 545.423C453.232 550.128 448.906 554.575 444.118 558.487C441.806 560.542 439.259 562.308 436.783 564.164C435.527 565.05 434.204 565.868 432.911 566.726L430.962 567.997C430.295 568.401 429.62 568.762 428.949 569.144L424.912 571.428L420.734 573.453C419.361 574.154 417.927 574.753 416.489 575.33C415.052 575.908 413.634 576.538 412.164 577.052C406.312 579.13 400.29 580.751 394.141 581.752C392.603 582.041 391.049 582.143 389.498 582.344C387.945 582.524 386.404 582.713 384.836 582.727L380.153 582.9L375.463 582.738C362.944 582.261 350.458 578.461 339.579 572.241C334.142 569.075 329.107 565.309 324.498 561.098C319.88 556.899 315.706 552.229 312.053 547.222C308.377 542.218 305.129 536.925 302.371 531.39C299.644 525.838 297.367 520.073 295.531 514.184C293.682 508.286 292.434 502.208 291.584 496.091C291.13 493.031 290.931 489.944 290.709 486.861C290.632 483.766 290.52 480.666 290.7 477.566C291.233 464.018 294.339 450.36 300.65 438.087C306.865 425.919 315.48 415.012 325.813 406.11C336.12 397.189 347.98 390.151 360.572 385.055C373.206 380.008 386.59 376.876 400.167 375.678C399.857 375.703 399.556 375.715 399.236 375.752C413.388 374.355 427.775 375.018 441.779 377.893C448.772 379.343 455.679 381.333 462.349 383.908L472.17 388.102L481.639 393.011C506.478 406.979 527.008 427.645 542.299 451.248C556.861 473.594 567.02 498.851 572.272 525.167L574.143 535.054C574.602 538.37 574.964 541.713 575.391 545.046L575.994 550.045C576.181 551.721 576.211 553.398 576.32 555.075L576.873 565.139C576.981 578.556 576.608 592.047 574.524 605.348C570.995 632.033 562.704 657.995 550.878 682.172C549.52 685.261 547.757 688.13 546.169 691.107L543.733 695.525C542.925 696.993 542.132 698.493 541.2 699.89C537.541 705.548 534.127 711.348 529.994 716.696C522.286 727.745 513.123 737.704 503.649 747.238C464.73 784.545 413.433 807.54 361.05 813.184C347.963 814.88 334.774 814.864 321.689 814.496C318.419 814.23 315.158 813.952 311.901 813.695L307.018 813.293C305.399 813.112 303.784 812.819 302.171 812.605C298.946 812.119 295.712 811.645 292.487 811.16C289.274 810.605 286.116 809.817 282.93 809.146C270.198 806.526 257.735 802.431 245.869 797.101L243.643 796.105L241.461 795.023C240.006 794.302 238.541 793.594 237.092 792.839C234.259 791.239 231.364 789.75 228.614 787.959C223.043 784.577 217.766 780.691 212.802 776.433C206.596 771.006 198.57 762.974 192.124 752.425Z" fill="white"/>
<path d="M435.127 407.262C434.897 409.471 434.666 411.845 434.386 414.402C434.322 416.942 434.308 419.632 434.244 422.505C434.195 423.933 434.163 425.41 434.115 426.921C434.199 428.416 434.3 429.96 434.401 431.504C434.486 433.081 434.553 434.691 434.654 436.318C434.705 437.132 434.739 437.979 434.773 438.825C434.89 439.672 435.04 440.535 435.157 441.382C436.481 455.278 440.38 471.33 447.501 488.74C461.445 523.579 491.516 563.434 533.668 597.284C575.638 631.417 628.279 659.049 682.02 674.078C708.841 681.609 735.792 686.134 761.462 687.324C787.099 688.414 811.404 686.599 833.051 681.799C858.101 676.414 881.802 667.328 903.143 654.491C924.268 641.671 943.248 624.919 959.602 605.445C975.839 585.872 989.002 563.313 999.026 539.479C1009.05 515.561 1015.19 490.037 1017.96 464.448C1023.14 413.305 1012.9 359.403 990.475 310.626C979.429 286.112 965.162 262.896 948.607 241.443C940.445 230.608 931.354 220.554 922.064 210.733C917.162 206.089 912.509 201.195 907.474 196.65L899.864 189.949L896.075 186.565L892.105 183.38C850.068 149.214 800.236 123.855 747.908 112.228C721.786 106.374 695.135 103.824 668.787 104.826C642.671 105.862 616.624 110.501 591.544 119.106C541.466 136.069 495.436 166.876 462.979 207.649C446.841 228.102 434.06 250.809 425.647 274.908C417.2 299.157 412.707 325.294 412.597 351.627C412.728 368.081 414.621 387.406 418.723 406.712C422.558 426.134 429.432 445.04 436.171 461.803C439.317 470.384 443.192 477.919 446.087 485.338C447.518 489.039 449.331 492.226 450.629 495.612C452.027 498.881 453.142 502.135 454.124 505.155C458.634 516.575 459.34 526.47 453.185 532.153C446.748 538.07 437.202 539.489 424.182 535.815C420.86 534.988 417.638 533.546 414.2 531.789C410.761 530.032 407.14 527.976 403.335 525.539C399.398 523.201 395.809 520.166 391.988 516.849C388.216 513.515 384.112 509.932 380.206 505.785C364.784 489.211 349.555 465.681 338.687 435.904C327.819 406.21 321.527 370.253 323.502 331.034C323.763 325.106 324.554 319.195 325.064 313.267L326.003 304.4L327.522 295.616C328.613 289.77 329.405 283.859 330.844 278.063L335.262 260.725C335.924 257.819 336.884 254.979 337.878 252.156L340.76 243.636L343.674 235.132C344.701 232.325 345.977 229.601 347.121 226.811C349.54 221.296 351.826 215.716 354.395 210.317L362.733 194.52C385.991 152.975 418.07 117.366 455.105 89.3732C473.722 75.5097 493.252 62.8905 514.064 52.8604C534.76 42.6478 556.187 33.9623 578.447 27.8493L586.746 25.4344L595.196 23.468C600.823 22.251 606.401 20.8016 612.095 19.7838L629.194 17.0293C632.016 16.5287 634.888 16.1775 637.793 15.9259L646.426 15.0881C652.187 14.5185 657.948 13.949 663.66 13.8942C669.388 13.7231 675.149 13.4858 680.861 13.431C692.301 13.7863 703.757 13.8591 715.098 15.1609C726.505 15.9146 737.697 17.9304 748.973 19.531C760.082 21.879 771.275 23.8117 782.153 26.9568C793.18 29.6369 803.842 33.2969 814.604 36.7576C819.919 38.6623 825.151 40.7332 830.416 42.7376C835.731 44.6423 840.863 46.9126 845.979 49.216C851.078 51.5526 856.326 53.59 861.326 56.209L876.376 63.8002C881.359 66.3693 886.16 69.3039 891.027 72.0226L898.32 76.2003L905.397 80.7269C924.468 92.482 942.394 106.031 959.442 120.511L972.087 131.591L984.185 143.269C988.289 147.101 992.012 151.282 995.884 155.33L1001.63 161.435C1003.51 163.492 1005.29 165.665 1007.14 167.789C1010.73 172.069 1014.56 176.184 1017.94 180.647L1028.28 193.854C1034.81 202.964 1041.39 211.974 1047.35 221.499C1071.64 259.134 1090.14 300.643 1102.11 344.332C1110.61 376.369 1115.29 409.738 1115.35 443.376C1115.54 477.247 1110.23 511.023 1100.79 543.408C1082.02 608.227 1044.48 668.248 991.259 712.891L980.971 720.87C977.487 723.446 974.169 726.272 970.468 728.616C963.167 733.354 956.049 738.474 948.415 742.632C933.38 751.312 917.63 758.764 901.447 764.922C869.047 777.054 835.1 783.891 801.347 786.179C767.595 788.383 734.037 786.121 701.39 780.538C668.809 774.739 637.072 765.751 606.578 753.773C576.134 741.779 546.816 727.111 519.139 709.652C491.43 692.342 465.395 672.175 441.3 649.367C417.172 626.625 395.398 600.493 377.275 571.204C359.035 542.065 345.508 508.721 338.387 473.594C337.304 469.278 336.918 464.729 336.217 460.313C335.632 455.831 334.848 451.415 334.512 446.932C334.006 437.884 333.135 428.819 333.575 419.787C333.592 401.706 336.117 383.838 339.755 366.402L342.898 353.448C343.907 349.097 345.431 344.962 346.706 340.743C349.172 332.224 352.602 324.102 355.816 315.913C362.875 299.852 370.731 284.105 380.348 269.569C398.985 240.031 422.887 214.242 450.114 192.269L460.667 184.423L465.96 180.549L471.386 176.992L482.288 169.942L493.507 163.507C497.224 161.295 501.057 159.349 504.908 157.453C508.758 155.557 512.575 153.561 516.459 151.765C524.326 148.387 532.093 144.711 540.176 141.898C597.655 120.081 658.899 113.502 718.493 118.464C748.182 121.078 778.173 126.747 807.037 135.754C835.902 144.76 863.872 156.973 890.252 172.623C916.599 188.257 941.404 207.396 963.158 230.406C984.846 253.382 1003.51 280.33 1016.36 310.387C1019.27 318.022 1022.37 325.541 1024.98 333.358L1028.54 345.343C1029.56 349.377 1030.44 353.427 1031.36 357.494C1034.73 373.779 1036.4 390.298 1036.55 406.718C1036.63 439.576 1030.31 471.776 1019.3 501.672C1008.17 531.551 992.502 559.292 973.015 584.048C953.677 608.92 930.285 630.608 904.018 648.579C877.534 666.235 847.943 680.225 816.121 687.874C784.731 695.655 752.605 697.593 721.089 694.897C658.058 689.174 598.829 664.852 549.419 628.335C500.008 591.818 459.204 542.874 434.58 484.701C428.558 470.991 424.129 456.75 420.132 442.391C418.515 435.071 416.499 427.883 415.397 420.446L413.511 409.34L412.206 398.067L411.587 392.406L411.283 386.695L410.725 375.255L410.864 363.666L410.976 357.872L411.452 352.01C411.781 348.108 412.06 344.223 412.471 340.321L414.32 328.547C414.865 324.628 415.741 320.709 416.718 316.757C417.677 312.837 418.521 308.902 419.679 304.999C422.246 297.193 424.53 289.371 428.077 281.763C429.8 277.976 431.175 274.057 433.297 270.386L439.381 259.273C448.218 244.886 458.616 230.864 471.241 219.447C483.334 207.432 497.621 197.922 512.158 189.574C526.979 182.073 542.315 175.618 557.769 171.752C588.694 163.407 619.359 161.487 648.615 163.304C677.972 165.089 706.235 170.227 733.637 177.758C740.413 179.728 747.305 181.797 753.965 183.917C760.492 186.053 767.002 188.305 773.529 190.69C786.534 195.477 799.523 200.795 812.379 206.712C838.042 218.727 863.457 233.149 887.1 251.625C898.897 260.829 910.279 270.947 920.948 281.996C931.434 292.995 941.673 305.654 950.368 318.746C959.212 331.872 966.679 345.928 972.902 360.65C979.075 375.388 984.219 390.692 987.371 406.828C990.606 422.881 992.248 439.549 991.898 456.551C991.614 473.504 988.823 490.823 983.973 507.614C974.439 541.194 954.89 572.143 930.47 595.475C905.984 618.941 877.491 635.47 848.395 646.802C819.183 658.118 789.137 664.454 758.937 666.771C728.771 669.023 698.136 667.306 668.078 660.774C638.153 654.557 609.504 644.039 582.328 629.319C558.922 616.605 536.577 600.602 516.818 580.247C497.108 559.959 479.968 534.853 469.516 505.906C466.87 498.735 465.053 491.149 462.988 483.729C461.437 476.193 460.368 468.523 459.249 460.87L458.608 449.182L458.37 443.337L458.581 437.509L459.185 425.903C459.63 422.1 460.158 418.298 460.719 414.512L461.561 408.833C461.908 406.973 462.371 405.129 462.801 403.269L465.448 392.226C466.524 388.655 467.716 385.101 468.876 381.53L470.648 376.233C471.31 374.489 472.023 372.811 472.752 371.1L477.076 360.935C478.667 357.663 480.358 354.44 482.016 351.201C485.214 344.623 489.277 338.726 493.024 332.546C508.992 308.773 528.782 288.4 551.547 271.959C574.363 255.668 600.585 242.943 627.344 235.963C680.893 221.604 738.327 224.907 790.117 248.256C796.495 251.355 802.94 254.322 809.053 258.118C812.127 259.942 815.233 261.7 818.24 263.656L827.095 269.858L831.464 272.992L835.635 276.442L843.926 283.441C846.651 285.88 849.227 288.617 851.836 291.205C854.412 293.859 857.17 296.397 859.381 299.284C878.561 321.549 892.564 347.206 900.657 374.395C908.65 401.617 911.697 430.355 907.92 459.215C906.731 466.422 905.84 473.612 903.788 480.72C902.845 484.274 901.968 487.861 900.908 491.398L897.115 501.912L895.144 507.11L892.724 512.209L887.769 522.309C885.995 525.614 883.873 528.787 881.933 532.01C879.844 535.2 878.07 538.423 875.549 541.48C870.756 547.594 866.063 553.841 860.439 559.043C857.701 561.702 855.048 564.527 852.194 567.003L843.384 574.1L838.92 577.558L834.241 580.617L824.799 586.569C821.596 588.415 818.277 589.995 815.007 591.642C811.721 593.239 808.452 595.051 805.032 596.249C798.227 598.912 791.489 601.691 784.467 603.457C780.965 604.406 777.496 605.455 773.977 606.272L763.286 608.24L757.924 609.175L752.478 609.695L741.621 610.584C738.001 610.77 734.298 610.624 730.662 610.593C726.993 610.464 723.357 610.6 719.67 610.089C712.314 609.281 704.975 608.607 697.635 606.77C693.965 605.894 690.295 605.266 686.674 604.124L675.846 600.464C674.052 599.818 672.242 599.288 670.481 598.493L665.232 596.04C661.744 594.383 658.256 592.725 654.817 590.968C651.478 588.929 648.156 586.857 644.866 584.718L639.949 581.518C638.354 580.39 636.842 579.096 635.33 577.885C622.77 568.3 612.249 556.454 603.737 543.743C595.242 530.999 588.738 517.257 584.259 503.032C580.163 489.62 577.494 475.51 576.651 460.9C575.808 446.289 576.758 431.163 580.181 415.984C583.539 400.856 589.336 385.576 597.725 371.422C606.081 357.252 616.762 344.575 628.973 333.905C653.444 312.548 683.85 298.84 716.422 294.594C732.692 292.505 749.577 292.921 766.184 296.228C770.319 297.17 774.454 298.03 778.539 299.239C782.608 300.563 786.711 301.905 790.697 303.395C794.567 305.036 798.42 306.792 802.224 308.566C805.912 310.488 809.483 312.561 813.071 314.6C836.113 328.875 859.028 350.971 873.583 381.757C880.835 397.076 886.014 414.554 887.392 433.331C888.064 442.712 887.774 452.359 886.421 461.973C886.191 464.348 885.661 466.822 885.132 469.296L883.428 476.703C882.287 481.652 880.365 486.17 878.726 490.87C871.387 509.24 860.177 524.973 847.088 537.653C833.949 550.349 818.765 560.158 802.467 566.797C786.168 573.436 768.555 576.806 751.303 576.289C749.145 576.208 746.986 576.127 744.878 576.03C742.769 575.932 740.61 575.519 738.518 575.222C736.409 574.875 734.333 574.545 732.257 574.214L729.169 573.669L726.146 572.825C722.144 571.699 718.241 570.54 714.438 569.265C710.551 567.741 706.731 566.167 703.226 564.294C690.901 558.062 680.317 549.421 671.559 539.865C662.933 530.209 656.067 519.606 650.91 508.486C645.753 497.367 642.157 485.781 640.187 473.845C638.134 461.909 637.725 449.589 639.125 437.135C640.41 425.329 643.803 413.621 648.924 402.94C654.046 392.26 661.077 382.657 668.94 374.963L692.63 351.847L721.45 367.844C729.407 372.27 736.502 378.009 741.688 384.413C743.017 385.989 744.281 387.615 745.494 389.258C746.558 390.867 747.606 392.51 748.57 394.153C750.632 397.505 752.046 400.742 753.427 404.045C758.636 417.223 759.692 429.658 758.441 441.315C757.139 452.988 753.264 464.165 746.731 474.1C740.281 484.034 730.941 492.278 721.016 497.367L699.325 508.494L680.886 498.216C672.166 493.574 665.419 487.47 660.367 481.298C655.314 475.043 652.153 468.737 649.824 462.762C645.48 450.761 645.105 439.953 646.475 430.886C647.928 421.819 651.093 414.644 654.791 409.56C658.423 404.526 662.189 401.634 665.227 400.535C671.368 398.288 673.63 402.487 675.047 409.459C675.864 412.979 676.765 417.245 678.396 421.627C680.143 426.025 682.587 430.522 686.127 434.322C688.288 436.644 690.762 437.256 693.053 437.487C695.312 437.7 697.719 437.533 700.027 437.564C700.89 437.58 701.986 437.628 703.497 437.677C704.626 437.742 705.772 437.857 706.934 437.856C708.03 437.905 709.176 437.854 710.072 437.555C710.537 437.372 710.918 437.189 711.2 436.873C711.217 436.84 711.433 436.574 711.283 436.79C711.201 436.873 711.051 437.172 711.051 437.172C710.968 437.255 710.885 437.421 710.769 437.654L688.671 438.038C688.654 437.989 688.604 437.922 688.604 437.922C688.604 437.922 688.604 437.922 688.621 437.972C688.521 437.839 688.421 437.707 688.305 437.607C688.072 437.325 687.989 437.325 687.707 437.06C687.291 436.645 686.876 436.313 686.477 436.114C685.946 435.683 685.331 435.335 684.799 435.07C684.284 434.771 684.018 434.639 683.57 434.291C682.806 433.743 682.075 433.13 681.294 432.948L680.73 432.915C680.73 432.915 680.597 432.932 680.68 432.931L681.062 432.832C681.344 432.765 681.593 432.682 681.892 432.582C682.472 432.332 683.07 432.216 683.684 431.9C684.348 431.567 684.896 431.301 685.427 430.985C687.733 429.688 688.861 428.01 688.612 428.342L725.443 433.606C723.603 437.377 722.826 440.931 722.498 445.414C722.22 449.881 722.606 455.177 724.105 460.571C725.538 465.933 727.983 471.261 730.909 475.542C733.852 479.873 737.241 482.891 740.331 484.765C741.926 485.726 743.238 486.34 745.513 486.935C746.028 487.068 746.494 487.383 747.041 487.449C747.589 487.515 748.138 487.581 748.702 487.696L750.346 488.06C750.944 488.026 751.541 488.076 752.156 488.092C756.905 488.386 762.483 487.601 768.192 485.471C773.852 483.357 779.594 479.998 784.322 475.594C789.067 471.24 792.881 466.09 795.268 460.891C796.412 459.014 796.626 457.004 797.504 455.161C797.686 454.214 797.834 453.251 798.049 452.321L798.414 450.926L798.512 449.315C798.594 448.236 798.742 447.19 798.874 446.094C798.807 444.982 798.773 443.886 798.788 442.774C798.87 441.694 798.737 440.549 798.553 439.42C798.369 438.291 798.385 437.179 798.168 436.033C797.251 431.468 795.935 426.787 793.823 422.206C791.61 417.659 789.166 413.079 785.808 408.997C779.541 400.518 770.918 393.851 762.147 389.227C761.001 388.779 759.872 388.299 758.759 387.785L757.098 387.039L755.371 386.51L751.966 385.35C750.754 385.119 749.558 384.854 748.346 384.54C747.167 384.159 745.921 383.994 744.643 383.896L740.89 383.351C738.3 383.386 735.792 382.924 733.136 383.175C712.116 383.31 689.811 394.42 676.891 409.923L674.635 412.946L673.474 414.442L672.529 416.003C671.883 417.05 671.236 418.096 670.573 419.093C670.059 420.206 669.512 421.302 668.965 422.399L668.12 424.01L667.458 425.754L666.049 429.242L665.006 432.912L664.427 434.739L664.047 436.665L663.22 440.485L662.792 444.42L662.511 446.396L662.463 448.405L662.284 452.423C662.538 457.819 662.725 463.265 664.025 468.56C666.026 479.268 670.8 489.076 676.585 497.273L678.962 500.16C679.71 501.156 680.508 502.135 681.405 502.914C682.27 503.76 683.117 504.639 683.948 505.552C684.845 506.331 685.842 506.995 686.773 507.791C687.687 508.537 688.633 509.3 689.514 510.113C690.411 510.892 691.591 511.356 692.621 512.036C693.667 512.683 694.68 513.313 695.71 513.993C696.674 514.722 697.969 515.037 699.099 515.6C717.005 524.368 741.977 524.96 763.571 517.187C774.377 513.409 784.284 507.606 792.115 500.476C794.072 498.714 795.731 496.72 797.655 494.942C799.463 493.064 800.723 490.872 802.415 488.977C805.367 484.724 808.168 479.94 810.323 474.957C819.221 454.959 820.311 429.654 813.749 406.216C810.501 394.514 805.427 383.311 798.877 373.405C797.098 371.065 795.585 368.443 793.691 366.253C791.729 364.113 790.001 361.757 788.006 359.683L781.825 353.695C779.466 351.854 777.172 349.963 774.896 348.039C755.723 333.744 730.96 325.248 705.257 323.544C679.57 321.806 653.025 326.777 630.421 337.739C608.049 348.567 587.909 366.483 574.678 387.349C561.33 408.281 555.34 431.597 558.381 452.946C559.503 464.003 563.53 474.476 568.951 484.649C574.539 494.739 581.77 504.612 591.192 513.337C600.464 522.112 611.048 530.172 622.676 537.135C634.421 543.949 646.994 549.766 660.049 554.536C673.186 559.14 686.688 562.433 700.238 564.712C713.788 566.825 727.752 567.61 741.699 567.183C775.834 566.123 810.079 557.443 837.245 541.414C864.56 525.417 883.252 502.505 889.936 475.386C896.653 448.449 891.727 416.243 877.141 387.847C875.395 384.279 873.333 380.844 871.371 377.376C869.176 374.04 867.18 370.555 864.77 367.403C860.265 360.799 855.03 354.909 849.379 348.688C837.879 336.727 824.803 325.764 810.167 316.18C795.664 306.496 779.75 298.059 763.041 290.635C754.686 286.923 746.132 283.444 737.396 280.247C733.028 278.607 728.61 277.067 724.159 275.593C719.708 274.037 715.473 272.878 711.105 271.487C676.495 261.273 640.312 256.208 607.739 259.457C591.502 261.065 576.347 264.831 563.352 270.836C550.34 276.792 539.438 285.003 530.647 295.139C522.056 305.208 515.69 317.301 511.618 331.118C507.529 344.886 505.949 360.362 506.677 376.201C507.489 393.617 511.091 411.429 516.9 428.476C518.382 432.742 520.079 436.908 521.677 441.107C523.623 445.19 525.22 449.306 527.349 453.355C531.341 461.57 536.08 469.453 540.952 477.236C561.135 508.133 587.957 535.123 618.593 557.295L617.563 556.532C650.655 578.104 688.523 591.686 725.917 594.99C744.63 596.734 763.192 595.788 781.087 592.435L787.777 591.084L794.152 589.452C796.293 588.985 798.385 588.286 800.476 587.587C802.567 586.887 804.708 586.337 806.767 585.539C815.132 582.576 823.248 578.783 831.281 574.659C861.468 558.477 888.21 532.818 906.978 502.517C925.647 472.166 936.076 437.207 935.168 404.184C935.061 395.916 933.875 387.814 932.49 379.862C931.457 375.945 930.839 371.944 929.491 368.16C928.842 366.218 928.475 364.292 927.659 362.35L925.346 356.508C919.273 340.906 910.676 326.12 899.838 312.415C878.014 285.055 847.113 262.834 812.846 246.858C795.704 238.804 777.451 232.726 759.001 228.127L752.076 226.373L745.068 225.034C740.402 224.158 735.785 223.1 730.97 222.523C726.204 221.846 721.422 221.037 716.623 220.676C711.807 220.182 707.025 219.622 702.227 219.427C663.821 216.903 625.371 220.955 590.165 231.811C554.975 242.634 522.996 260.328 497.995 283.827C472.629 307.476 452.997 337.429 442.117 368.886C441.289 371.377 440.511 374.1 439.716 377.023C439.038 379.963 438.576 383.134 437.898 386.406C437.137 389.677 436.874 393.114 436.429 396.668C436.182 398.411 435.901 400.222 435.67 402.015C435.439 403.559 435.308 405.402 435.127 407.262Z" fill="white"/>
</g>
</svg>
