<svg width="150" height="15" viewBox="0 0 150 15" fill="none" xmlns="http://www.w3.org/2000/svg">
<path d="M149.744 5.48369C149.633 5.26891 149.496 5.09481 149.34 4.97282C149.285 4.92884 149.228 4.89073 149.17 4.8587C149.073 4.80435 149.03 4.78805 148.966 4.76087L148.686 4.66848C148.515 4.61956 148.352 4.58695 148.208 4.55977C147.901 4.49999 147.607 4.45108 147.313 4.41304C146.141 4.2663 144.975 4.19564 143.833 4.15216C141.956 4.09419 140.08 4.11775 138.206 4.22282C138.22 3.88358 138.168 3.54572 138.056 3.25835C137.944 2.97098 137.779 2.7491 137.585 2.62499C137.498 2.56238 137.407 2.51502 137.314 2.4837C137.15 2.43269 136.984 2.4 136.817 2.38586C136.546 2.38586 136.302 2.35869 136.062 2.35869C135.1 2.35869 134.172 2.40761 133.24 2.44565C131.38 2.53261 129.529 2.60326 127.686 2.59782H125.619C124.891 2.59782 124.166 2.59782 123.451 2.59782H123.281H121.698C121.561 2.15761 121.457 1.82608 121.381 1.58695C129.777 0.336947 120.633 -0.0434789 90.1682 0.152173C83.1983 0.195651 75.8077 0.15217 68.6909 0.0978221L38.3 0H30.0276L22.0125 0.0760783H21.0373C20.7033 0.0760783 20.4061 0.0760823 20.0354 0.114126H19.9419H19.835C19.7883 0.211952 19.9719 -0.14131 19.2773 0.538038C18.8699 1.19021 18.6094 2.16848 19.4075 3.38043C20.1356 3.86957 19.648 3.52716 19.8283 3.64129H19.8951H19.9619H20.0487H20.3159H20.8035L21.5249 3.66848C21.4529 3.88155 21.4 4.11033 21.3679 4.34783C21.3406 4.59037 21.3406 4.83898 21.3679 5.08152H18.4557C18.0717 5.08152 17.6943 5.08151 17.2835 5.11955L16.9495 5.15218L16.7258 5.20109C16.6568 5.22022 16.5887 5.24746 16.5221 5.28261C16.4753 5.15761 15.6037 6.71196 15.7673 7.05435C15.7673 7.10327 15.7673 7.14131 15.7673 7.19022H9.35516L6.65338 7.11413L5.13384 7.03803C4.29558 6.99455 3.46401 6.95108 2.58234 6.95651C2.35858 6.95651 2.14484 6.95652 1.91441 6.99456C1.79418 6.99456 1.68731 6.99455 1.55372 7.03803C1.42014 7.08151 1.38341 7.06521 1.28656 7.09238L1.13293 7.14129L1.00936 7.18478C0.956901 7.20288 0.905499 7.22832 0.855737 7.26086C0.701745 7.35369 0.556681 7.48179 0.424923 7.6413C0.25876 7.84258 0.132255 8.11832 0.0608968 8.43477C-0.249691 9.89673 0.728828 10.8424 0.728828 10.6413C0.815982 10.694 0.90687 10.7287 0.999345 10.7446L1.14295 10.7717C1.44018 10.7989 1.63388 10.7717 1.8543 10.7717C2.70257 10.7717 3.52412 10.7283 4.35236 10.7337H5.59471H5.84519C7.10424 10.8043 8.26978 10.8587 9.30507 10.8478H12.6781C12.8985 10.8478 13.1323 10.8478 13.3895 10.8478H14.8623L23.7257 10.9565L33.4475 11.0652H34.0352H34.3358H33.2872H31.5772H10.8547L9.83608 11.0924H9.70583H9.60898C8.81414 10.9783 9.13809 12.4946 10.16 12.4728H10.2535C10.5875 12.5054 10.8647 12.5109 11.1586 12.5163H12.8818L19.7716 12.6033L33.5476 12.6522L52.2698 12.5978C52.1429 15.1304 52.9978 14.3261 52.7941 14.5815C52.8419 14.6111 52.891 14.6348 52.941 14.6522L53.0512 14.6902C53.1581 14.7174 53.2182 14.7228 53.285 14.7337L53.6457 14.7717C54.1032 14.8152 54.5374 14.837 54.9816 14.8587C56.7249 14.9402 58.4081 14.9728 60.0445 15H64.8102C70.9652 15 76.322 14.9457 80.747 14.8315C84.9383 14.7283 88.2913 14.5706 90.6925 14.375H99.6662C106.649 14.3315 113.619 14.5217 120.609 14.6739L131.096 14.875C134.596 14.9185 138.086 14.9728 141.622 14.8152C142.066 14.8152 142.511 14.7609 142.958 14.7174C143.443 14.6813 143.925 14.6015 144.404 14.4782C144.488 14.4543 144.57 14.4234 144.651 14.3859C144.708 14.3643 144.764 14.337 144.818 14.3043C144.917 14.2463 145.012 14.1735 145.102 14.0869C145.176 13.9293 145.576 13.8696 145.71 12.413C145.623 11.0924 145.172 10.7446 145.122 10.7011C144.984 10.5564 144.831 10.4499 144.671 10.3859C144.524 10.3147 144.373 10.2603 144.221 10.2228C144.094 10.1902 143.97 10.1576 143.853 10.1359C143.376 10.038 142.931 9.98369 142.484 9.92934C140.704 9.73369 138.954 9.64674 137.197 9.55978H136.506C136.486 9.1576 136.463 8.81522 136.436 8.52717H139.752H143.499C144.742 8.52717 146.001 8.55434 147.283 8.48913C147.577 8.48913 147.871 8.45108 148.178 8.41847L148.662 8.34239C148.752 8.34239 148.846 8.2989 148.963 8.26086L149.07 8.21739C149.121 8.19981 149.172 8.17435 149.22 8.14131C149.34 8.07296 149.452 7.97585 149.554 7.85325C149.698 8.15216 150.355 6.43478 149.744 5.48369Z" fill="#8CFFEC"/>
</svg>
