<svg width="608" height="487" viewBox="0 0 608 487" fill="none" xmlns="http://www.w3.org/2000/svg">
<path opacity="0.5" d="M589.467 261.584L582.745 242.002C580.325 235.553 577.435 229.272 574.78 222.89C573.402 219.733 572.125 216.508 570.646 213.385L565.873 204.148L561.101 194.945C559.487 191.855 557.975 188.765 556.059 185.842L545.102 168.141C543.27 165.185 541.284 162.326 539.153 159.576L532.969 151.146L526.752 142.749C524.601 140.029 522.248 137.442 520.03 134.822C515.425 129.583 510.988 124.209 506.182 119.171C486.847 99.2691 465.516 81.4067 442.526 65.8658C419.329 50.8589 394.749 38.1042 369.122 27.7766C362.702 25.2911 356.149 23.142 349.662 20.8245C346.301 19.7496 343.175 18.4733 339.848 17.4657L329.765 14.7448L319.682 12.024C316.367 11.0351 313.001 10.2278 309.599 9.60574L289.265 5.57533C285.904 4.8028 282.543 4.53423 279.182 4.03041L268.898 2.75363L258.613 1.47768L248.228 0.906124C241.304 0.603831 234.381 0 227.423 0L206.586 0.436252C204.838 0.436252 203.224 0.436416 201.376 0.604356L196.166 1.10785L185.748 2.11566L175.328 3.12346C171.967 3.45935 168.438 4.26546 165.01 4.80287C158.288 6.04563 151.197 7.15361 144.34 8.56431L123.973 13.8379C96.5694 21.3462 70.2986 32.4966 45.8637 46.9897C20.3218 61.9131 -2.36874 81.2458 -21.1539 104.09C-24.5148 108.322 -27.8755 112.721 -30.9676 117.222C-56.0747 137.339 -78.0101 161.117 -96.0364 187.757C-119.276 222.583 -135.74 261.474 -144.569 302.393C-153.383 342.757 -155.304 384.321 -150.248 425.326L-148.03 440.575C-147.19 445.68 -146.114 450.651 -145.173 455.757C-142.888 465.833 -140.099 475.91 -137.511 485.818C-134.15 495.592 -130.789 505.333 -127.428 515.006L-121.244 529.113L-118.152 536.167C-117.154 538.542 -116.033 540.862 -114.791 543.12C-77.8291 616.571 -19.1622 676.888 53.2577 715.897C89.5346 735.463 128.809 748.879 169.48 755.598C210.194 761.976 251.695 761.42 292.223 753.952C372.876 739.331 447.053 700.201 504.636 641.902C533.473 612.693 557.013 578.701 574.208 541.44C591.017 504.391 601.688 464.857 605.802 424.385C611.552 369.573 605.992 314.164 589.467 261.584ZM-26.9346 460.963C-32.3993 451.38 -37.1075 441.384 -41.0169 431.069C-44.8338 420.842 -47.7469 410.3 -49.7221 399.564L-51.0998 391.401C-51.5704 388.815 -51.7049 386.162 -52.0073 383.542C-46.4002 399.959 -39.8816 416.05 -32.4807 431.741C-20.767 456.93 -6.65282 480.933 9.66597 503.418C13.6095 508.725 17.6655 513.876 21.8331 518.869C2.44034 502.465 -14.0466 482.911 -26.9346 461.03V460.963ZM346.94 234.848C353.75 244.153 359.797 253.993 365.021 264.271C367.139 268.503 369.054 272.769 370.869 277.102C359.536 268.882 347.218 262.112 334.201 256.949C301.157 244.366 265.154 241.704 230.616 249.291L224.13 250.802C221.956 251.266 219.813 251.86 217.711 252.582L205.006 256.848C196.567 260.242 188.398 264.272 180.572 268.906L174.656 272.265L169.044 276.329L163.43 280.461L160.675 282.543L158.121 284.826C154.76 287.849 151.399 290.973 148.038 294.097C144.677 297.221 141.987 300.814 138.996 304.173C127.665 317.872 118.372 333.132 111.403 349.484C113.069 341.801 115.316 334.256 118.125 326.912C125.296 308.483 135.967 291.614 149.55 277.236C178.192 247.452 215.934 228.038 256.832 222.051C287.478 217.146 318.893 221.631 346.94 234.915V234.848ZM291.719 427.71C291.635 427.019 291.635 426.32 291.719 425.628C291.705 424.939 291.83 424.253 292.088 423.613C292.493 422.297 293.156 421.076 294.038 420.019C295.737 417.912 297.98 416.309 300.525 415.384C303.02 414.379 305.76 414.145 308.389 414.712C309.734 415.035 310.985 415.664 312.046 416.549C313.107 417.435 313.949 418.553 314.506 419.818C315.477 422.584 315.332 425.619 314.103 428.281C312.726 431.646 310.388 434.533 307.381 436.578C304.909 438.33 301.974 439.311 298.945 439.399C296.911 438.166 295.196 436.472 293.94 434.453C292.685 432.433 291.924 430.146 291.719 427.778V427.71ZM10.5735 238.072C11.2649 232.078 12.2751 226.124 13.5989 220.237C32.5427 206.621 53.6562 196.31 76.0452 189.739C92.0576 184.927 108.469 181.555 125.082 179.663L123.2 180.939C91.5456 203.163 65.4302 232.364 46.8721 266.286C34.0747 289.992 25.382 315.692 21.1611 342.296C15.9299 324.009 12.3301 305.294 10.4053 286.371C8.92183 270.303 8.97827 254.13 10.5735 238.072ZM356.753 112.218C366.682 116.8 376.333 121.958 385.658 127.668C382.297 126.19 378.6 124.913 375.104 123.503C369.861 121.487 364.585 119.607 359.341 117.793C355.544 114.837 351.746 111.916 347.847 109.128C346.772 108.355 345.629 107.649 344.486 106.877C348.609 108.534 352.687 110.303 356.72 112.184L356.753 112.218ZM236.263 670.586C220.246 671.124 204.211 670.292 188.336 668.101C208.589 667.076 228.67 663.855 248.228 658.494C250.614 657.856 252.967 657.084 255.353 656.345C271.159 658.027 287.078 658.387 302.944 657.42C308.12 657.118 313.263 656.647 318.405 656.042C291.817 664.655 264.161 669.538 236.23 670.553L236.263 670.586Z" fill="white"/>
</svg>
