<svg width="18" height="18" viewBox="0 0 18 18" fill="none" xmlns="http://www.w3.org/2000/svg">
<path d="M1.99997 15.0423C2.89998 14.159 3.94581 13.4631 5.13748 12.9548C6.32914 12.4465 7.61664 12.1923 8.99998 12.1923C10.3833 12.1923 11.6708 12.4465 12.8625 12.9548C14.0541 13.4631 15.1 14.159 16 15.0423V2.3077C16 2.23077 15.9679 2.16024 15.9038 2.09613C15.8397 2.03203 15.7692 1.99998 15.6923 1.99998H2.3077C2.23077 1.99998 2.16024 2.03203 2.09612 2.09613C2.03202 2.16024 1.99997 2.23077 1.99997 2.3077V15.0423ZM8.99998 10.0385C9.90254 10.0385 10.6698 9.72243 11.3019 9.09038C11.9339 8.45833 12.25 7.69102 12.25 6.78845C12.25 5.8859 11.9339 5.1186 11.3019 4.48655C10.6698 3.8545 9.90254 3.53848 8.99998 3.53848C8.09741 3.53848 7.33011 3.8545 6.69808 4.48655C6.06603 5.1186 5.75 5.8859 5.75 6.78845C5.75 7.69102 6.06603 8.45833 6.69808 9.09038C7.33011 9.72243 8.09741 10.0385 8.99998 10.0385ZM2.3077 17.5C1.80257 17.5 1.375 17.325 1.025 16.975C0.675 16.625 0.5 16.1974 0.5 15.6923V2.3077C0.5 1.80257 0.675 1.375 1.025 1.025C1.375 0.675 1.80257 0.5 2.3077 0.5H15.6923C16.1974 0.5 16.625 0.675 16.975 1.025C17.325 1.375 17.5 1.80257 17.5 2.3077V15.6923C17.5 16.1974 17.325 16.625 16.975 16.975C16.625 17.325 16.1974 17.5 15.6923 17.5H2.3077ZM3.44225 16H14.5577V15.7885C13.768 15.0833 12.9016 14.5577 11.9587 14.2115C11.0157 13.8653 10.0295 13.6923 8.99998 13.6923C7.98331 13.6923 7.00189 13.8637 6.05573 14.2067C5.10956 14.5497 4.2384 15.0705 3.44225 15.7692V16ZM8.99998 8.53848C8.51921 8.53848 8.10734 8.367 7.76438 8.02405C7.42143 7.6811 7.24995 7.26923 7.24995 6.78845C7.24995 6.30768 7.42143 5.89583 7.76438 5.55288C8.10734 5.20993 8.51921 5.03845 8.99998 5.03845C9.48074 5.03845 9.89261 5.20993 10.2356 5.55288C10.5785 5.89583 10.75 6.30768 10.75 6.78845C10.75 7.26923 10.5785 7.6811 10.2356 8.02405C9.89261 8.367 9.48074 8.53848 8.99998 8.53848Z" fill="white"/>
</svg>
