<svg width="47" height="42" viewBox="0 0 47 42" fill="none" xmlns="http://www.w3.org/2000/svg">
<path d="M21.0062 29.662L32.7808 17.8875L31.0863 16.193L21.0062 26.2731L15.9137 21.1805L14.2192 22.875L21.0062 29.662ZM23.5 41.875C20.8661 41.875 18.3975 41.3794 16.0941 40.3883C13.7906 39.3972 11.778 38.0407 10.0561 36.3188C8.33423 34.597 6.97773 32.5843 5.9866 30.2809C4.99551 27.9774 4.49997 25.5088 4.49997 22.875C4.49997 20.2411 4.99551 17.7725 5.9866 15.4691C6.97773 13.1656 8.33423 11.153 10.0561 9.4311C11.778 7.70923 13.7906 6.35273 16.0941 5.3616C18.3975 4.37051 20.8661 3.87497 23.5 3.87497C26.1338 3.87497 28.6024 4.37051 30.9059 5.3616C33.2093 6.35273 35.222 7.70923 36.9438 9.4311C38.6657 11.153 40.0222 13.1656 41.0133 15.4691C42.0044 17.7725 42.5 20.2411 42.5 22.875C42.5 25.5088 42.0044 27.9774 41.0133 30.2809C40.0222 32.5843 38.6657 34.597 36.9438 36.3188C35.222 38.0407 33.2093 39.3972 30.9059 40.3883C28.6024 41.3794 26.1338 41.875 23.5 41.875ZM9.03076 0.138916L10.7115 1.8197L2.4447 10.0865L0.763916 8.40575L9.03076 0.138916ZM37.9692 0.138916L46.236 8.40575L44.5552 10.0865L36.2885 1.8197L37.9692 0.138916ZM23.5 39.5C28.1008 39.5 32.0218 37.8793 35.263 34.638C38.5043 31.3968 40.125 27.4758 40.125 22.875C40.125 18.2742 38.5043 14.3531 35.263 11.1119C32.0218 7.87061 28.1008 6.24997 23.5 6.24997C18.8992 6.24997 14.9781 7.87061 11.7369 11.1119C8.49561 14.3531 6.87497 18.2742 6.87497 22.875C6.87497 27.4758 8.49561 31.3968 11.7369 34.638C14.9781 37.8793 18.8992 39.5 23.5 39.5Z" fill="#F94C56"/>
</svg>
