<svg width="18" height="18" viewBox="0 0 18 18" fill="none" xmlns="http://www.w3.org/2000/svg">
<path fill-rule="evenodd" clip-rule="evenodd" d="M9.77851 13.6557C9.92467 13.0359 9.9057 12.4215 9.88398 11.8077C10.0135 11.9324 10.1473 12.052 10.2876 12.1639C10.6524 12.4562 11.0741 12.6735 11.4954 12.8906L11.4954 12.8906C11.7541 13.0239 12.0127 13.1571 12.2578 13.3075C12.3338 13.3542 12.3856 13.4452 12.4384 13.5379C12.4915 13.6311 12.5456 13.7262 12.6264 13.7795C12.6431 13.7905 12.6611 13.8026 12.6801 13.8153L12.6801 13.8153C12.8148 13.9057 12.9995 14.0297 13.1518 14.0558L13.1692 14.0587C13.2406 14.0702 13.315 14.0822 13.3424 14.1451C13.4822 14.4724 15.6262 15.7776 16.2998 14.8211C16.8841 14.0055 15.5515 12.891 14.7251 12.2L14.7251 12.1999C14.6166 12.1092 14.5169 12.0258 14.4313 11.9513C13.7314 11.3533 13.0314 10.7552 12.3361 10.1525C12.5143 10.1029 12.6915 10.0454 12.8684 9.98808L12.8685 9.98806C13.1157 9.90793 13.3621 9.82804 13.6092 9.77009C13.6842 9.75336 13.7726 9.78293 13.8632 9.81324C13.9567 9.84455 14.0527 9.87665 14.1388 9.85937L14.1784 9.85229L14.1784 9.85229C14.3194 9.82727 14.5234 9.79111 14.643 9.70207L14.6527 9.69456C14.705 9.65388 14.7611 9.61028 14.8209 9.6383C15.1091 9.77435 17.2699 9.28968 17.1216 8.12903C16.9913 7.10232 15.3706 7.20597 14.4226 7.2666L14.4225 7.2666C14.3224 7.273 14.2298 7.27893 14.1473 7.28299C13.5388 7.31662 12.9334 7.34868 12.3302 7.37725C12.3907 7.26599 12.4488 7.15288 12.5069 7.03985C12.6399 6.78122 12.7726 6.52302 12.9322 6.28846C12.9755 6.22334 13.0618 6.18593 13.1495 6.14794C13.2335 6.11151 13.3188 6.07455 13.3686 6.01212C13.379 5.99905 13.3904 5.98509 13.4024 5.97035C13.4881 5.86519 13.6058 5.72069 13.6355 5.58272C13.6365 5.57759 13.6374 5.57242 13.6384 5.56723C13.6499 5.50352 13.6618 5.43721 13.7245 5.42541C13.8686 5.37865 14.2753 4.96626 14.5507 4.44758C14.8431 3.95441 15.0253 3.33794 14.6651 2.87879C14.3092 2.43238 13.7288 2.55142 13.1398 2.87453C12.8602 3.04459 12.5763 3.26142 12.3221 3.47399C12.1658 3.6122 12.0244 3.75041 11.899 3.87304C11.8238 3.94656 11.7543 4.01448 11.6908 4.07345C11.1387 4.60599 10.6195 5.16056 10.1191 5.72131C10.0959 5.36995 10.019 5.01765 9.94218 4.66557C9.88168 4.38834 9.8212 4.11125 9.78699 3.83485C9.77637 3.75387 9.81578 3.66543 9.85613 3.57485C9.89629 3.48472 9.93738 3.39248 9.93104 3.30341C9.92903 3.28054 9.92723 3.25511 9.92531 3.22794V3.22793C9.91508 3.08338 9.90136 2.8894 9.83359 2.76773C9.82917 2.75941 9.82453 2.75109 9.8199 2.74277C9.78898 2.68732 9.75806 2.63187 9.79122 2.57641C9.95223 2.29582 9.75309 0.0127803 8.59216 2.58983e-05C7.52463 -0.00793824 7.44212 1.82286 7.39765 2.80949C7.39464 2.87624 7.39181 2.93912 7.38885 2.99731C7.34435 3.79162 7.30938 4.58594 7.28216 5.38025C7.11183 5.23682 6.93579 5.08313 6.80052 4.94916C6.0421 4.21791 5.27521 3.49516 4.30494 2.98498C4.28328 2.97441 4.22944 2.93812 4.15093 2.8852C3.66123 2.55509 2.21201 1.5782 1.6314 2.16445C0.923828 2.8787 2.32627 4.68982 2.56778 4.86413C2.71855 4.97537 2.87599 5.07963 3.03335 5.18383C3.4774 5.47787 3.92079 5.77147 4.21173 6.22035C4.44383 6.57307 4.718 6.87957 5.01037 7.16617C4.14095 7.08445 3.26976 7.0062 2.35573 7.19371C2.33411 7.19929 2.27195 7.20387 2.18109 7.21057L2.18106 7.21057L2.18104 7.21058C1.64871 7.24983 0.131491 7.36173 0.00844193 8.17154C-0.144091 9.16638 1.81763 9.75309 2.0888 9.74033C2.26343 9.73572 2.43869 9.72079 2.61364 9.70589L2.61367 9.70589C3.0839 9.66584 3.55192 9.62597 3.99968 9.7871C4.6444 10.027 5.30858 10.05 5.97369 10.073H5.97371C6.00332 10.074 6.03294 10.075 6.06256 10.0761C6.03214 10.1119 5.99456 10.1575 5.95187 10.2092C5.78501 10.4115 5.54007 10.7083 5.33953 10.8885C5.23072 10.9927 5.12203 11.0948 5.01408 11.1962C4.48307 11.695 3.96982 12.1771 3.54728 12.806C3.53441 12.8289 3.4834 12.8814 3.40924 12.9578C3.2637 13.1076 3.02903 13.3492 2.81852 13.6392C2.4838 14.0346 2.17874 14.5448 2.37787 14.9827C2.58549 15.4376 3.19138 15.4929 3.80574 15.3909C4.39044 15.2548 4.96243 14.9742 5.05565 14.8679C5.19028 14.7352 5.31729 14.5947 5.44363 14.455C5.5479 14.3398 5.65171 14.225 5.75899 14.1154C5.97931 13.8603 6.22082 13.6307 6.53012 13.4777C6.72298 13.3735 6.90122 13.254 7.06886 13.1238C7.07976 14.0001 7.14309 14.8723 7.44817 15.7347C7.45388 15.7519 7.46371 15.7945 7.47801 15.8565L7.47803 15.8566L7.47804 15.8566C7.5911 16.347 7.98372 18.0498 8.83366 18.0007C9.82936 17.9455 10.0412 15.858 9.9946 15.5944C9.96529 15.4288 9.92679 15.2635 9.88832 15.0983C9.77663 14.6186 9.66506 14.1395 9.77851 13.6557Z" fill="#520CEB"/>
</svg>
