<svg width="23" height="23" viewBox="0 0 23 23" fill="none" xmlns="http://www.w3.org/2000/svg">
<path d="M19.0669 17.3598C18.9945 17.2714 18.8275 17.0835 18.4879 16.7686C18.1483 16.4426 17.7419 16.0558 17.3077 15.6469C16.4393 14.8235 15.4651 13.9008 14.6913 13.1935C11.1119 9.91675 7.5547 6.60688 4.28142 3.02072C3.76927 2.46263 2.83405 1.57853 3.7136 0.683368C4.63212 -0.250469 5.78445 -0.217315 6.71411 0.722048C8.97423 2.98204 11.1175 5.39123 13.6002 7.39152C15.415 8.85582 17.1463 10.4085 18.8497 11.9833L21.4216 14.387C21.6721 14.6412 21.8892 14.8401 22.2399 15.3098C22.5461 15.7298 22.7855 16.1939 22.9024 16.6912C23.1529 17.6748 22.9135 18.7523 22.2733 19.5535C21.995 19.9182 21.6276 20.2221 21.2379 20.4818C20.8037 20.7636 20.5421 20.8741 20.2136 21.0123C19.9019 21.1449 19.5901 21.2444 19.284 21.3272C19.1337 21.3715 18.9778 21.4101 18.8275 21.4433L18.4322 21.5317C17.3801 21.7693 16.3169 21.9682 15.2536 22.1395C13.1215 22.4821 10.9727 22.7087 8.81836 22.8468C7.79964 22.9131 6.79761 22.9628 5.76775 22.996C5.22777 23.007 4.62656 23.0015 3.95854 22.8965C3.29609 22.7915 2.51674 22.5595 1.78192 22.0345C1.41451 21.7804 1.0972 21.4378 0.82443 21.0786C0.56279 20.7028 0.345685 20.2829 0.217648 19.8629C-0.0495585 19.012 -0.0328583 18.1997 0.0673442 17.509C0.290016 16.1276 0.818864 15.0556 1.39224 14.0831C3.20702 11.0882 5.51725 8.4414 7.86087 5.88302C8.41755 5.28624 8.89073 4.39109 9.52535 3.75011C10.0375 3.21412 10.917 2.34107 11.5238 1.89901C11.7799 1.71114 12.0638 1.52879 12.2586 1.28014C13.1549 0.147378 13.745 0.235789 14.3629 1.60615C14.5021 1.90454 14.8695 2.13109 14.7693 2.51236C14.7637 2.52894 14.7581 2.56209 14.7581 2.57867C14.619 3.88273 13.617 4.29715 12.91 5.04864C11.1787 6.87764 9.56431 8.80609 8.06684 10.823C7.31532 11.8286 6.60277 12.8619 5.91806 13.9118C5.57848 14.4367 5.23891 14.9672 4.9216 15.5087C4.57646 16.0668 4.31482 16.5199 4.10885 17.0117C3.85277 17.5974 3.70247 18.1887 3.7303 18.5699C3.74144 18.7578 3.77484 18.8794 3.82494 18.9623C3.87504 19.0562 3.94741 19.128 4.05318 19.1943C4.27585 19.338 4.8381 19.454 5.51168 19.4485C5.84569 19.4485 6.2465 19.4319 6.63061 19.4154C7.01472 19.3933 7.39883 19.3712 7.78294 19.338C8.62353 19.2662 9.44741 19.0341 10.3047 19.0783H10.288C11.1731 18.9623 12.0415 18.791 12.9211 18.6805C14.5856 18.476 16.2668 18.15 17.9201 17.7632C18.2764 17.6803 18.5658 17.5864 18.8219 17.4814C18.9277 17.4372 19.1003 17.3432 19.0669 17.3598C19.0724 17.3653 19.1003 17.3653 19.117 17.3377C19.117 17.3322 19.0669 17.3598 19.0669 17.3598Z" fill="#520CEB"/>
</svg>
