<svg width="41" height="41" viewBox="0 0 41 41" fill="none" xmlns="http://www.w3.org/2000/svg">
<path d="M11.274 31H36.851C37.2164 31 37.5513 30.8478 37.8558 30.5433C38.1603 30.2388 38.3125 29.9038 38.3125 29.5385V3.96152C38.3125 3.59616 38.1603 3.26123 37.8558 2.95671C37.5513 2.65224 37.2164 2.5 36.851 2.5H33.5625V17.0241L28.8125 14.1923L24.0625 17.0241V2.5H11.274C10.9087 2.5 10.5737 2.65224 10.2692 2.95671C9.96474 3.26123 9.8125 3.59616 9.8125 3.96152V29.5385C9.8125 29.9038 9.96474 30.2388 10.2692 30.5433C10.5737 30.8478 10.9087 31 11.274 31ZM11.274 33.375C10.1809 33.375 9.26823 33.0089 8.53594 32.2766C7.80365 31.5443 7.4375 30.6316 7.4375 29.5385V3.96152C7.4375 2.86842 7.80365 1.95573 8.53594 1.22344C9.26823 0.491146 10.1809 0.125 11.274 0.125H36.851C37.9441 0.125 38.8568 0.491146 39.5891 1.22344C40.3214 1.95573 40.6875 2.86842 40.6875 3.96152V29.5385C40.6875 30.6316 40.3214 31.5443 39.5891 32.2766C38.8568 33.0089 37.9441 33.375 36.851 33.375H11.274ZM4.14902 40.5C3.05592 40.5 2.14323 40.1339 1.41094 39.4016C0.678646 38.6693 0.3125 37.7566 0.3125 36.6635V8.71152H2.6875V36.6635C2.6875 37.0289 2.83974 37.3638 3.14421 37.6683C3.44869 37.9728 3.78362 38.125 4.14902 38.125H32.101V40.5H4.14902ZM11.274 2.5H9.8125H38.3125H11.274Z" fill="#F94C56"/>
</svg>
