<svg width="18" height="18" viewBox="0 0 18 18" fill="none" xmlns="http://www.w3.org/2000/svg">
<path d="M8.99984 17.5833C7.36095 17.5833 5.8759 17.1706 4.54469 16.3453C3.2135 15.52 2.18519 14.4107 1.45978 13.0176V15.7948H0.376465V11.2115H4.95978V12.2948H2.30109C2.90366 13.5641 3.80457 14.5822 5.00382 15.3494C6.20308 16.1165 7.53509 16.5 8.99984 16.5C10.0201 16.5 10.9771 16.3114 11.8708 15.9343C12.7645 15.5572 13.5468 15.0425 14.2178 14.3902C14.8887 13.738 15.4275 12.9677 15.834 12.0793C16.2405 11.191 16.4598 10.234 16.4918 9.20835H17.5751C17.5484 10.3782 17.3043 11.4709 16.8428 12.4864C16.3812 13.5019 15.7669 14.3865 14.9998 15.1402C14.2327 15.8939 13.3348 16.4896 12.3059 16.9271C11.2771 17.3646 10.175 17.5833 8.99984 17.5833ZM8.47261 14.3397V13.3718C8.22368 13.313 7.84147 13.1536 7.32599 12.8934C6.81049 12.6333 6.41706 12.0897 6.14569 11.2628L7.13765 10.8334C7.19749 10.89 7.36042 11.1704 7.62644 11.6747C7.89247 12.179 8.39194 12.4311 9.12484 12.4311C9.50198 12.4311 9.88606 12.3197 10.2771 12.097C10.6681 11.8742 10.8636 11.5086 10.8636 11C10.8636 10.5929 10.7293 10.2708 10.4606 10.0336C10.1919 9.79646 9.73971 9.5641 9.10403 9.33654C8.63607 9.16774 8.07357 8.92387 7.41653 8.60496C6.75947 8.28606 6.43094 7.68857 6.43094 6.8125C6.43094 6.80289 6.51721 6.48799 6.68976 5.86779C6.8623 5.2476 7.46353 4.8344 8.49344 4.62821V3.66027H9.5479V4.60738C10.252 4.72704 10.7453 4.97944 11.0279 5.36458C11.3104 5.74974 11.4902 6.01122 11.5671 6.14904L10.6425 6.54165C10.5688 6.41345 10.4128 6.21581 10.1745 5.94871C9.93628 5.68161 9.56555 5.54806 9.06234 5.54806C8.75251 5.54806 8.41223 5.64663 8.04151 5.84375C7.67077 6.04086 7.4854 6.35683 7.4854 6.79167C7.4854 7.19872 7.63951 7.50481 7.94774 7.70994C8.25596 7.91506 8.78561 8.14637 9.53669 8.40385C10.4672 8.7233 11.0941 9.09697 11.4173 9.52485C11.7405 9.95273 11.9021 10.4444 11.9021 11C11.9021 11.5085 11.7939 11.9199 11.5775 12.234C11.3612 12.5481 11.1136 12.7935 10.8348 12.9704C10.5559 13.1472 10.2894 13.2636 10.0351 13.3197C9.78081 13.3758 9.61147 13.4001 9.52707 13.3926V14.3397H8.47261ZM0.424548 8.79165C0.461951 7.59508 0.71409 6.48771 1.18096 5.46954C1.64784 4.45139 2.26749 3.56812 3.03992 2.81973C3.81237 2.07134 4.709 1.48374 5.72982 1.05692C6.75065 0.630097 7.84066 0.416687 8.99984 0.416687C10.6227 0.416687 12.1077 0.830688 13.455 1.65869C14.8022 2.48669 15.8305 3.60529 16.5399 5.0145V2.20519H17.6232V6.78848H13.0399V5.70519H15.6986C15.112 4.4573 14.2178 3.44446 13.0159 2.66669C11.814 1.8889 10.4753 1.5 8.99984 1.5C8.00091 1.5 7.05593 1.6859 6.1649 2.05769C5.27389 2.42948 4.49024 2.93883 3.81394 3.58573C3.13767 4.23263 2.59226 5.00026 2.17774 5.8886C1.76321 6.77697 1.53992 7.74465 1.50786 8.79165H0.424548Z" fill="#030304"/>
</svg>
