<svg width="27" height="28" viewBox="0 0 27 28" fill="none" xmlns="http://www.w3.org/2000/svg">
<path fill-rule="evenodd" clip-rule="evenodd" d="M18.4504 21.7101L17.2586 20.2913C19.5855 19.667 20.4936 18.0779 20.4936 18.0779C17.5423 20.8588 9.48324 20.9723 6.36176 18.0779C6.36176 18.0779 7.15632 19.5535 9.53999 20.2913L8.23465 21.7101C4.26186 21.6534 2.72949 18.9859 2.72949 18.9859C2.72949 13.0835 5.34018 8.37289 5.34018 8.37289C8.00763 6.5 10.4481 6.5 10.4481 6.5L10.6183 6.72702C7.32658 7.63508 5.90773 9.11069 5.90773 9.11069C9.76701 6.5 17.7126 6.72702 20.8341 9.11069C20.8908 9.05394 18.9612 7.52158 15.9532 6.72702L16.237 6.5C16.237 6.5 18.6774 6.5 21.3449 8.37289C21.3449 8.37289 23.9556 13.0835 23.9556 18.9859C23.9556 18.9859 22.4232 21.6534 18.4504 21.7101ZM9.93761 17.2831C10.972 17.2831 11.8105 16.3938 11.8105 15.2967C11.8105 14.1997 10.972 13.3103 9.93761 13.3103C8.90324 13.3103 8.06472 14.1997 8.06472 15.2967C8.06472 16.3938 8.90324 17.2831 9.93761 17.2831ZM18.3941 15.2967C18.3941 16.3938 17.5556 17.2831 16.5212 17.2831C15.4869 17.2831 14.6483 16.3938 14.6483 15.2967C14.6483 14.1997 15.4869 13.3103 16.5212 13.3103C17.5556 13.3103 18.3941 14.1997 18.3941 15.2967Z" fill="white"/>
</svg>
