<svg width="21" height="41" viewBox="0 0 21 41" fill="none" xmlns="http://www.w3.org/2000/svg">
<path d="M18.2054 23.1302C17.9612 24.0219 17.171 27.1997 16.8159 29.2684C16.6028 30.4635 16.4075 31.6631 16.23 32.8627L15.9725 34.6643C15.8837 35.289 15.8171 35.8141 15.7994 36.3121C15.786 36.7964 15.8304 37.2219 15.9281 37.4935C15.9769 37.6293 16.0302 37.729 16.0968 37.8195C16.1678 37.9145 16.261 37.987 16.3409 38.0549C16.5185 38.168 16.8159 38.245 17.2288 38.2223C17.6372 38.1997 18.121 38.073 18.6049 37.8964C19.2219 37.6927 20.2074 37.0499 20.7534 37.901C21.0331 38.3491 21.0775 38.8335 20.8733 39.2907C20.6691 39.7479 20.2118 40.187 19.5016 40.4722C18.6493 40.8071 17.686 41.0787 16.5718 40.9791C16.0213 40.9339 15.4265 40.7392 14.9204 40.4178C14.4144 40.0964 13.9926 39.6618 13.6952 39.1503C13.4022 38.6433 13.238 38.1046 13.1537 37.5977C13.0693 37.0907 13.056 36.6063 13.0693 36.1491C13.0826 35.6874 13.1181 35.2483 13.1581 34.8228L13.2691 33.596C13.46 31.2014 13.8373 28.8293 14.3256 26.48C14.5697 25.3075 14.8405 24.1396 15.1291 22.9763L15.5774 21.2335L15.8082 20.3643C15.8837 20.0746 15.9725 19.7713 16.0213 19.5495C16.0701 19.3367 16.1101 19.124 16.1278 18.9293C16.1412 18.8298 16.1456 18.7347 16.1501 18.6487C16.1545 18.5717 16.15 18.454 16.1456 18.4314C16.1367 18.3363 16.1012 18.2322 16.0124 18.1869C15.9325 18.1281 15.8393 18.1372 15.7328 18.1689C15.4265 18.2639 15.027 18.4857 14.5475 18.7438C12.7053 19.7351 10.8586 20.7265 9.02972 21.7405L7.74238 22.4647C7.32954 22.7001 6.859 22.9763 6.33075 23.2207C5.79805 23.4606 5.1899 23.6915 4.44413 23.7594C3.7028 23.8409 2.82385 23.6643 2.11359 23.2162C1.38114 22.768 0.848444 22.0619 0.555463 21.3964C0.253604 20.7219 0.120424 20.0656 0.049398 19.4409C-0.0171886 18.8162 -0.0127446 18.2141 0.0405247 17.6211C0.093794 17.0055 0.204775 16.5121 0.293557 15.987C0.990497 12.3882 2.58413 9.0565 4.51958 6.05527C4.74598 5.69765 4.95906 5.28119 5.19434 4.86473C5.41629 4.43921 5.67376 4.02276 5.95342 3.65156C6.41065 3.03592 7.23632 2.05361 7.80452 1.55114C8.05311 1.33386 8.31946 1.12565 8.51478 0.867628C9.43368 -0.309326 9.96194 -0.282181 10.3925 0.908354C10.4902 1.16638 10.8009 1.33386 10.6811 1.69147C10.6766 1.70505 10.6677 1.73674 10.6633 1.75032C10.4325 2.94086 9.54466 3.44786 8.89655 4.2491C7.35174 6.20918 6.0422 8.36843 5.05228 10.668C4.5551 11.8178 4.13338 12.9993 3.78713 14.2034C3.62733 14.81 3.46752 15.4121 3.34322 16.0277C3.2722 16.331 3.22337 16.6433 3.1701 16.9512C3.11684 17.2635 3.05911 17.5713 3.03248 17.8384C2.96145 18.5174 2.97922 19.21 3.10795 19.7668C3.17454 20.0429 3.2722 20.2738 3.38317 20.4368C3.49415 20.5997 3.6007 20.6948 3.73831 20.7627C3.88036 20.8351 4.02241 20.8668 4.23104 20.8487C4.43524 20.8396 4.69715 20.7672 4.97681 20.654C5.26091 20.5409 5.56722 20.3824 5.88684 20.2014L6.90338 19.6084C7.65359 19.1647 8.3461 18.617 9.16733 18.2775L9.15401 18.282C9.94861 17.8158 10.7299 17.3178 11.5378 16.8878C12.3191 16.4668 13.1093 16.0413 13.9039 15.6158C14.1436 15.4981 14.401 15.3758 14.7029 15.2717C14.8316 15.2265 15.0758 15.1495 15.2844 15.1088C15.4975 15.0635 15.715 15.0363 15.9325 15.0318C16.7982 14.9956 17.646 15.3351 18.2453 15.9553C18.8446 16.5664 19.1509 17.4672 19.182 18.3273C19.2086 19.0063 19.1198 19.5631 19.0044 20.0927L18.9112 20.4775L18.8135 20.8261C18.7558 21.0298 18.6937 21.238 18.636 21.4417C18.5161 21.8491 18.4007 22.252 18.2853 22.6549C18.2542 22.759 18.2542 22.9446 18.2054 23.1302Z" fill="#520CEB"/>
</svg>
