<svg width="57" height="57" viewBox="0 0 57 57" fill="none" xmlns="http://www.w3.org/2000/svg">
<mask id="mask0_17_419" style="mask-type:alpha" maskUnits="userSpaceOnUse" x="0" y="0" width="57" height="57">
<rect width="57" height="57" fill="#D9D9D9"/>
</mask>
<g mask="url(#mask0_17_419)">
<path d="M13.3365 47.5C12.2434 47.5 11.3307 47.1339 10.5984 46.4016C9.86615 45.6693 9.5 44.7566 9.5 43.6635V13.3365C9.5 12.2434 9.86615 11.3307 10.5984 10.5984C11.3307 9.86615 12.2434 9.5 13.3365 9.5H36.9952L47.5 20.0048V43.6635C47.5 44.7566 47.1339 45.6693 46.4016 46.4016C45.6693 47.1339 44.7566 47.5 43.6635 47.5H13.3365ZM13.3365 45.125H43.6635C44.0898 45.125 44.4399 44.988 44.714 44.714C44.988 44.4399 45.125 44.0898 45.125 43.6635V21.375H35.625V11.875H13.3365C12.9102 11.875 12.5601 12.012 12.2861 12.2861C12.012 12.5601 11.875 12.9102 11.875 13.3365V43.6635C11.875 44.0898 12.012 44.4399 12.2861 44.714C12.5601 44.988 12.9102 45.125 13.3365 45.125ZM17.8125 38H39.1875V35.625H17.8125V38ZM17.8125 21.375H28.5V19H17.8125V21.375ZM17.8125 29.6875H39.1875V27.3125H17.8125V29.6875Z" fill="#F94C56"/>
</g>
</svg>
