<svg width="14" height="14" viewBox="0 0 14 14" fill="none" xmlns="http://www.w3.org/2000/svg">
<path d="M4.75 13.75H1.75C1.3375 13.75 0.984375 13.6031 0.690625 13.3094C0.396875 13.0156 0.25 12.6625 0.25 12.25V7C0.25 6.0625 0.428125 5.18438 0.784375 4.36563C1.14062 3.54688 1.62188 2.83438 2.22813 2.22813C2.83438 1.62188 3.54688 1.14062 4.36563 0.784375C5.18438 0.428125 6.0625 0.25 7 0.25C7.9375 0.25 8.81563 0.428125 9.63437 0.784375C10.4531 1.14062 11.1656 1.62188 11.7719 2.22813C12.3781 2.83438 12.8594 3.54688 13.2156 4.36563C13.5719 5.18438 13.75 6.0625 13.75 7V12.25C13.75 12.6625 13.6031 13.0156 13.3094 13.3094C13.0156 13.6031 12.6625 13.75 12.25 13.75H9.25V7.75H12.25V7C12.25 5.5375 11.7406 4.29688 10.7219 3.27812C9.70312 2.25937 8.4625 1.75 7 1.75C5.5375 1.75 4.29688 2.25937 3.27812 3.27812C2.25937 4.29688 1.75 5.5375 1.75 7V7.75H4.75V13.75ZM3.25 9.25H1.75V12.25H3.25V9.25ZM10.75 9.25V12.25H12.25V9.25H10.75Z" fill="#030304"/>
</svg>
