<svg width="28" height="30" viewBox="0 0 28 30" fill="none" xmlns="http://www.w3.org/2000/svg">
<path fill-rule="evenodd" clip-rule="evenodd" d="M11.9851 7.08694C11.7469 8.09724 11.7777 9.09873 11.8131 10.0991C11.6023 9.89625 11.3846 9.70168 11.1565 9.51965C10.5615 9.04294 9.87381 8.68861 9.18691 8.33471C8.76496 8.11731 8.34332 7.90007 7.94369 7.65473C7.8197 7.5787 7.73519 7.43031 7.6491 7.27913C7.56248 7.12703 7.47426 6.97211 7.34258 6.88518C7.31524 6.86717 7.28588 6.84747 7.2549 6.82667C7.03538 6.67932 6.73408 6.47707 6.48584 6.43455L6.45732 6.42988C6.34101 6.41108 6.21962 6.39146 6.17493 6.28896C5.94692 5.75513 2.45086 3.62675 1.3523 5.18664C0.399529 6.5165 2.57269 8.33391 3.92023 9.46087L3.92036 9.46098C4.09719 9.60886 4.2598 9.74486 4.39926 9.86629L4.39933 9.86635C5.5407 10.8415 6.68207 11.8167 7.81589 12.7995C7.52522 12.8805 7.23603 12.9742 6.94748 13.0678L6.94744 13.0678C6.54432 13.1985 6.14247 13.3287 5.73962 13.4232C5.61726 13.4505 5.47316 13.4023 5.32543 13.3529C5.17285 13.3018 5.01638 13.2494 4.87597 13.2776L4.81143 13.2892C4.58137 13.33 4.24882 13.3889 4.05377 13.5341L4.03798 13.5464C3.95264 13.6127 3.86117 13.6838 3.76358 13.6381C3.29376 13.4163 -0.229939 14.2066 0.0118836 16.0993C0.224357 17.7735 2.86732 17.6045 4.41322 17.5056C4.57649 17.4952 4.72751 17.4855 4.86215 17.4789C5.85473 17.4241 6.84218 17.3718 7.82608 17.3252C7.72749 17.5066 7.63265 17.6911 7.53788 17.8754C7.32105 18.2972 7.10459 18.7182 6.84441 19.1007C6.77386 19.2069 6.63308 19.2679 6.4901 19.3299C6.35302 19.3893 6.21392 19.4495 6.13276 19.5513C6.11577 19.5726 6.09722 19.5954 6.07764 19.6194C5.93794 19.7909 5.74596 20.0266 5.69748 20.2515C5.69592 20.2599 5.69439 20.2683 5.69287 20.2768C5.67412 20.3807 5.6546 20.4888 5.55239 20.5081C5.31747 20.5843 4.65419 21.2568 4.20509 22.1026C3.72835 22.9068 3.43126 23.9121 4.01854 24.6608C4.59891 25.3888 5.54548 25.1947 6.50586 24.6678C6.96186 24.3904 7.42478 24.0369 7.83933 23.6902C8.09418 23.4648 8.32473 23.2395 8.52928 23.0395C8.65192 22.9196 8.76522 22.8089 8.8688 22.7127C9.76841 21.8449 10.6144 20.9413 11.4299 20.0276C11.4679 20.5999 11.5931 21.1737 11.7183 21.7471C11.8169 22.1992 11.9155 22.651 11.9713 23.1018C11.9886 23.2338 11.9244 23.378 11.8586 23.5257C11.7931 23.6727 11.7261 23.8231 11.7364 23.9684C11.7397 24.0057 11.7426 24.0471 11.7458 24.0914C11.7624 24.3272 11.7848 24.6435 11.8953 24.8419C11.9025 24.8555 11.9101 24.869 11.9177 24.8826C11.9681 24.973 12.0185 25.0635 11.9644 25.1539C11.7019 25.6115 12.0266 29.3344 13.9197 29.3552C15.6605 29.3682 15.7951 26.3827 15.8676 24.7738L15.8676 24.7737L15.8676 24.7734C15.8725 24.6647 15.8771 24.5623 15.8819 24.4675C15.9545 23.1719 16.0116 21.8762 16.056 20.5805C16.3341 20.8148 16.6218 21.0658 16.8427 21.2847C18.0795 22.4771 19.3301 23.6557 20.9123 24.4876C20.9476 24.5049 21.0354 24.5641 21.1634 24.6504C21.962 25.1887 24.3252 26.7817 25.272 25.8257C26.4258 24.661 24.1389 21.7076 23.745 21.4233C23.4992 21.2419 23.2425 21.0719 22.9859 20.902L22.9858 20.902C22.2617 20.4225 21.5387 19.9437 21.0643 19.2117C20.6858 18.6366 20.2387 18.1368 19.762 17.6695C21.1796 17.8027 22.6001 17.9302 24.0905 17.6245C24.1257 17.6154 24.2271 17.6079 24.3753 17.597C25.2434 17.533 27.7175 17.3505 27.9182 16.03C28.1669 14.4077 24.9679 13.4509 24.5258 13.4717C24.241 13.4793 23.9552 13.5036 23.6699 13.5279C22.9031 13.5932 22.1399 13.6582 21.4097 13.3955C20.3584 13.0042 19.2753 12.9668 18.1907 12.9293H18.1907C18.1427 12.9276 18.0947 12.926 18.0467 12.9243C18.0963 12.8659 18.1575 12.7916 18.2272 12.7072C18.4993 12.3774 18.8987 11.8932 19.2257 11.5994C19.4031 11.4295 19.5804 11.2631 19.7564 11.0977C20.6223 10.2844 21.4593 9.49823 22.1483 8.47268C22.1693 8.43523 22.2525 8.3496 22.3734 8.2251C22.6107 7.9808 22.9934 7.58687 23.3367 7.11385C23.8825 6.46909 24.38 5.63715 24.0552 4.92307C23.7167 4.18126 22.7287 4.09113 21.7268 4.25752C20.7734 4.47937 19.8406 4.93694 19.6886 5.11026C19.4691 5.32676 19.262 5.55574 19.0559 5.78354C18.8859 5.97152 18.7166 6.1587 18.5417 6.33737C18.1824 6.75334 17.7886 7.12771 17.2842 7.37729C16.969 7.54761 16.6777 7.74295 16.4038 7.95585C16.386 6.52638 16.2829 5.10356 15.7852 3.69679C15.7759 3.66874 15.7599 3.59919 15.7365 3.49795C15.5521 2.69831 14.9119 -0.0784073 13.5259 0.00159264C11.9022 0.0917187 11.5568 3.49574 11.6328 3.92557C11.6806 4.19558 11.7433 4.46513 11.8061 4.73458L11.8061 4.7346C11.9882 5.51675 12.1701 6.29801 11.9851 7.08694Z" fill="#520CEB"/>
</svg>
