<svg width="32" height="59" viewBox="0 0 32 59" fill="none" xmlns="http://www.w3.org/2000/svg">
<path d="M13.7253 2.30353C15.0629 3.40616 16.3856 4.51604 17.7083 5.63317C18.5154 6.32231 19.2552 7.08399 20.1968 7.6353C20.4509 7.78764 20.8395 7.80215 20.9591 8.10682V8.09956C21.2281 8.26641 21.5345 8.38973 21.7587 8.6001C22.6106 9.3908 23.6045 10.1017 24.3294 10.9577C24.3593 10.994 24.4564 10.9794 24.5012 11.023C24.7254 11.2333 25.4802 12.024 26.0183 12.4811C27.2588 13.5329 28.4544 14.6283 29.2914 16.1009C29.4184 16.333 31.7276 19.0678 30.5618 20.2575C29.3512 21.4979 26.4517 19.5901 26.1677 19.2491C25.4877 18.4149 24.9646 17.4066 23.9707 16.9133C22.5134 16.1879 21.527 14.9692 20.3164 13.9972C19.2253 13.1194 18.2539 12.1183 17.1553 11.2478C16.1241 10.4354 14.891 9.82605 13.927 8.93379C13.0975 8.16486 12.5595 7.09849 11.8271 6.228C11.6552 6.02489 11.2069 6.03215 11.0051 5.81452C10.8407 5.63317 10.5493 5.35751 10.4745 5.08911C10.4446 4.97305 10.4147 4.84247 10.3026 4.82071C9.76459 4.7119 7.2761 1.88279 8.69596 0.446471C10.071 -0.968081 12.5669 1.34599 13.7253 2.30353Z" fill="#520CEB"/>
<path d="M12.6857 27.8807C13.9785 28.2144 15.2713 28.5626 16.5566 28.918C17.3488 29.1357 18.1035 29.4549 18.948 29.4984C19.1797 29.5129 19.4711 29.3461 19.643 29.5492C19.8896 29.5709 20.1511 29.5347 20.3753 29.6144C21.2198 29.9046 22.1614 30.0569 22.9311 30.4632C22.961 30.4777 23.0282 30.4197 23.0731 30.4414C23.2972 30.5212 24.0744 30.8549 24.5975 31C25.8082 31.3409 26.9964 31.7254 28.0127 32.6104C28.1696 32.7482 30.6282 34.0467 30.0902 35.5991C29.5297 37.2168 26.8469 36.9048 26.5405 36.7452C25.8082 36.3463 25.1431 35.7152 24.2687 35.7442C22.9834 35.7877 21.9222 35.1929 20.749 34.91C19.6953 34.6561 18.7014 34.2353 17.6477 33.9959C16.6538 33.7711 15.5777 33.8073 14.6212 33.4809C13.7991 33.198 13.1041 32.5306 12.327 32.1171C12.1401 32.0228 11.8113 32.2332 11.6021 32.1389C11.4302 32.0591 11.1388 31.9503 11.0117 31.7617C10.9594 31.6819 10.8996 31.5803 10.8099 31.6093C10.3765 31.7617 7.75351 30.4704 8.42608 28.5916C9.07622 26.7418 11.5647 27.5906 12.6857 27.8807Z" fill="#520CEB"/>
<path d="M5.00246 54.3677C6.85575 53.9687 8.70904 53.5915 10.5698 53.2143C11.7132 52.9822 12.8715 52.8588 13.9775 52.4454C14.2764 52.3293 14.5529 52.0391 14.8966 52.1262H14.8892C15.2105 52.0101 15.5244 51.8505 15.8532 51.7925C17.1086 51.5966 18.394 51.2267 19.627 51.1686C19.6719 51.1686 19.7242 51.0816 19.7989 51.0671C20.1352 51.0163 21.3309 50.893 22.0856 50.7406C23.8343 50.3924 25.5904 50.095 27.4363 50.3126C27.7277 50.3489 31.6585 50.1603 31.935 51.778C32.2264 53.4609 28.6319 54.6143 28.1387 54.6289C26.958 54.6724 25.725 54.4838 24.6264 54.9698C23.0197 55.6807 21.301 55.7387 19.6345 56.1087C18.1399 56.4424 16.6154 56.6165 15.1208 56.9647C13.7234 57.2911 12.3708 57.9004 10.9509 58.1253C9.72537 58.3212 8.42507 58.1108 7.17709 58.1688C6.88565 58.1834 6.58673 58.5388 6.27286 58.5678C6.01131 58.5896 5.5704 58.6549 5.28643 58.5533C5.16686 58.5098 5.03235 58.4518 4.9352 58.5315C4.47936 58.8943 0.346812 59.1699 0.0180026 57.2041C-0.288388 55.3035 3.39577 54.7159 5.00246 54.3677Z" fill="#520CEB"/>
</svg>
