<svg width="31" height="44" viewBox="0 0 31 44" fill="none" xmlns="http://www.w3.org/2000/svg">
<path d="M15.5 43.2404C14.4069 43.2404 13.4561 42.8742 12.6477 42.142C11.8393 41.4097 11.3589 40.497 11.2067 39.4039H19.7933C19.6411 40.497 19.1607 41.4097 18.3523 42.142C17.5439 42.8742 16.5931 43.2404 15.5 43.2404ZM7.1875 35.202V32.8269H23.8125V35.202H7.1875ZM7.32454 28.625C5.08044 27.1543 3.30907 25.2893 2.01042 23.03C0.711805 20.7707 0.0625 18.2816 0.0625 15.5625C0.0625 11.254 1.55829 7.60398 4.54988 4.61239C7.54147 1.6208 11.1915 0.125 15.5 0.125C19.8085 0.125 23.4585 1.6208 26.4501 4.61239C29.4417 7.60398 30.9375 11.254 30.9375 15.5625C30.9375 18.2816 30.2882 20.7707 28.9896 23.03C27.6909 25.2893 25.9196 27.1543 23.6755 28.625H7.32454ZM8.01875 26.25H22.9813C24.7625 24.9833 26.138 23.4198 27.1078 21.5594C28.0776 19.699 28.5625 17.7 28.5625 15.5625C28.5625 11.9208 27.2958 8.83333 24.7625 6.3C22.2292 3.76667 19.1417 2.5 15.5 2.5C11.8583 2.5 8.77083 3.76667 6.2375 6.3C3.70417 8.83333 2.4375 11.9208 2.4375 15.5625C2.4375 17.7 2.9224 19.699 3.89219 21.5594C4.86198 23.4198 6.2375 24.9833 8.01875 26.25Z" fill="#F94C56"/>
</svg>
