<svg width="65" height="67" viewBox="0 0 65 67" fill="none" xmlns="http://www.w3.org/2000/svg">
<path d="M58.7262 34.8565L58.7312 47.9064L47.4372 54.427L47.4322 41.3771L58.7262 34.8565Z" fill="#8CFFEC" stroke="#030304" stroke-width="1.03305" stroke-miterlimit="10" stroke-linejoin="round"/>
<path d="M47.4311 28.3339L58.7263 34.8567L47.4323 41.3773L36.1371 34.8545L47.4311 28.3339Z" fill="#030304" stroke="#030304" stroke-width="1.03305" stroke-miterlimit="10" stroke-linejoin="round"/>
<path d="M47.432 41.3772L47.437 54.4271L36.138 47.8978L36.1367 34.8544L47.432 41.3772Z" fill="#520CEB" stroke="#030304" stroke-width="1.03305" stroke-miterlimit="10" stroke-linejoin="round"/>
<path d="M28.2362 34.8568L28.2412 47.9066L16.9472 54.4272L16.9422 41.3773L28.2362 34.8568Z" fill="#8CFFEC" stroke="#030304" stroke-width="1.03305" stroke-miterlimit="10" stroke-linejoin="round"/>
<path d="M16.9409 28.3339L28.2362 34.8567L16.9422 41.3773L5.64696 34.8545L16.9409 28.3339Z" fill="#030304" stroke="#030304" stroke-width="1.03305" stroke-miterlimit="10" stroke-linejoin="round"/>
<path d="M16.9422 41.3773L16.9472 54.4272L5.64823 47.8979L5.64695 34.8545L16.9422 41.3773Z" fill="#520CEB" stroke="#030304" stroke-width="1.03305" stroke-miterlimit="10" stroke-linejoin="round"/>
<path d="M43.1449 43.7006L43.1499 56.7505L31.8559 63.271L31.8509 50.2212L43.1449 43.7006Z" fill="#8CFFEC" stroke="#030304" stroke-width="1.03305" stroke-miterlimit="10" stroke-linejoin="round"/>
<path d="M31.8497 37.1779L43.1449 43.7007L31.851 50.2213L20.5557 43.6985L31.8497 37.1779Z" fill="#030304" stroke="#030304" stroke-width="1.03305" stroke-miterlimit="10" stroke-linejoin="round"/>
<path d="M31.8509 50.2211L31.856 63.271L20.557 56.7417L20.5557 43.6984L31.8509 50.2211Z" fill="#520CEB" stroke="#030304" stroke-width="1.03305" stroke-miterlimit="10" stroke-linejoin="round"/>
<path d="M31.8502 3.26028L43.1455 9.78307L31.8515 16.3037L20.5562 9.78087L31.8502 3.26028Z" fill="#030304" stroke="#030304" stroke-width="1.03305" stroke-miterlimit="10" stroke-linejoin="round"/>
<path d="M31.8509 16.3032L31.856 29.3531L20.5569 22.8238L20.5557 9.78044L31.8509 16.3032Z" fill="#520CEB" stroke="#030304" stroke-width="1.03305" stroke-linejoin="round"/>
<path d="M43.1451 9.7825L43.1501 22.8324L31.8561 29.353L31.8511 16.3031L43.1451 9.7825Z" fill="#8CFFEC" stroke="#030304" stroke-width="1.03305" stroke-miterlimit="10" stroke-linejoin="round"/>
<path d="M28.2362 18.5928L28.2412 31.6426L16.9472 38.1632L16.9422 25.1133L28.2362 18.5928Z" fill="#8CFFEC" stroke="#030304" stroke-width="1.03305" stroke-miterlimit="10" stroke-linejoin="round"/>
<path d="M16.9409 12.0699L28.2362 18.5927L16.9422 25.1133L5.64696 18.5905L16.9409 12.0699Z" fill="#030304" stroke="#030304" stroke-width="1.03305" stroke-miterlimit="10" stroke-linejoin="round"/>
<path d="M16.9422 25.1133L16.9472 38.1632L5.64823 31.6339L5.64694 18.5905L16.9422 25.1133Z" fill="#520CEB" stroke="#030304" stroke-width="1.03305" stroke-miterlimit="10" stroke-linejoin="round"/>
<path d="M58.726 18.5921L58.731 31.642L47.437 38.1626L47.432 25.1127L58.726 18.5921Z" fill="#8CFFEC" stroke="#030304" stroke-width="1.03305" stroke-miterlimit="10" stroke-linejoin="round"/>
<path d="M47.4311 12.0699L58.7263 18.5927L47.4323 25.1133L36.1371 18.5905L47.4311 12.0699Z" fill="#030304" stroke="#030304" stroke-width="1.03305" stroke-miterlimit="10" stroke-linejoin="round"/>
<path d="M47.432 25.1127L47.437 38.1626L36.138 31.6333L36.1367 18.5899L47.432 25.1127Z" fill="#520CEB" stroke="#030304" stroke-width="1.03305" stroke-miterlimit="10" stroke-linejoin="round"/>
<path d="M43.1449 27.9647L43.1499 41.0145L31.8559 47.5351L31.8509 34.4853L43.1449 27.9647Z" fill="#8CFFEC" stroke="#030304" stroke-width="1.03305" stroke-miterlimit="10" stroke-linejoin="round"/>
<path d="M31.8497 21.442L43.1449 27.9648L31.851 34.4854L20.5557 27.9626L31.8497 21.442Z" fill="#030304" stroke="#030304" stroke-width="1.03305" stroke-miterlimit="10" stroke-linejoin="round"/>
<path d="M31.8509 34.4852L31.856 47.5351L20.557 41.0058L20.5557 27.9624L31.8509 34.4852Z" fill="#520CEB" stroke="#030304" stroke-width="1.03305" stroke-miterlimit="10" stroke-linejoin="round"/>
</svg>
