<svg width="39" height="39" viewBox="0 0 39 39" fill="none" xmlns="http://www.w3.org/2000/svg">
<path d="M4.33652 38.5C3.24342 38.5 2.33073 38.1339 1.59844 37.4016C0.866146 36.6693 0.5 35.7566 0.5 34.6635V4.33652C0.5 3.24342 0.866146 2.33073 1.59844 1.59844C2.33073 0.866146 3.24342 0.5 4.33652 0.5H27.9952L38.5 11.0048V34.6635C38.5 35.7566 38.1339 36.6693 37.4016 37.4016C36.6693 38.1339 35.7566 38.5 34.6635 38.5H4.33652ZM4.33652 36.125H34.6635C35.0898 36.125 35.4399 35.988 35.714 35.714C35.988 35.4399 36.125 35.0898 36.125 34.6635V12.375H26.625V2.875H4.33652C3.91024 2.875 3.56009 3.01202 3.28605 3.28605C3.01202 3.56009 2.875 3.91024 2.875 4.33652V34.6635C2.875 35.0898 3.01202 35.4399 3.28605 35.714C3.56009 35.988 3.91024 36.125 4.33652 36.125ZM8.8125 29H30.1875V26.625H8.8125V29ZM8.8125 12.375H19.5V10H8.8125V12.375ZM8.8125 20.6875H30.1875V18.3125H8.8125V20.6875Z" fill="#F94C56"/>
</svg>
