<svg width="28" height="20" viewBox="0 0 28 20" fill="none" xmlns="http://www.w3.org/2000/svg">
<path d="M16.5 7.375V5.25C17.1875 4.95833 17.8906 4.73958 18.6094 4.59375C19.3281 4.44792 20.0833 4.375 20.875 4.375C21.4167 4.375 21.9479 4.41667 22.4688 4.5C22.9896 4.58333 23.5 4.6875 24 4.8125V6.8125C23.5 6.625 22.9948 6.48438 22.4844 6.39062C21.974 6.29688 21.4375 6.25 20.875 6.25C20.0833 6.25 19.3229 6.34896 18.5938 6.54688C17.8646 6.74479 17.1667 7.02083 16.5 7.375ZM16.5 14.25V12.125C17.1875 11.8333 17.8906 11.6146 18.6094 11.4688C19.3281 11.3229 20.0833 11.25 20.875 11.25C21.4167 11.25 21.9479 11.2917 22.4688 11.375C22.9896 11.4583 23.5 11.5625 24 11.6875V13.6875C23.5 13.5 22.9948 13.3594 22.4844 13.2656C21.974 13.1719 21.4375 13.125 20.875 13.125C20.0833 13.125 19.3229 13.2188 18.5938 13.4062C17.8646 13.5938 17.1667 13.875 16.5 14.25ZM16.5 10.8125V8.6875C17.1875 8.39583 17.8906 8.17708 18.6094 8.03125C19.3281 7.88542 20.0833 7.8125 20.875 7.8125C21.4167 7.8125 21.9479 7.85417 22.4688 7.9375C22.9896 8.02083 23.5 8.125 24 8.25V10.25C23.5 10.0625 22.9948 9.92188 22.4844 9.82812C21.974 9.73438 21.4375 9.6875 20.875 9.6875C20.0833 9.6875 19.3229 9.78646 18.5938 9.98438C17.8646 10.1823 17.1667 10.4583 16.5 10.8125ZM7.125 15C8.10417 15 9.05729 15.1094 9.98438 15.3281C10.9115 15.5469 11.8333 15.875 12.75 16.3125V4C11.8958 3.5 10.9896 3.125 10.0312 2.875C9.07292 2.625 8.10417 2.5 7.125 2.5C6.375 2.5 5.63021 2.57292 4.89062 2.71875C4.15104 2.86458 3.4375 3.08333 2.75 3.375V15.75C3.47917 15.5 4.20312 15.3125 4.92188 15.1875C5.64062 15.0625 6.375 15 7.125 15ZM15.25 16.3125C16.1667 15.875 17.0885 15.5469 18.0156 15.3281C18.9427 15.1094 19.8958 15 20.875 15C21.625 15 22.3594 15.0625 23.0781 15.1875C23.7969 15.3125 24.5208 15.5 25.25 15.75V3.375C24.5625 3.08333 23.849 2.86458 23.1094 2.71875C22.3698 2.57292 21.625 2.5 20.875 2.5C19.8958 2.5 18.9271 2.625 17.9688 2.875C17.0104 3.125 16.1042 3.5 15.25 4V16.3125ZM14 20C13 19.2083 11.9167 18.5938 10.75 18.1562C9.58333 17.7188 8.375 17.5 7.125 17.5C6.25 17.5 5.39062 17.6146 4.54688 17.8438C3.70312 18.0729 2.89583 18.3958 2.125 18.8125C1.6875 19.0417 1.26562 19.0312 0.859375 18.7812C0.453125 18.5312 0.25 18.1667 0.25 17.6875V2.625C0.25 2.39583 0.307292 2.17708 0.421875 1.96875C0.536458 1.76042 0.708333 1.60417 0.9375 1.5C1.89583 1 2.89583 0.625 3.9375 0.375C4.97917 0.125 6.04167 0 7.125 0C8.33333 0 9.51563 0.15625 10.6719 0.46875C11.8281 0.78125 12.9375 1.25 14 1.875C15.0625 1.25 16.1719 0.78125 17.3281 0.46875C18.4844 0.15625 19.6667 0 20.875 0C21.9583 0 23.0208 0.125 24.0625 0.375C25.1042 0.625 26.1042 1 27.0625 1.5C27.2917 1.60417 27.4635 1.76042 27.5781 1.96875C27.6927 2.17708 27.75 2.39583 27.75 2.625V17.6875C27.75 18.1667 27.5469 18.5312 27.1406 18.7812C26.7344 19.0312 26.3125 19.0417 25.875 18.8125C25.1042 18.3958 24.2969 18.0729 23.4531 17.8438C22.6094 17.6146 21.75 17.5 20.875 17.5C19.625 17.5 18.4167 17.7188 17.25 18.1562C16.0833 18.5938 15 19.2083 14 20Z" fill="#F94C56"/>
</svg>
