<svg width="16" height="14" viewBox="0 0 16 14" fill="none" xmlns="http://www.w3.org/2000/svg">
<path d="M13.8091 7.54158H4.48063V6.45829H13.8091L12.3973 5.04642L13.1713 4.28842L15.8828 6.99994L13.1713 9.71146L12.3973 8.95346L13.8091 7.54158ZM9.66811 4.63775V1.75638C9.66811 1.68159 9.64407 1.62015 9.59598 1.57206C9.5479 1.52398 9.48646 1.49994 9.41167 1.49994H1.75625C1.68146 1.49994 1.62002 1.52398 1.57194 1.57206C1.52386 1.62015 1.49982 1.68159 1.49982 1.75638V12.2435C1.49982 12.3183 1.52386 12.3797 1.57194 12.4278C1.62002 12.4759 1.68146 12.4999 1.75625 12.4999H9.41167C9.48646 12.4999 9.5479 12.4759 9.59598 12.4278C9.64407 12.3797 9.66811 12.3183 9.66811 12.2435V9.36213H10.7514V12.2435C10.7514 12.6133 10.6206 12.929 10.3589 13.1907C10.0972 13.4524 9.78144 13.5833 9.41167 13.5833H1.75625C1.38649 13.5833 1.07076 13.4524 0.809066 13.1907C0.547358 12.929 0.416504 12.6133 0.416504 12.2435V1.75638C0.416504 1.38661 0.547358 1.07088 0.809066 0.809189C1.07076 0.54748 1.38649 0.416626 1.75625 0.416626H9.41167C9.78144 0.416626 10.0972 0.54748 10.3589 0.809189C10.6206 1.07088 10.7514 1.38661 10.7514 1.75638V4.63775H9.66811Z" fill="white"/>
</svg>
