<svg width="26" height="32" viewBox="0 0 26 32" fill="none" xmlns="http://www.w3.org/2000/svg">
<path d="M13.0005 22.031C13.357 22.031 13.6683 21.8996 13.9343 21.6368C14.2003 21.374 14.3333 21.0644 14.3333 20.7078C14.3333 20.3513 14.2001 20.0401 13.9338 19.7741C13.6675 19.508 13.356 19.375 12.9995 19.375C12.643 19.375 12.3335 19.5082 12.0711 19.7745C11.8086 20.0408 11.6774 20.3523 11.6774 20.7088C11.6774 21.0653 11.8088 21.3748 12.0715 21.6373C12.3343 21.8997 12.644 22.031 13.0005 22.031ZM12.1133 17.1528H13.8974C13.901 16.7311 13.9206 16.3853 13.9562 16.1154C13.9918 15.8454 14.0769 15.5986 14.2115 15.375C14.344 15.1492 14.5151 14.9188 14.7249 14.6838C14.9346 14.4487 15.2742 14.1058 15.7436 13.6549C16.3283 13.1115 16.7502 12.5753 17.0091 12.0465C17.268 11.5176 17.3974 10.9242 17.3974 10.2661C17.3974 9.09219 17.0016 8.14915 16.2099 7.43693C15.4183 6.72473 14.3936 6.36863 13.1359 6.36863C12.1208 6.36863 11.2085 6.64019 10.399 7.1833C9.5896 7.72641 9.02141 8.45129 8.69446 9.35793L10.3098 10.0192C10.5584 9.43233 10.9305 8.96598 11.4263 8.62018C11.922 8.27437 12.4923 8.10147 13.1372 8.10147C13.8477 8.10147 14.438 8.30554 14.9081 8.71368C15.3782 9.12179 15.6133 9.65633 15.6133 10.3173C15.6133 10.8184 15.5018 11.2542 15.2789 11.6248C15.0559 11.9953 14.6632 12.4403 14.1008 12.9599C13.6625 13.3478 13.3127 13.693 13.0513 13.9958C12.7899 14.2985 12.599 14.5964 12.4787 14.8897C12.3441 15.1677 12.2495 15.4818 12.195 15.8323C12.1405 16.1827 12.1133 16.6229 12.1133 17.1528ZM13 29.0695C16.4074 26.0267 19.0069 23.1199 20.7986 20.3488C22.5903 17.5778 23.4861 15.1549 23.4861 13.0801C23.4861 9.92163 22.4833 7.32609 20.4775 5.29351C18.4717 3.26095 15.9792 2.24468 13 2.24468C10.0208 2.24468 7.52828 3.26095 5.52251 5.29351C3.51676 7.32609 2.51388 9.92163 2.51388 13.0801C2.51388 15.1549 3.42005 17.5778 5.23238 20.3488C7.04471 23.1199 9.63392 26.0267 13 29.0695ZM13 31.8493C8.80559 28.2147 5.6603 24.8322 3.56413 21.7019C1.46799 18.5716 0.419922 15.6977 0.419922 13.0801C0.419922 9.23402 1.66405 6.12026 4.1523 3.73884C6.64052 1.35743 9.58976 0.166718 13 0.166718C16.4103 0.166718 19.3595 1.35743 21.8477 3.73884C24.336 6.12026 25.5801 9.23402 25.5801 13.0801C25.5801 15.6977 24.532 18.5716 22.4359 21.7019C20.3397 24.8322 17.1944 28.2147 13 31.8493Z" fill="#030304"/>
</svg>
