<svg width="20" height="20" viewBox="0 0 20 20" fill="none" xmlns="http://www.w3.org/2000/svg">
<path d="M9.99998 19.5C8.68716 19.5 7.45287 19.2503 6.2971 18.7509C5.14133 18.2516 4.13589 17.5743 3.28078 16.7192C2.42564 15.8641 1.7484 14.8586 1.24905 13.7029C0.749683 12.5471 0.5 11.3128 0.5 9.99998C0.5 8.68716 0.749683 7.45287 1.24905 6.2971C1.7484 5.14133 2.42564 4.13589 3.28078 3.28078C4.13589 2.42564 5.14133 1.7484 6.2971 1.24905C7.45287 0.749684 8.68716 0.5 9.99998 0.5C11.3128 0.5 12.5471 0.749684 13.7029 1.24905C14.8586 1.7484 15.8641 2.42564 16.7192 3.28078C17.5743 4.13589 18.2516 5.14133 18.7509 6.2971C19.2503 7.45287 19.5 8.68716 19.5 9.99998C19.5 11.3128 19.2503 12.5471 18.7509 13.7029C18.2516 14.8586 17.5743 15.8641 16.7192 16.7192C15.8641 17.5743 14.8586 18.2516 13.7029 18.7509C12.5471 19.2503 11.3128 19.5 9.99998 19.5ZM9.25 17.9538V16.5307C8.62178 16.4666 8.02563 16.3131 7.46153 16.0702C6.89743 15.8272 6.37883 15.5198 5.90575 15.148L4.89803 16.1615C5.49933 16.6654 6.1676 17.074 6.90285 17.3875C7.63812 17.7009 8.4205 17.8897 9.25 17.9538ZM10.75 17.9538C11.5795 17.8897 12.3602 17.7009 13.0923 17.3875C13.8243 17.074 14.491 16.6654 15.0923 16.1615L14.0942 15.148C13.6211 15.5198 13.1025 15.8272 12.5384 16.0702C11.9743 16.3131 11.3782 16.4666 10.75 16.5307V17.9538ZM9.99998 15.0865C11.409 15.0865 12.609 14.591 13.6 13.6C14.591 12.609 15.0865 11.409 15.0865 9.99998C15.0865 8.59099 14.591 7.39099 13.6 6.39998C12.609 5.40894 11.409 4.91343 9.99998 4.91343C8.59099 4.91343 7.39099 5.40894 6.39998 6.39998C5.40894 7.39099 4.91342 8.59099 4.91342 9.99998C4.91342 11.409 5.40894 12.609 6.39998 13.6C7.39099 14.591 8.59099 15.0865 9.99998 15.0865ZM16.1615 15.1019C16.6654 14.5006 17.074 13.8324 17.3875 13.0971C17.7009 12.3618 17.8897 11.5795 17.9538 10.75H16.5307C16.4666 11.3782 16.3131 11.9743 16.0702 12.5384C15.8272 13.1025 15.5198 13.6211 15.148 14.0942L16.1615 15.1019ZM3.83845 15.1019L4.85193 14.0788C4.48013 13.6057 4.17275 13.0897 3.9298 12.5307C3.68685 11.9718 3.53333 11.3782 3.46923 10.75H2.04612C2.11022 11.5795 2.29901 12.3618 2.61248 13.0971C2.92594 13.8324 3.3346 14.5006 3.83845 15.1019ZM9.99998 13.7115L7.21153 9.99998L9.99998 6.28845L12.7788 9.99998L9.99998 13.7115ZM2.04612 9.25H3.46923C3.53333 8.62179 3.68685 8.02819 3.9298 7.46923C4.17275 6.91024 4.48013 6.39421 4.85193 5.92113L3.83845 4.90765C3.3346 5.50893 2.92594 6.17561 2.61248 6.90768C2.29901 7.63973 2.11022 8.4205 2.04612 9.25ZM16.5307 9.25H17.9538C17.8897 8.4205 17.6984 7.63973 17.3798 6.90768C17.0612 6.17561 16.65 5.50893 16.1461 4.90765L15.148 5.90575C15.5198 6.37884 15.8272 6.89743 16.0702 7.46153C16.3131 8.02563 16.4666 8.62179 16.5307 9.25ZM5.92113 4.85193C6.39421 4.48013 6.91024 4.17275 7.46923 3.9298C8.02819 3.68685 8.62178 3.53333 9.25 3.46923V2.04613C8.4205 2.11023 7.63812 2.29901 6.90285 2.61248C6.1676 2.92594 5.49933 3.3346 4.89803 3.83845L5.92113 4.85193ZM14.0942 4.85193L15.0923 3.85383C14.491 3.34998 13.8243 2.93876 13.0923 2.62018C12.3602 2.30158 11.5795 2.11023 10.75 2.04613V3.46923C11.3782 3.53333 11.9743 3.68685 12.5384 3.9298C13.1025 4.17275 13.6211 4.48013 14.0942 4.85193Z" fill="white"/>
</svg>
