<svg width="25" height="26" viewBox="0 0 25 26" fill="none" xmlns="http://www.w3.org/2000/svg">
<path d="M4.5 25.5V20.125C3.3125 19.0417 2.39063 17.776 1.73438 16.3281C1.07812 14.8802 0.75 13.3542 0.75 11.75C0.75 8.625 1.84375 5.96875 4.03125 3.78125C6.21875 1.59375 8.875 0.5 12 0.5C14.6042 0.5 16.9115 1.26562 18.9219 2.79688C20.9323 4.32812 22.2396 6.32292 22.8438 8.78125L24.4688 15.1875C24.5729 15.5833 24.5 15.9427 24.25 16.2656C24 16.5885 23.6667 16.75 23.25 16.75H20.75V20.5C20.75 21.1875 20.5052 21.776 20.0156 22.2656C19.526 22.7552 18.9375 23 18.25 23H15.75V25.5H13.25V20.5H18.25V14.25H21.625L20.4375 9.40625C19.9583 7.51042 18.9375 5.96875 17.375 4.78125C15.8125 3.59375 14.0208 3 12 3C9.58333 3 7.52083 3.84375 5.8125 5.53125C4.10417 7.21875 3.25 9.27083 3.25 11.6875C3.25 12.9375 3.50521 14.125 4.01562 15.25C4.52604 16.375 5.25 17.375 6.1875 18.25L7 19V25.5H4.5ZM10.75 16.75H13.25L13.4375 15.1875C13.6042 15.125 13.7552 15.0521 13.8906 14.9688C14.026 14.8854 14.1458 14.7917 14.25 14.6875L15.6875 15.3125L16.9375 13.1875L15.6875 12.25C15.7292 12.0833 15.75 11.9167 15.75 11.75C15.75 11.5833 15.7292 11.4167 15.6875 11.25L16.9375 10.3125L15.6875 8.1875L14.25 8.8125C14.1458 8.70833 14.026 8.61458 13.8906 8.53125C13.7552 8.44792 13.6042 8.375 13.4375 8.3125L13.25 6.75H10.75L10.5625 8.3125C10.3958 8.375 10.2448 8.44792 10.1094 8.53125C9.97396 8.61458 9.85417 8.70833 9.75 8.8125L8.3125 8.1875L7.0625 10.3125L8.3125 11.25C8.27083 11.4167 8.25 11.5833 8.25 11.75C8.25 11.9167 8.27083 12.0833 8.3125 12.25L7.0625 13.1875L8.3125 15.3125L9.75 14.6875C9.85417 14.7917 9.97396 14.8854 10.1094 14.9688C10.2448 15.0521 10.3958 15.125 10.5625 15.1875L10.75 16.75ZM12 13.625C11.4792 13.625 11.0365 13.4427 10.6719 13.0781C10.3073 12.7135 10.125 12.2708 10.125 11.75C10.125 11.2292 10.3073 10.7865 10.6719 10.4219C11.0365 10.0573 11.4792 9.875 12 9.875C12.5208 9.875 12.9635 10.0573 13.3281 10.4219C13.6927 10.7865 13.875 11.2292 13.875 11.75C13.875 12.2708 13.6927 12.7135 13.3281 13.0781C12.9635 13.4427 12.5208 13.625 12 13.625Z" fill="#F94C56"/>
</svg>
