<svg width="16" height="16" viewBox="0 0 16 16" fill="none" xmlns="http://www.w3.org/2000/svg">
<path d="M8.56325 6.32645C8.7299 6.05152 9.35855 5.10388 9.70874 4.46627C10.5167 2.99411 11.3626 1.5434 12.6094 0.293534C12.8035 0.0985462 13.0334 -0.283628 14.2907 0.350082C15.5986 1.01109 16.2125 1.6487 15.9341 2.01918C15.259 2.91612 14.3962 3.72727 14.0713 4.78995C13.5945 6.3479 12.6073 7.64652 11.8668 9.07188C11.5335 9.71144 11.1686 10.3354 10.8057 10.9594L10.2657 11.8972L10.0041 12.3711L9.62435 13.0691C9.47457 13.3421 9.33323 13.6268 9.17501 13.8978C9.0168 14.1689 8.84381 14.4223 8.66028 14.6505C8.28689 15.1067 7.86287 15.4577 7.35025 15.6956C6.84606 15.9413 6.2132 16.0388 5.62463 15.9861C5.03606 15.9276 4.50234 15.7346 4.01292 15.3992C3.59101 15.1145 3.21551 14.7051 2.89486 14.2254C2.73453 13.9856 2.59318 13.7262 2.45395 13.4747L2.24722 13.0984L2.14595 12.9112C2.1354 12.8936 2.13119 12.8819 2.12908 12.8761L2.11854 12.8507L2.09744 12.8C1.86538 12.258 1.646 11.7081 1.37808 11.1855C1.25151 10.9399 0.840143 10.7917 0.692474 10.5284C0.570119 10.3101 0.346498 9.95712 0.314854 9.68998C0.300087 9.57494 0.297976 9.4482 0.194608 9.38776C-0.280044 9.10307 0.0891356 8.74625 1.57216 8.08719C1.89914 7.9429 2.27675 7.67966 2.551 7.65822C2.56154 7.65822 2.58474 7.65432 2.5974 7.65237C3.63742 7.46713 3.44756 7.99164 3.67117 8.28413C4.21755 9.00363 4.74072 9.73483 5.25967 10.4719L5.45376 10.7488C5.51493 10.8346 5.60142 10.9613 5.5972 10.9496L5.69212 11.0647C5.75119 11.1388 5.81238 11.2089 5.88833 11.2538C5.93474 11.2811 5.98958 11.3064 6.04654 11.3064C6.10561 11.3084 6.16257 11.283 6.20265 11.2421C6.28281 11.1582 6.31657 11.014 6.28281 10.8853C6.27437 10.8502 6.23007 10.7956 6.19842 10.7644L6.17945 10.7429C6.17945 10.7371 6.17101 10.7449 6.17733 10.7293C6.18577 10.7117 6.1921 10.6942 6.20265 10.6786C6.23851 10.6123 6.28492 10.5499 6.35032 10.4992L6.3461 10.5031C6.46212 10.2067 6.53596 9.89082 6.7005 9.61784C7.31649 8.5844 7.83755 7.44568 8.5316 6.50584C8.5548 6.46489 8.52738 6.38495 8.56325 6.32645Z" fill="#520CEB"/>
</svg>
