<svg width="29" height="61" viewBox="0 0 29 61" fill="none" xmlns="http://www.w3.org/2000/svg">
<path d="M3.58041 4.73302C4.97786 4.28327 6.39024 3.84802 7.79516 3.42003C8.66202 3.15888 9.5513 2.99929 10.3659 2.55679C10.59 2.43347 10.7619 2.13604 11.0384 2.20858H11.0309C11.2701 2.08526 11.4943 1.91117 11.7483 1.85314C12.7049 1.62101 13.6689 1.21477 14.6254 1.12047C14.6628 1.11321 14.6927 1.03342 14.745 1.01891C14.9991 0.960877 15.9257 0.801292 16.4937 0.627193C17.8164 0.228217 19.154 -0.119979 20.6337 0.0396114C20.8653 0.0613738 23.9218 -0.243304 24.3552 1.33809C24.8036 2.99203 22.1357 4.23975 21.7546 4.26876C20.8354 4.34856 19.8416 4.20347 19.0494 4.71851C17.8836 5.47294 16.546 5.58176 15.2905 6.00249C14.1621 6.37971 12.9889 6.59733 11.8679 6.98905C10.8142 7.35901 9.83527 7.99737 8.75169 8.26577C7.81758 8.49791 6.77136 8.33106 5.79988 8.42537C5.56822 8.44713 5.38886 8.80984 5.14226 8.84611C4.94049 8.87512 4.6042 8.95492 4.36506 8.86787C4.26044 8.8316 4.15583 8.78082 4.08857 8.86062C3.78218 9.23058 0.56881 9.6368 0.0606498 7.7072C-0.447511 5.82114 2.3698 5.12475 3.58041 4.73302Z" fill="#520CEB"/>
<path d="M8.17538 26.0754C9.42336 26.0246 10.6639 25.9883 11.9119 25.9593C12.6741 25.9448 13.4363 26.0318 14.2061 25.8287C14.4153 25.7707 14.632 25.5313 14.8413 25.6836C15.0654 25.6329 15.2896 25.5241 15.5063 25.5386C16.3433 25.5748 17.2177 25.4515 18.0173 25.6184C18.0471 25.6256 18.092 25.5531 18.1368 25.5531C18.361 25.5676 19.1457 25.6619 19.6538 25.6546C20.8271 25.6329 21.9929 25.6619 23.1437 26.2132C23.323 26.3002 25.8713 26.8298 25.8265 28.4765C25.7816 30.1812 23.3081 30.6527 22.9942 30.5874C22.232 30.4133 21.4623 29.9998 20.6926 30.2828C19.5642 30.689 18.4507 30.4278 17.3297 30.4931C16.3209 30.5512 15.3195 30.4351 14.3181 30.5076C13.3766 30.5729 12.42 30.9211 11.4784 30.8848C10.6639 30.8486 9.86427 30.4061 9.04972 30.2392C8.85542 30.1957 8.62376 30.5004 8.41452 30.4641C8.24264 30.4351 7.95119 30.4206 7.78679 30.2755C7.71206 30.2102 7.63734 30.1304 7.56261 30.1885C7.21885 30.4569 4.52859 29.9781 4.59584 27.9832C4.64068 26.0246 7.0918 26.1189 8.17538 26.0754Z" fill="#520CEB"/>
<path d="M7.40084 50.6895C8.91785 51.0958 10.4348 51.5165 11.9444 51.9445C12.871 52.2056 13.7603 52.5756 14.7467 52.6554C15.0158 52.6771 15.3446 52.5248 15.5538 52.7424H15.5463C15.8303 52.7714 16.1292 52.757 16.3983 52.844C17.3922 53.1849 18.4907 53.3881 19.4024 53.8378C19.4398 53.8523 19.5145 53.8015 19.5668 53.8233C19.8284 53.9176 20.7475 54.2948 21.3678 54.4689C22.7876 54.8751 24.1851 55.3322 25.4181 56.2824C25.6124 56.4275 28.5269 57.8783 27.9888 59.4307C27.4209 61.0484 24.3046 60.5986 23.9459 60.41C23.0716 59.9675 22.272 59.2929 21.2632 59.2711C19.776 59.2494 18.5131 58.5893 17.1456 58.2411C15.9125 57.9291 14.7393 57.4504 13.5062 57.1529C12.3479 56.87 11.0925 56.8555 9.96405 56.4783C8.99257 56.1519 8.1556 55.4337 7.22895 54.9695C7.01224 54.8606 6.63859 55.0565 6.39198 54.9549C6.19021 54.8679 5.84646 54.7446 5.68952 54.5415C5.62227 54.4544 5.55501 54.3529 5.44292 54.3819C4.9497 54.5197 1.84096 53.0689 2.51352 51.1828C3.15619 49.3475 6.0856 50.3413 7.40084 50.6895Z" fill="#520CEB"/>
</svg>
