<svg width="73" height="26" viewBox="0 0 73 26" fill="none" xmlns="http://www.w3.org/2000/svg">
<path d="M6.35201 22.6084L11.2213 18.8901L12.6905 17.7162L13.107 17.3906C13.266 17.2619 13.5311 17.0422 13.728 16.8605C14.1521 16.4743 14.5534 16.0578 14.8942 15.6034C15.2728 15.1188 15.7576 14.5735 15.7273 13.9298V13.9373C15.909 13.3012 15.9848 12.6121 15.8257 11.9532C15.5228 10.7113 14.667 9.62837 13.5917 8.74234L13.1373 8.34854L12.7435 8.01537C12.4785 7.80333 12.2059 7.59883 11.9332 7.41708C11.8878 7.38679 11.8878 7.28078 11.8272 7.23534C11.547 7.00058 10.5019 6.22819 9.8885 5.67537C8.45722 4.39555 6.99568 3.15356 5.18576 2.33569C4.90556 2.20695 1.3766 -0.133101 0.278527 1.17701C-0.864982 2.54014 1.85372 5.57692 2.29295 5.86469C3.36073 6.5614 4.59505 7.06876 5.35234 8.11382C6.45798 9.65112 8.01803 10.6508 9.35844 11.9079L10.1611 12.6348C10.2444 12.7106 10.3278 12.7788 10.3959 12.8696C10.5474 13.0362 10.5398 13.3164 10.3732 13.4678C10.2975 13.5436 10.199 13.5966 10.1006 13.6193C10.04 13.6421 10.0249 13.6193 9.93398 13.6647L9.48721 13.9298C8.82079 14.3387 8.16193 14.7552 7.57124 15.255C6.5489 16.1108 5.79155 17.2998 4.86008 18.2691C4.64047 18.4963 4.1483 18.4887 3.8984 18.7311C3.69393 18.928 3.3304 19.2384 3.20924 19.5337C3.15623 19.6625 3.11075 19.8064 2.97443 19.8291C2.3686 19.9503 -0.789264 23.1082 0.55114 24.6909C1.85368 26.2585 4.93588 23.6762 6.35201 22.6084Z" fill="#E93C51"/>
<path d="M39.8549 6.72085C39.4914 6.41794 38.1509 5.39554 37.3482 4.67611C35.4777 3.02522 33.5769 1.41218 31.3202 0.215658C30.9719 0.0263348 30.4569 -0.390135 29.3588 0.919979C28.2153 2.29067 27.8821 3.36602 28.4425 3.75224C29.798 4.69128 31.3278 5.44853 32.3729 6.73592C33.9026 8.62915 35.8791 9.98474 37.6436 11.6053C38.0374 11.9688 38.4387 12.3248 38.8476 12.6731L39.09 12.8851C39.1279 12.9154 39.1582 12.9533 39.1885 12.9911C39.3248 13.1502 39.2263 13.3925 39.0597 13.4834C39.0445 13.4986 39.0219 13.5062 38.9991 13.5137C38.984 13.5137 38.9612 13.5213 38.8704 13.597L38.3176 13.9681L37.0453 14.8011C36.1971 15.3539 35.3641 15.9219 34.5917 16.5656C33.2588 17.6789 32.1911 19.1253 30.9491 20.3445C30.6538 20.6323 30.0783 20.7004 29.7451 21.0033C29.4724 21.2533 29.0029 21.6546 28.8135 22.0029C28.7302 22.1544 28.6546 22.321 28.4955 22.374C27.761 22.6012 28.0033 23.1995 29.4346 24.5626C29.745 24.8655 30.0555 25.3351 30.3812 25.4562C30.3963 25.4638 30.419 25.4713 30.4341 25.4789C31.5928 26.062 31.661 25.2972 32.0927 24.9791C34.2282 23.404 36.2956 21.7303 38.3857 20.0945L40.2941 18.5648C40.6121 18.3149 40.9378 18.065 41.271 17.8302C41.6042 17.5803 41.9222 17.3986 42.4599 16.9669C43.0885 16.452 43.8685 15.884 44.0881 15.0661L44.0805 15.0813C44.5046 14.324 44.7848 13.4304 44.6561 12.552C44.5576 11.7189 44.2168 10.9237 43.6943 10.2346C43.4368 9.88625 43.1264 9.56067 42.8008 9.25776L42.0813 8.61408C41.3997 8.01582 40.7182 7.44022 40.0215 6.94798C39.9533 6.90255 39.9306 6.78144 39.8549 6.72085Z" fill="#E93C51"/>
<path d="M68.9841 6.65504C68.6963 6.42028 67.6361 5.62514 67.0075 5.06475C65.546 3.75463 64.0541 2.48994 62.2063 1.64178C61.9186 1.50546 61.5172 1.17983 60.4192 2.48994C59.2756 3.85306 58.8666 4.87543 59.3134 5.1632C60.4039 5.87505 61.6535 6.39761 62.4335 7.46539C63.5694 9.02541 65.1598 10.0477 66.5304 11.3351L67 11.7592L67.053 11.8122L67.0606 11.8198L67.0833 11.8426L67.1212 11.8804C67.1742 11.9334 67.2347 11.9788 67.2802 12.0394C67.3862 12.1605 67.3104 12.3574 67.1665 12.4256C67.0984 12.4635 67.0152 12.4786 66.947 12.4711C66.9318 12.4711 66.9394 12.4635 66.9167 12.4711L66.7879 12.5468L66.5304 12.7058L66.023 13.0163C65.3415 13.4328 64.6751 13.8645 64.0693 14.3719C63.0242 15.2503 62.2517 16.4544 61.2975 17.4389C61.0704 17.6736 60.5706 17.6736 60.3207 17.916C60.1087 18.1204 59.7451 18.4385 59.6164 18.7339C59.5634 18.8626 59.5104 19.0065 59.3817 19.0368C58.7607 19.1656 59.0409 19.741 60.4267 21.1344C60.7296 21.4449 61.0553 21.9069 61.343 22.0508C61.3582 22.0584 61.3808 22.0735 61.396 22.0735C62.4638 22.7323 62.4411 22.0356 62.7895 21.7933C64.4858 20.574 66.1064 19.264 67.7573 17.9918L69.2567 16.7952C69.5066 16.5983 69.7565 16.4089 70.0291 16.2196C70.4986 15.8713 70.9758 15.523 71.4074 15.1216C71.877 14.6975 72.4677 14.2431 72.551 13.6146V13.6222C72.8387 13.0391 73.0659 12.3726 72.9826 11.6986C72.8614 10.4264 72.1647 9.32073 71.0666 8.38927L70.3472 7.76833L69.9458 7.43507C69.6732 7.21546 69.4006 7.01104 69.1204 6.82171C69.0523 6.80657 69.0446 6.70048 68.9841 6.65504Z" fill="#E93C51"/>
</svg>
