<svg width="10" height="13" viewBox="0 0 10 13" fill="none" xmlns="http://www.w3.org/2000/svg">
<path d="M9.96575 5.65201C9.88011 4.43245 9.69275 4.44326 9.57499 4.3893C8.89484 4.11813 8.15192 4.04885 7.43397 4.18964C7.34665 4.19551 7.25903 4.19551 7.17171 4.18964C7.17171 3.96299 7.1396 3.73635 7.11819 3.5151C7.00579 2.52758 6.93084 1.54006 6.77027 0.557939C6.73815 0.358276 7.11283 0.131631 6.23501 0.0183088L6.19754 0.0183088C5.89293 -0.00610293 5.58689 -0.00610293 5.28228 0.0183088C3.89597 0.0183088 3.46241 0.126253 3.67651 0.374483C3.72469 0.428446 3.6765 0.493183 3.62833 0.557939C3.55067 0.726454 3.51749 0.912329 3.53199 1.09757C3.53199 1.26485 3.76216 1.43755 3.7461 1.58865C3.59572 2.23659 3.49373 2.89493 3.441 3.55825C3.47726 3.98739 3.56164 4.41105 3.69255 4.82103C3.36605 4.89118 3.03421 4.89656 2.70771 4.93973C1.953 5.03686 1.19292 5.10159 0.44356 5.25269C0.288337 5.25269 0.106357 4.90196 0.0153636 5.75458C0.0179627 5.76703 0.0179627 5.77987 0.0153636 5.79232C-0.00512119 6.09776 -0.00512119 6.40429 0.0153636 6.70973C0.0153636 8.10737 0.127771 8.54447 0.320462 8.32862C0.35793 8.28005 0.411461 8.3286 0.459633 8.37717C0.577521 8.45287 0.716239 8.48874 0.855716 8.47967C0.984177 8.47967 1.11264 8.25842 1.2304 8.2746C1.72565 8.43253 2.23461 8.5428 2.7505 8.60384C3.22344 8.53624 3.68692 8.41306 4.13147 8.23686C4.24387 9.10566 4.13148 9.98523 4.51687 10.8378C4.77914 11.4314 4.51684 12.0628 4.45796 12.6834C4.42585 12.937 5.16988 13.0558 6.42773 12.9748C7.68557 12.8939 7.62667 12.651 7.67485 12.4999C7.93672 11.5869 7.9934 10.6264 7.84077 9.68843C7.79795 9.2891 7.81401 8.65775 7.8033 8.48507C7.8033 8.44729 7.74444 8.41495 7.74979 8.38797C7.7659 8.19404 7.7659 7.99906 7.74979 7.80513C7.94853 7.76483 8.1399 7.6939 8.31716 7.59473C8.77212 7.3411 9.26454 7.59468 9.74092 7.68102C9.97643 7.66484 10.0514 6.92014 9.96575 5.65201Z" fill="#F1F1F1"/>
</svg>
