<svg width="38" height="14" viewBox="0 0 38 14" fill="none" xmlns="http://www.w3.org/2000/svg">
<path d="M34.3663 11.6574L31.8554 9.74005L31.0979 9.13477L30.8831 8.96689C30.8011 8.9005 30.6644 8.78723 30.5629 8.69352C30.3442 8.49437 30.1373 8.27963 29.9616 8.04534C29.7663 7.79543 29.5164 7.51424 29.532 7.18233L29.532 7.18624C29.4383 6.85823 29.3992 6.50289 29.4812 6.16316C29.6374 5.52276 30.0787 4.96437 30.6332 4.50749L30.8675 4.30443L31.0706 4.13264C31.2072 4.0233 31.3478 3.91786 31.4884 3.82414C31.5118 3.80852 31.5118 3.75386 31.543 3.73043C31.6875 3.60937 32.2264 3.2111 32.5427 2.92604C33.2807 2.26612 34.0344 1.62571 34.9676 1.20398C35.1121 1.1376 36.9318 -0.069025 37.498 0.60652C38.0876 1.3094 36.6858 2.87528 36.4593 3.02367C35.9087 3.38292 35.2722 3.64453 34.8817 4.18341C34.3116 4.9761 33.5072 5.49155 32.816 6.13976L32.4021 6.51461C32.3592 6.55366 32.3162 6.58882 32.2811 6.63568C32.203 6.72159 32.2069 6.86604 32.2928 6.94414C32.3318 6.98319 32.3826 7.01055 32.4334 7.02226C32.4646 7.03398 32.4724 7.02224 32.5193 7.04567L32.7496 7.18233C33.0933 7.39319 33.433 7.60796 33.7376 7.86568C34.2647 8.30693 34.6553 8.92004 35.1356 9.41987C35.2488 9.53701 35.5026 9.5331 35.6314 9.65806C35.7369 9.75958 35.9243 9.91966 35.9868 10.072C36.0141 10.1383 36.0376 10.2125 36.1079 10.2242C36.4203 10.2867 38.0486 11.9151 37.3574 12.7312C36.6858 13.5395 35.0965 12.2079 34.3663 11.6574Z" fill="#520CEB"/>
<path d="M17.0908 3.46536C17.2782 3.30917 17.9694 2.78198 18.3833 2.41101C19.3478 1.55975 20.328 0.728005 21.4916 0.111034C21.6712 0.0134117 21.9367 -0.201336 22.503 0.474209C23.0926 1.18099 23.2644 1.73548 22.9755 1.93463C22.2765 2.41884 21.4877 2.8093 20.9488 3.47313C20.16 4.44935 19.1409 5.14835 18.231 5.98399C18.028 6.17143 17.821 6.35497 17.6102 6.53459L17.4852 6.64389C17.4657 6.65951 17.45 6.67904 17.4344 6.69857C17.3641 6.78057 17.4149 6.90554 17.5008 6.95239C17.5086 6.9602 17.5203 6.96413 17.5321 6.96803C17.5399 6.96803 17.5516 6.97193 17.5985 7.01098L17.8835 7.20231L18.5395 7.63184C18.9769 7.9169 19.4064 8.20979 19.8047 8.54171C20.492 9.11573 21.0425 9.86155 21.6829 10.4902C21.8352 10.6386 22.132 10.6738 22.3038 10.83C22.4444 10.9588 22.6865 11.1658 22.7841 11.3454C22.8271 11.4235 22.8661 11.5094 22.9481 11.5367C23.3269 11.6539 23.2019 11.9624 22.4639 12.6652C22.3038 12.8214 22.1437 13.0636 21.9758 13.126C21.968 13.1299 21.9563 13.1338 21.9485 13.1377C21.351 13.4384 21.3159 13.044 21.0933 12.88C19.9921 12.0678 18.9261 11.2048 17.8484 10.3613L16.8643 9.57256C16.7003 9.44369 16.5324 9.31484 16.3606 9.19379C16.1888 9.06493 16.0248 8.97121 15.7475 8.74863C15.4234 8.4831 15.0212 8.19023 14.908 7.7685L14.9119 7.77632C14.6932 7.38583 14.5487 6.92507 14.6151 6.4721C14.6659 6.04257 14.8416 5.63253 15.111 5.27719C15.2438 5.09756 15.4039 4.92968 15.5718 4.77349L15.9428 4.44158C16.2942 4.1331 16.6457 3.8363 17.0049 3.58248C17.04 3.55905 17.0517 3.4966 17.0908 3.46536Z" fill="#520CEB"/>
<path d="M2.07082 3.43133C2.21921 3.31028 2.76589 2.90028 3.08999 2.61131C3.84364 1.93577 4.61288 1.28365 5.56568 0.846299C5.71406 0.776012 5.92101 0.6081 6.48722 1.28364C7.07686 1.98652 7.28776 2.51369 7.05737 2.66208C6.49506 3.02914 5.85076 3.29859 5.44856 3.84918C4.86283 4.65358 4.04279 5.18074 3.336 5.84457L3.0939 6.06322L3.06654 6.09058L3.06263 6.09449L3.05095 6.10621L3.03141 6.12571C3.00408 6.15304 2.97285 6.17646 2.94942 6.2077C2.89476 6.27017 2.93381 6.3717 3.00801 6.40685C3.04315 6.42637 3.08607 6.4342 3.12122 6.4303C3.12903 6.4303 3.12514 6.4264 3.13685 6.4303L3.20325 6.46934L3.336 6.55133L3.59765 6.71144C3.94909 6.92621 4.2927 7.1488 4.60509 7.41043C5.14396 7.8634 5.54228 8.48424 6.03429 8.99188C6.15144 9.11293 6.40913 9.11293 6.53799 9.23789C6.64732 9.34332 6.83478 9.50736 6.90116 9.65965C6.9285 9.72603 6.95581 9.80023 7.02219 9.81585C7.34239 9.88223 7.19791 10.179 6.48331 10.8975C6.32712 11.0576 6.15922 11.2958 6.01084 11.37C6.00303 11.3739 5.99134 11.3817 5.98353 11.3817C5.43294 11.7214 5.44462 11.3621 5.26499 11.2372C4.3903 10.6085 3.55468 9.933 2.70341 9.27697L1.93026 8.65997C1.80139 8.55845 1.67253 8.46082 1.53195 8.3632C1.28985 8.18357 1.04381 8.00397 0.821235 7.79701C0.579132 7.57834 0.274547 7.34405 0.231594 7.01994L0.231594 7.02385C0.0832081 6.72317 -0.0339174 6.37953 0.00903606 6.03199C0.0715145 5.37597 0.430775 4.80586 0.996982 4.32556L1.36793 4.00538L1.5749 3.83354C1.71547 3.7203 1.85604 3.6149 2.00052 3.51727C2.03566 3.50946 2.03959 3.45476 2.07082 3.43133Z" fill="#520CEB"/>
</svg>
