<svg width="13" height="32" viewBox="0 0 13 32" fill="none" xmlns="http://www.w3.org/2000/svg">
<mask id="path-1-outside-1_85_171" maskUnits="userSpaceOnUse" x="0" y="0" width="13" height="32" fill="black">
<rect fill="white" width="13" height="32"/>
<path fill-rule="evenodd" clip-rule="evenodd" d="M6.20639 15.5141C6.54994 14.7176 7.42732 13.5322 7.69952 13.1985C7.72363 13.1667 7.7417 13.1337 7.75823 13.1035C7.77793 13.0674 7.79545 13.0354 7.81844 13.0142C7.90735 12.9056 7.99745 12.7958 8.08849 12.6848C8.99609 11.5789 9.99627 10.3601 10.8153 9.06687C10.9256 8.90318 11.013 8.72656 11.0997 8.55138C11.1106 8.52936 11.1215 8.50736 11.1324 8.48541L11.1424 8.46517C11.2361 8.27481 11.3291 8.08595 11.4004 7.88775C11.5109 7.70202 11.5924 7.51019 11.653 7.31226C11.6701 7.23937 11.6862 7.16648 11.7022 7.09378C11.7308 6.96432 11.7592 6.83546 11.7931 6.70828C11.8326 6.58582 11.8514 6.45958 11.8701 6.33342C11.879 6.27396 11.8878 6.21451 11.8988 6.15549C11.9082 6.08949 11.9195 6.02426 11.9308 5.95907C11.9515 5.84024 11.9722 5.72155 11.9807 5.5986C12.0124 5.22188 12.0071 4.83697 11.949 4.44797C11.8856 4.05897 11.7719 3.66382 11.5658 3.28506C11.3676 2.90629 11.061 2.5439 10.6964 2.24089C10.0938 1.74542 9.33272 1.40351 8.53462 1.20901C7.73652 1.01246 6.89085 0.953088 6.06104 1.03703C4.38027 1.21311 2.95321 1.94812 1.91991 2.8592C1.85094 2.92012 1.77825 2.98008 1.70519 3.04034C1.33876 3.34257 0.963228 3.65231 1.00289 4.12858V4.15724C0.997507 4.27399 1.08956 4.3247 1.18148 4.37533C1.22497 4.39928 1.26842 4.42321 1.30152 4.45411C1.53408 4.66909 1.72963 4.75713 1.89348 4.73256C2.05733 4.70594 2.18683 4.56877 2.34275 4.31899C2.40881 4.21047 2.52774 4.12039 2.64137 4.0344C2.70038 3.98774 2.76738 3.9337 2.8389 3.87601C3.07809 3.68308 3.36796 3.44926 3.57953 3.31372C3.67169 3.25117 3.76385 3.18301 3.85671 3.11434C4.08604 2.94473 4.31961 2.77199 4.5679 2.67289C4.9326 2.52548 5.31844 2.41697 5.70956 2.3535C6.09275 2.29208 6.48388 2.2757 6.86971 2.30231C7.64403 2.3535 8.38662 2.56847 8.96274 2.89605C9.301 3.08441 9.57584 3.31167 9.77933 3.57783C9.98811 3.84809 10.1335 4.16543 10.2127 4.51349C10.3766 5.20755 10.2815 6.00398 10.0225 6.75947C9.74762 7.56818 9.28779 8.35233 8.74868 9.1201C8.35752 9.67716 7.92324 10.2267 7.48317 10.7835C7.31672 10.9941 7.14944 11.2058 6.98335 11.4193C6.9227 11.4972 6.86182 11.5753 6.80082 11.6535C6.18402 12.4441 5.55536 13.2499 5.03831 14.1219C4.46748 15.0821 4.05258 16.114 3.98122 17.2277C3.97065 17.6147 4.00501 18.0283 4.16357 18.4398C4.31949 18.8452 4.59962 19.226 4.94317 19.5392C5.64085 20.1698 6.52087 20.5691 7.37711 20.8782C8.09857 21.1321 8.68261 20.9765 8.89667 20.5281C9.07853 20.1452 8.58566 19.9598 8.22571 19.8245C8.17768 19.8064 8.13202 19.7893 8.09064 19.7726C7.52246 19.5495 6.98863 19.3099 6.57108 19.0294C6.14561 18.751 5.86812 18.4418 5.73863 18.1081C5.6065 17.7826 5.62499 17.367 5.72806 16.9042L5.92626 16.2061C5.96319 16.1163 5.99853 16.0265 6.03382 15.9368C6.08944 15.7954 6.14495 15.6544 6.20639 15.5141ZM8.52558 26.7577C8.57515 26.7604 8.62994 26.7734 8.65343 26.7812C8.65982 26.7828 8.66818 26.7746 8.67489 26.768C8.67913 26.7639 8.68271 26.7604 8.68473 26.7604L8.69508 26.7663C8.77888 26.8145 8.8754 26.87 8.94304 26.9352C9.00566 26.99 9.06567 27.0761 9.08915 27.1987C9.09403 27.2182 9.10195 27.2377 9.11039 27.2585C9.11548 27.2711 9.12076 27.2841 9.12567 27.2978C9.14394 27.3318 9.15959 27.3709 9.16742 27.41C9.13446 27.4545 9.15146 27.5042 9.16912 27.5558C9.17942 27.5859 9.18994 27.6167 9.1909 27.6475C9.19351 27.7988 9.13872 27.9423 9.06044 28.0466C8.98217 28.151 8.88564 28.2162 8.78388 28.2632C8.62212 28.3441 8.37686 28.3389 8.13943 28.2476C7.98186 28.1876 7.83666 28.0917 7.71858 27.9782C7.7395 27.9297 7.75997 27.8817 7.78009 27.8346C7.8698 27.6245 7.95258 27.4306 8.03768 27.2691C8.16292 27.0134 8.29076 26.8673 8.37686 26.8047C8.41339 26.7786 8.48644 26.7551 8.52558 26.7577ZM6.17562 27.598C6.14856 27.6049 6.12482 27.6135 6.10433 27.624C5.98692 27.6814 5.96605 27.8066 6.05476 27.9632C6.09054 28.0213 6.09182 28.0909 6.09309 28.1606C6.09331 28.1722 6.09352 28.1838 6.09389 28.1954C6.10172 28.2867 6.13825 28.4041 6.1826 28.5163C6.23478 28.6207 6.28958 28.7276 6.33915 28.8007C6.41131 28.9129 6.52783 28.9917 6.636 29.0648C6.70382 29.1106 6.76835 29.1542 6.81661 29.2025C7.08796 29.4764 7.40366 29.7165 7.78198 29.8782C8.15509 30.0374 8.60386 30.1157 9.05784 30.0217C9.58488 29.9148 10.0676 29.5782 10.352 29.1686C10.6442 28.7589 10.7903 28.3102 10.8581 27.864C10.9207 27.3892 10.8894 26.8934 10.699 26.416C10.5059 25.9411 10.1197 25.508 9.67359 25.2862C9.42311 25.1584 9.15437 25.0644 8.86476 25.0227C8.57776 24.9809 8.26206 24.994 7.97245 25.0853C7.68806 25.1636 7.41932 25.328 7.20798 25.521C6.99403 25.7167 6.84792 25.9489 6.75138 26.1785C6.67953 26.3482 6.60856 26.5188 6.53745 26.6898C6.4872 26.8106 6.43688 26.9316 6.38611 27.0526C6.30929 27.2353 6.23693 27.4168 6.17562 27.598Z"/>
</mask>
<path fill-rule="evenodd" clip-rule="evenodd" d="M6.20639 15.5141C6.54994 14.7176 7.42732 13.5322 7.69952 13.1985C7.72363 13.1667 7.7417 13.1337 7.75823 13.1035C7.77793 13.0674 7.79545 13.0354 7.81844 13.0142C7.90735 12.9056 7.99745 12.7958 8.08849 12.6848C8.99609 11.5789 9.99627 10.3601 10.8153 9.06687C10.9256 8.90318 11.013 8.72656 11.0997 8.55138C11.1106 8.52936 11.1215 8.50736 11.1324 8.48541L11.1424 8.46517C11.2361 8.27481 11.3291 8.08595 11.4004 7.88775C11.5109 7.70202 11.5924 7.51019 11.653 7.31226C11.6701 7.23937 11.6862 7.16648 11.7022 7.09378C11.7308 6.96432 11.7592 6.83546 11.7931 6.70828C11.8326 6.58582 11.8514 6.45958 11.8701 6.33342C11.879 6.27396 11.8878 6.21451 11.8988 6.15549C11.9082 6.08949 11.9195 6.02426 11.9308 5.95907C11.9515 5.84024 11.9722 5.72155 11.9807 5.5986C12.0124 5.22188 12.0071 4.83697 11.949 4.44797C11.8856 4.05897 11.7719 3.66382 11.5658 3.28506C11.3676 2.90629 11.061 2.5439 10.6964 2.24089C10.0938 1.74542 9.33272 1.40351 8.53462 1.20901C7.73652 1.01246 6.89085 0.953088 6.06104 1.03703C4.38027 1.21311 2.95321 1.94812 1.91991 2.8592C1.85094 2.92012 1.77825 2.98008 1.70519 3.04034C1.33876 3.34257 0.963228 3.65231 1.00289 4.12858V4.15724C0.997507 4.27399 1.08956 4.3247 1.18148 4.37533C1.22497 4.39928 1.26842 4.42321 1.30152 4.45411C1.53408 4.66909 1.72963 4.75713 1.89348 4.73256C2.05733 4.70594 2.18683 4.56877 2.34275 4.31899C2.40881 4.21047 2.52774 4.12039 2.64137 4.0344C2.70038 3.98774 2.76738 3.9337 2.8389 3.87601C3.07809 3.68308 3.36796 3.44926 3.57953 3.31372C3.67169 3.25117 3.76385 3.18301 3.85671 3.11434C4.08604 2.94473 4.31961 2.77199 4.5679 2.67289C4.9326 2.52548 5.31844 2.41697 5.70956 2.3535C6.09275 2.29208 6.48388 2.2757 6.86971 2.30231C7.64403 2.3535 8.38662 2.56847 8.96274 2.89605C9.301 3.08441 9.57584 3.31167 9.77933 3.57783C9.98811 3.84809 10.1335 4.16543 10.2127 4.51349C10.3766 5.20755 10.2815 6.00398 10.0225 6.75947C9.74762 7.56818 9.28779 8.35233 8.74868 9.1201C8.35752 9.67716 7.92324 10.2267 7.48317 10.7835C7.31672 10.9941 7.14944 11.2058 6.98335 11.4193C6.9227 11.4972 6.86182 11.5753 6.80082 11.6535C6.18402 12.4441 5.55536 13.2499 5.03831 14.1219C4.46748 15.0821 4.05258 16.114 3.98122 17.2277C3.97065 17.6147 4.00501 18.0283 4.16357 18.4398C4.31949 18.8452 4.59962 19.226 4.94317 19.5392C5.64085 20.1698 6.52087 20.5691 7.37711 20.8782C8.09857 21.1321 8.68261 20.9765 8.89667 20.5281C9.07853 20.1452 8.58566 19.9598 8.22571 19.8245C8.17768 19.8064 8.13202 19.7893 8.09064 19.7726C7.52246 19.5495 6.98863 19.3099 6.57108 19.0294C6.14561 18.751 5.86812 18.4418 5.73863 18.1081C5.6065 17.7826 5.62499 17.367 5.72806 16.9042L5.92626 16.2061C5.96319 16.1163 5.99853 16.0265 6.03382 15.9368C6.08944 15.7954 6.14495 15.6544 6.20639 15.5141ZM8.52558 26.7577C8.57515 26.7604 8.62994 26.7734 8.65343 26.7812C8.65982 26.7828 8.66818 26.7746 8.67489 26.768C8.67913 26.7639 8.68271 26.7604 8.68473 26.7604L8.69508 26.7663C8.77888 26.8145 8.8754 26.87 8.94304 26.9352C9.00566 26.99 9.06567 27.0761 9.08915 27.1987C9.09403 27.2182 9.10195 27.2377 9.11039 27.2585C9.11548 27.2711 9.12076 27.2841 9.12567 27.2978C9.14394 27.3318 9.15959 27.3709 9.16742 27.41C9.13446 27.4545 9.15146 27.5042 9.16912 27.5558C9.17942 27.5859 9.18994 27.6167 9.1909 27.6475C9.19351 27.7988 9.13872 27.9423 9.06044 28.0466C8.98217 28.151 8.88564 28.2162 8.78388 28.2632C8.62212 28.3441 8.37686 28.3389 8.13943 28.2476C7.98186 28.1876 7.83666 28.0917 7.71858 27.9782C7.7395 27.9297 7.75997 27.8817 7.78009 27.8346C7.8698 27.6245 7.95258 27.4306 8.03768 27.2691C8.16292 27.0134 8.29076 26.8673 8.37686 26.8047C8.41339 26.7786 8.48644 26.7551 8.52558 26.7577ZM6.17562 27.598C6.14856 27.6049 6.12482 27.6135 6.10433 27.624C5.98692 27.6814 5.96605 27.8066 6.05476 27.9632C6.09054 28.0213 6.09182 28.0909 6.09309 28.1606C6.09331 28.1722 6.09352 28.1838 6.09389 28.1954C6.10172 28.2867 6.13825 28.4041 6.1826 28.5163C6.23478 28.6207 6.28958 28.7276 6.33915 28.8007C6.41131 28.9129 6.52783 28.9917 6.636 29.0648C6.70382 29.1106 6.76835 29.1542 6.81661 29.2025C7.08796 29.4764 7.40366 29.7165 7.78198 29.8782C8.15509 30.0374 8.60386 30.1157 9.05784 30.0217C9.58488 29.9148 10.0676 29.5782 10.352 29.1686C10.6442 28.7589 10.7903 28.3102 10.8581 27.864C10.9207 27.3892 10.8894 26.8934 10.699 26.416C10.5059 25.9411 10.1197 25.508 9.67359 25.2862C9.42311 25.1584 9.15437 25.0644 8.86476 25.0227C8.57776 24.9809 8.26206 24.994 7.97245 25.0853C7.68806 25.1636 7.41932 25.328 7.20798 25.521C6.99403 25.7167 6.84792 25.9489 6.75138 26.1785C6.67953 26.3482 6.60856 26.5188 6.53745 26.6898C6.4872 26.8106 6.43688 26.9316 6.38611 27.0526C6.30929 27.2353 6.23693 27.4168 6.17562 27.598Z" fill="#F94C4C"/>
<path d="M7.69952 13.1985L8.47444 13.8305L8.48544 13.8171L8.49596 13.8032L7.69952 13.1985ZM6.20639 15.5141L7.12241 15.9152L7.1246 15.9102L6.20639 15.5141ZM7.75823 13.1035L6.88082 12.6237L6.88081 12.6237L7.75823 13.1035ZM7.81844 13.0142L8.49549 13.7502L8.54754 13.7023L8.59233 13.6475L7.81844 13.0142ZM8.08849 12.6848L8.86152 13.3192L8.86152 13.3192L8.08849 12.6848ZM10.8153 9.06687L9.98607 8.50792L9.97809 8.51976L9.97045 8.53182L10.8153 9.06687ZM11.0997 8.55138L11.996 8.99488L11.996 8.99488L11.0997 8.55138ZM11.1324 8.48541L12.0277 8.93083L12.0295 8.92722L11.1324 8.48541ZM11.1424 8.46517L10.2453 8.02333L10.2453 8.02336L11.1424 8.46517ZM11.4004 7.88775L10.5409 7.37669L10.4919 7.4591L10.4594 7.54932L11.4004 7.88775ZM11.653 7.31226L12.6092 7.60492L12.619 7.57311L12.6266 7.54073L11.653 7.31226ZM11.7022 7.09378L12.6788 7.30923L12.6788 7.30922L11.7022 7.09378ZM11.7931 6.70828L10.8414 6.40118L10.8334 6.42595L10.8267 6.4511L11.7931 6.70828ZM11.8701 6.33342L10.881 6.18639V6.18639L11.8701 6.33342ZM11.8988 6.15549L12.8819 6.33877L12.8858 6.31743L12.8889 6.29593L11.8988 6.15549ZM11.9308 5.95907L10.9457 5.78762V5.78763L11.9308 5.95907ZM11.9807 5.5986L10.9842 5.51472L10.9836 5.52204L10.9831 5.52937L11.9807 5.5986ZM11.949 4.44797L12.9381 4.30014L12.936 4.28705L11.949 4.44797ZM11.5658 3.28506L10.6798 3.7487L10.6836 3.75592L10.6875 3.76307L11.5658 3.28506ZM10.6964 2.24089L11.3354 1.47173L11.3315 1.4685L10.6964 2.24089ZM8.53462 1.20901L8.29549 2.18L8.29784 2.18058L8.53462 1.20901ZM6.06104 1.03703L5.96039 0.0421019L5.95685 0.042473L6.06104 1.03703ZM1.91991 2.8592L1.25855 2.10913L1.2579 2.10971L1.91991 2.8592ZM1.70519 3.04034L2.34149 3.81178L2.34149 3.81178L1.70519 3.04034ZM1.00289 4.12858H2.00289V4.08701L1.99944 4.04559L1.00289 4.12858ZM1.00289 4.15724L2.00183 4.20329L2.00289 4.18028V4.15724H1.00289ZM1.18148 4.37533L1.66394 3.4994L1.66393 3.4994L1.18148 4.37533ZM1.30152 4.45411L0.619068 5.18506L0.622716 5.18843L1.30152 4.45411ZM1.89348 4.73256L2.04178 5.72157L2.05382 5.71962L1.89348 4.73256ZM2.34275 4.31899L3.19109 4.84855L3.19688 4.83903L2.34275 4.31899ZM2.64137 4.0344L3.24479 4.83182L3.25327 4.82541L3.26161 4.81881L2.64137 4.0344ZM2.8389 3.87601L2.21107 3.09766L2.21107 3.09766L2.8389 3.87601ZM3.57953 3.31372L4.11897 4.15575L4.13013 4.1486L4.1411 4.14115L3.57953 3.31372ZM3.85671 3.11434L3.26208 2.31034L3.85671 3.11434ZM4.5679 2.67289L4.93858 3.60166L4.94265 3.60002L4.5679 2.67289ZM5.70956 2.3535L5.55129 1.3661L5.54938 1.36641L5.70956 2.3535ZM6.86971 2.30231L6.80089 3.29995L6.80375 3.30014L6.86971 2.30231ZM8.96274 2.89605L8.46843 3.76539L8.47624 3.76974L8.96274 2.89605ZM9.77933 3.57783L8.9849 4.1852L8.98796 4.18917L9.77933 3.57783ZM10.2127 4.51349L9.23768 4.73559L9.23949 4.74324L10.2127 4.51349ZM10.0225 6.75947L9.0765 6.43518L9.07565 6.43769L10.0225 6.75947ZM8.74868 9.1201L9.56707 9.69476H9.56707L8.74868 9.1201ZM7.48317 10.7835L8.26774 11.4035L7.48317 10.7835ZM6.98335 11.4193L7.77256 12.0334L7.77267 12.0333L6.98335 11.4193ZM6.80082 11.6535L7.58927 12.2686L7.58927 12.2686L6.80082 11.6535ZM5.03831 14.1219L5.89789 14.6329L5.89845 14.6319L5.03831 14.1219ZM3.98122 17.2277L2.98327 17.1638L2.9821 17.1821L2.9816 17.2004L3.98122 17.2277ZM4.16357 18.4398L5.09691 18.0808L5.0967 18.0802L4.16357 18.4398ZM4.94317 19.5392L4.2694 20.2782L4.27263 20.2811L4.94317 19.5392ZM7.37711 20.8782L7.03749 21.8188L7.04517 21.8215L7.37711 20.8782ZM8.89667 20.5281L9.7991 20.9589L9.79998 20.9571L8.89667 20.5281ZM8.22571 19.8245L8.57766 18.8885L8.57766 18.8885L8.22571 19.8245ZM8.09064 19.7726L8.46359 18.8447L8.45623 18.8419L8.09064 19.7726ZM6.57108 19.0294L7.12875 18.1993L7.11867 18.1927L6.57108 19.0294ZM5.73863 18.1081L6.67091 17.7464L6.66811 17.7392L6.66521 17.732L5.73863 18.1081ZM5.72806 16.9042L4.76607 16.6311L4.75823 16.6588L4.75198 16.6868L5.72806 16.9042ZM5.92626 16.2061L5.00141 15.8258L4.9798 15.8783L4.96428 15.933L5.92626 16.2061ZM6.03382 15.9368L5.10327 15.5706L5.10326 15.5706L6.03382 15.9368ZM8.65343 26.7812L8.33718 27.7299L8.37356 27.742L8.41077 27.7513L8.65343 26.7812ZM8.52558 26.7577L8.45905 27.7556L8.47302 27.7564L8.52558 26.7577ZM8.67489 26.768L7.97436 26.0544L7.97433 26.0544L8.67489 26.768ZM8.68473 26.7604L9.18342 25.8936L8.95187 25.7604H8.68473V26.7604ZM8.69508 26.7663L8.1964 27.6331L8.19646 27.6331L8.69508 26.7663ZM8.94304 26.9352L8.2494 27.6555L8.26659 27.672L8.28454 27.6878L8.94304 26.9352ZM9.08915 27.1987L8.107 27.3868L8.11224 27.4142L8.11901 27.4412L9.08915 27.1987ZM9.11039 27.2585L8.18377 27.6345L8.18379 27.6346L9.11039 27.2585ZM9.12567 27.2978L8.18392 27.6342L8.20935 27.7054L8.2452 27.7719L9.12567 27.2978ZM9.16742 27.41L9.97098 28.0052L10.235 27.6488L10.148 27.2139L9.16742 27.41ZM9.16912 27.5558L8.22295 27.8795L8.22295 27.8795L9.16912 27.5558ZM9.1909 27.6475L10.1909 27.6302L10.1904 27.6162L9.1909 27.6475ZM9.06044 28.0466L8.26045 27.4466L8.26044 27.4466L9.06044 28.0466ZM8.78388 28.2632L8.36483 27.3552L8.35064 27.3618L8.33666 27.3688L8.78388 28.2632ZM8.13943 28.2476L8.49841 27.3142L8.49501 27.3129L8.13943 28.2476ZM7.71858 27.9782L6.80016 27.5826L6.52599 28.2191L7.02573 28.6993L7.71858 27.9782ZM7.78009 27.8346L6.86042 27.4419L6.86042 27.4419L7.78009 27.8346ZM8.03768 27.2691L8.92239 27.7353L8.92926 27.7222L8.93574 27.709L8.03768 27.2691ZM8.37686 26.8047L7.79558 25.991L7.78869 25.996L8.37686 26.8047ZM6.10433 27.624L6.54354 28.5224L6.55151 28.5185L6.55942 28.5144L6.10433 27.624ZM6.17562 27.598L6.42485 28.5664L6.94928 28.4315L7.12286 27.9185L6.17562 27.598ZM6.05476 27.9632L5.18473 28.4562L5.19364 28.4719L5.2031 28.4873L6.05476 27.9632ZM6.09309 28.1606L5.09326 28.1789V28.1789L6.09309 28.1606ZM6.09389 28.1954L5.09441 28.2276L5.09527 28.2542L5.09755 28.2808L6.09389 28.1954ZM6.1826 28.5163L5.25264 28.8839L5.26867 28.9245L5.28817 28.9635L6.1826 28.5163ZM6.33915 28.8007L7.18033 28.2599L7.1736 28.2495L7.16662 28.2392L6.33915 28.8007ZM6.636 29.0648L6.07607 29.8933L6.07608 29.8933L6.636 29.0648ZM6.81661 29.2025L7.5271 28.4988L7.52373 28.4954L6.81661 29.2025ZM7.78198 29.8782L7.38883 30.7977L7.38962 30.7981L7.78198 29.8782ZM9.05784 30.0217L8.85892 29.0417L8.85524 29.0425L9.05784 30.0217ZM10.352 29.1686L9.53781 28.5878L9.53052 28.5983L10.352 29.1686ZM10.8581 27.864L11.8468 28.0143L11.8482 28.0046L11.8495 27.9947L10.8581 27.864ZM10.699 26.416L11.6278 26.0454L11.6253 26.0393L10.699 26.416ZM9.67359 25.2862L9.21894 26.1769L9.22847 26.1817L9.67359 25.2862ZM8.86476 25.0227L8.72082 26.0123L8.72209 26.0125L8.86476 25.0227ZM7.97245 25.0853L8.23781 26.0495L8.25559 26.0446L8.27318 26.039L7.97245 25.0853ZM7.20798 25.521L6.53349 24.7827L6.53307 24.7831L7.20798 25.521ZM6.75138 26.1785L7.67224 26.5684L7.67322 26.5661L6.75138 26.1785ZM6.53745 26.6898L5.61413 26.3058L5.61413 26.3058L6.53745 26.6898ZM6.38611 27.0526L7.30791 27.4403L7.30821 27.4395L6.38611 27.0526ZM6.9246 12.5664C6.64348 12.9111 5.69003 14.1864 5.28818 15.118L7.1246 15.9102C7.40985 15.2489 8.21116 14.1533 8.47444 13.8305L6.9246 12.5664ZM6.88081 12.6237C6.87632 12.6319 6.87452 12.6352 6.87304 12.6379C6.87184 12.64 6.87235 12.639 6.87402 12.6362C6.87731 12.6307 6.88712 12.6148 6.90308 12.5938L8.49596 13.8032C8.57174 13.7034 8.62283 13.6066 8.63564 13.5832L6.88081 12.6237ZM7.1414 12.2783C7.04171 12.37 6.97832 12.462 6.94521 12.5136C6.91314 12.5636 6.88671 12.6129 6.88082 12.6237L8.63564 13.5832C8.64945 13.5579 8.64163 13.5732 8.629 13.5929C8.61532 13.6142 8.57218 13.6796 8.49549 13.7502L7.1414 12.2783ZM7.31547 12.0505C7.2245 12.1613 7.13396 12.2717 7.04456 12.3809L8.59233 13.6475C8.68073 13.5395 8.77041 13.4303 8.86152 13.3192L7.31547 12.0505ZM9.97045 8.53182C9.18976 9.76454 8.22956 10.9366 7.31546 12.0505L8.86152 13.3192C9.76261 12.2212 10.8028 10.9556 11.6601 9.60191L9.97045 8.53182ZM10.2034 8.10787C10.1118 8.29298 10.0528 8.4089 9.98607 8.50792L11.6445 9.62581C11.7984 9.39745 11.9142 9.16015 11.996 8.99488L10.2034 8.10787ZM10.2371 8.03999C10.2256 8.06306 10.2142 8.08603 10.2034 8.10788L11.996 8.99488C12.007 8.97268 12.0174 8.95165 12.0277 8.93082L10.2371 8.03999ZM10.2453 8.02336L10.2353 8.0436L12.0295 8.92722L12.0395 8.90698L10.2453 8.02336ZM10.4594 7.54932C10.4104 7.68572 10.3433 7.8244 10.2453 8.02333L12.0395 8.90701C12.129 8.72523 12.2479 8.48618 12.3414 8.22618L10.4594 7.54932ZM10.6968 7.0196C10.6572 7.14901 10.6065 7.26638 10.5409 7.37669L12.26 8.39881C12.4152 8.13766 12.5277 7.87137 12.6092 7.60492L10.6968 7.0196ZM10.7257 6.87833C10.7094 6.95211 10.6948 7.01848 10.6795 7.08379L12.6266 7.54073C12.6454 7.46026 12.663 7.38085 12.6788 7.30923L10.7257 6.87833ZM10.8267 6.4511C10.7864 6.60252 10.7535 6.75245 10.7257 6.87834L12.6788 7.30922C12.7081 7.17618 12.732 7.0684 12.7594 6.96547L10.8267 6.4511ZM10.881 6.18639C10.8602 6.32589 10.8514 6.37015 10.8414 6.40118L12.7448 7.01538C12.8138 6.8015 12.8425 6.59327 12.8592 6.48045L10.881 6.18639ZM10.9157 5.97221C10.9008 6.05232 10.8894 6.12998 10.881 6.18639L12.8592 6.48045C12.8685 6.41793 12.8748 6.37671 12.8819 6.33877L10.9157 5.97221ZM10.9457 5.78763C10.9347 5.85031 10.9206 5.93094 10.9087 6.01504L12.8889 6.29593C12.8957 6.24803 12.9043 6.1982 12.916 6.13051L10.9457 5.78763ZM10.9831 5.52937C10.9787 5.59261 10.9677 5.66112 10.9457 5.78762L12.916 6.13051C12.9354 6.01936 12.9656 5.8505 12.9783 5.66783L10.9831 5.52937ZM10.96 4.59579C11.0051 4.89773 11.0104 5.20405 10.9842 5.51472L12.9772 5.68248C13.0145 5.23971 13.0092 4.77622 12.938 4.30015L10.96 4.59579ZM10.6875 3.76307C10.8269 4.01927 10.9118 4.3007 10.962 4.60889L12.936 4.28705C12.8594 3.81723 12.717 3.30838 12.4442 2.80704L10.6875 3.76307ZM10.0573 3.01004C10.3383 3.24353 10.5529 3.50622 10.6798 3.7487L12.4518 2.82141C12.1823 2.30636 11.7838 1.84428 11.3354 1.47174L10.0573 3.01004ZM8.29784 2.18058C8.98378 2.34774 9.59905 2.63325 10.0612 3.01329L11.3315 1.4685C10.5886 0.857599 9.68165 0.459281 8.77139 0.237446L8.29784 2.18058ZM6.16168 2.03195C6.87869 1.95942 7.60941 2.01104 8.29549 2.18L8.77374 0.238022C7.86362 0.0138859 6.903 -0.0532451 5.96039 0.0421082L6.16168 2.03195ZM2.58127 3.60927C3.47709 2.81941 4.71412 2.1836 6.16522 2.03159L5.95685 0.042473C4.04642 0.242607 2.42933 1.07683 1.25855 2.10913L2.58127 3.60927ZM2.34149 3.81178C2.41212 3.75353 2.49809 3.68274 2.58193 3.60869L1.2579 2.10971C1.20379 2.1575 1.14438 2.20663 1.0689 2.26889L2.34149 3.81178ZM1.99944 4.04559C2.00161 4.07159 1.99755 4.10388 1.98794 4.13128C1.97999 4.15391 1.97491 4.15417 1.99371 4.12978C2.01365 4.10391 2.04905 4.06489 2.11121 4.00788C2.17464 3.9497 2.24619 3.89039 2.34149 3.81178L1.0689 2.26889C0.905957 2.40328 0.626132 2.62803 0.409807 2.90861C0.169866 3.21982 -0.0398141 3.65735 0.00633901 4.21157L1.99944 4.04559ZM2.00289 4.15724V4.12858H0.00288951V4.15724H2.00289ZM1.66393 3.4994C1.63561 3.4838 1.64144 3.4866 1.65184 3.49324C1.66406 3.50103 1.70829 3.52982 1.76036 3.58154C1.81565 3.63644 1.88511 3.72243 1.9363 3.84319C1.98894 3.96738 2.00694 4.0924 2.00183 4.20329L0.00395036 4.11119C-0.0136631 4.49327 0.148386 4.79937 0.351034 5.00062C0.503204 5.15175 0.683418 5.24265 0.699034 5.25125L1.66393 3.4994ZM1.98396 3.72317C1.84271 3.5913 1.68106 3.50884 1.66394 3.4994L0.699032 5.25125C0.710964 5.25782 0.715636 5.26041 0.719193 5.26244C0.722155 5.26413 0.719381 5.26262 0.713387 5.25885C0.703579 5.25269 0.665498 5.22839 0.619076 5.18505L1.98396 3.72317ZM1.74519 3.74361C1.90382 3.71983 2.01381 3.76193 2.04518 3.77653C2.07111 3.7886 2.04965 3.78388 1.98032 3.71979L0.622716 5.18843C0.908674 5.45277 1.40677 5.81672 2.04177 5.7215L1.74519 3.74361ZM1.49445 3.78946C1.46584 3.8353 1.44564 3.8643 1.43239 3.88181C1.41891 3.89963 1.41867 3.89746 1.43173 3.88504C1.4455 3.87193 1.47863 3.84304 1.53226 3.81381C1.5885 3.78315 1.6568 3.7579 1.73314 3.7455L2.05382 5.71962C2.70405 5.61399 3.04218 5.08697 3.19104 4.84851L1.49445 3.78946ZM2.03795 3.23698C1.96799 3.28992 1.67346 3.49533 1.48861 3.79894L3.19688 4.83903C3.17648 4.87255 3.15839 4.89428 3.14945 4.90436C3.14051 4.91444 3.1367 4.91736 3.14208 4.91254C3.14741 4.90775 3.15757 4.89909 3.17572 4.88476C3.19452 4.86992 3.21512 4.85428 3.24479 4.83182L2.03795 3.23698ZM2.21107 3.09766C2.13848 3.15621 2.07557 3.20695 2.02114 3.24998L3.26161 4.81881C3.3252 4.76853 3.39627 4.71119 3.46673 4.65436L2.21107 3.09766ZM3.0401 2.47169C2.77183 2.64356 2.43303 2.91862 2.21107 3.09766L3.46673 4.65436C3.72314 4.44753 3.96409 4.25497 4.11897 4.15575L3.0401 2.47169ZM3.26208 2.31034C3.16613 2.3813 3.09044 2.43711 3.01797 2.48629L4.1411 4.14115C4.25295 4.06524 4.36158 3.98472 4.45134 3.91834L3.26208 2.31034ZM4.19723 1.74413C3.80662 1.90002 3.46733 2.15854 3.26208 2.31034L4.45134 3.91834C4.70474 3.73092 4.83259 3.64395 4.93858 3.60165L4.19723 1.74413ZM5.54938 1.36641C5.08389 1.44195 4.62612 1.57075 4.19315 1.74576L4.94265 3.60002C5.23907 3.4802 5.55299 3.39199 5.86974 3.34059L5.54938 1.36641ZM6.93853 1.30468C6.47889 1.27298 6.01153 1.29233 5.55129 1.3661L5.86783 3.34089C6.17398 3.29182 6.48887 3.27842 6.80089 3.29994L6.93853 1.30468ZM9.45702 2.02676C8.73388 1.61557 7.84139 1.36436 6.93567 1.30449L6.80375 3.30014C7.44666 3.34263 8.03937 3.52138 8.46845 3.76535L9.45702 2.02676ZM10.5738 2.97047C10.2723 2.57614 9.8842 2.26458 9.44923 2.02237L8.47624 3.76974C8.7178 3.90425 8.87941 4.0472 8.98491 4.1852L10.5738 2.97047ZM11.1878 4.29139C11.0788 3.81285 10.8749 3.36027 10.5707 2.96649L8.98796 4.18917C9.10131 4.3359 9.18816 4.51802 9.23771 4.73558L11.1878 4.29139ZM10.9684 7.08375C11.2671 6.21249 11.4062 5.2166 11.186 4.28373L9.23949 4.74324C9.34696 5.1985 9.2958 5.79547 9.0765 6.43518L10.9684 7.08375ZM9.56707 9.69476C10.1314 8.89104 10.6509 8.01806 10.9693 7.08124L9.07565 6.43769C8.84434 7.11831 8.44415 7.81362 7.93028 8.54544L9.56707 9.69476ZM8.26774 11.4035C8.70444 10.851 9.1568 10.279 9.56707 9.69476L7.93028 8.54544C7.55824 9.07527 7.14204 9.60237 6.69861 10.1635L8.26774 11.4035ZM7.77267 12.0333C7.936 11.8233 8.10089 11.6147 8.26774 11.4035L6.69861 10.1635C6.53254 10.3736 6.36287 10.5883 6.19403 10.8053L7.77267 12.0333ZM7.58927 12.2686C7.6502 12.1905 7.71147 12.1119 7.77256 12.0334L6.19413 10.8052C6.13393 10.8826 6.07344 10.9601 6.01238 11.0384L7.58927 12.2686ZM5.89845 14.6319C6.37756 13.8239 6.96581 13.0677 7.58927 12.2686L6.01238 11.0384C5.40224 11.8204 4.73315 12.6759 4.17816 13.6118L5.89845 14.6319ZM4.97918 17.2917C5.03708 16.3878 5.37622 15.5104 5.89789 14.6329L4.17872 13.6109C3.55875 14.6538 3.06807 15.8401 2.98327 17.1638L4.97918 17.2917ZM5.0967 18.0802C5.00234 17.8353 4.97235 17.566 4.98085 17.255L2.9816 17.2004C2.96895 17.6634 3.00768 18.2212 3.23044 18.7993L5.0967 18.0802ZM5.61694 18.8003C5.36498 18.5706 5.18671 18.3143 5.09691 18.0808L3.23023 18.7988C3.45227 19.3761 3.83426 19.8814 4.26941 20.2782L5.61694 18.8003ZM7.71671 19.9377C6.89821 19.6421 6.16546 19.2961 5.61371 18.7974L4.27263 20.2811C5.11624 21.0436 6.14353 21.496 7.03751 21.8188L7.71671 19.9377ZM7.99423 20.0973C8.00902 20.0663 8.03341 20.0359 8.06208 20.014C8.08896 19.9934 8.10446 19.9916 8.09342 19.9942C8.06472 20.0011 7.93946 20.016 7.70905 19.9349L7.04517 21.8215C7.95993 22.1434 9.25439 22.0999 9.7991 20.9589L7.99423 20.0973ZM7.87375 20.7605C7.96852 20.7961 8.03684 20.8222 8.09681 20.8492C8.15964 20.8776 8.17142 20.8889 8.15737 20.8782C8.14747 20.8706 8.04104 20.7897 7.97769 20.6127C7.94423 20.5193 7.93002 20.4176 7.93775 20.3169C7.94527 20.219 7.97166 20.1448 7.99336 20.0991L9.79998 20.9571C9.9423 20.6574 9.98917 20.2976 9.86066 19.9386C9.74479 19.6149 9.52675 19.4074 9.37137 19.2888C9.08482 19.0699 8.71653 18.9407 8.57766 18.8885L7.87375 20.7605ZM7.71771 20.7005C7.77153 20.7221 7.8283 20.7434 7.87375 20.7605L8.57766 18.8885C8.52706 18.8694 8.49251 18.8564 8.46358 18.8448L7.71771 20.7005ZM6.01346 19.8595C6.52502 20.2032 7.1426 20.4746 7.72506 20.7034L8.45623 18.8419C7.90232 18.6243 7.45225 18.4167 7.12871 18.1993L6.01346 19.8595ZM4.80636 18.4699C5.03607 19.0619 5.49084 19.5176 6.0235 19.8662L7.11867 18.1927C6.80037 17.9844 6.70018 17.8218 6.67091 17.7464L4.80636 18.4699ZM4.75198 16.6868C4.63524 17.2109 4.56383 17.8727 4.81205 18.4842L6.66521 17.732C6.64916 17.6925 6.61474 17.523 6.70414 17.1217L4.75198 16.6868ZM4.96428 15.933L4.76607 16.6311L6.69004 17.1774L6.88825 16.4792L4.96428 15.933ZM5.10326 15.5706C5.06752 15.6615 5.03496 15.7442 5.00141 15.8258L6.85112 16.5864C6.89143 16.4884 6.92953 16.3915 6.96437 16.3029L5.10326 15.5706ZM5.29038 15.1129C5.22009 15.2734 5.15778 15.4321 5.10327 15.5706L6.96437 16.3029C7.0211 16.1588 7.06981 16.0353 7.1224 15.9152L5.29038 15.1129ZM8.96967 25.8326C8.87447 25.8008 8.73066 25.7672 8.57814 25.7591L8.47302 27.7564C8.43555 27.7544 8.41157 27.7498 8.40318 27.7481C8.39709 27.7469 8.39019 27.7454 8.38193 27.7432C8.37534 27.7415 8.35954 27.7374 8.33718 27.7299L8.96967 25.8326ZM7.97433 26.0544C7.95743 26.071 8.0102 26.0161 8.08102 25.9653C8.11962 25.9375 8.20137 25.8828 8.31813 25.8405C8.43694 25.7975 8.64594 25.7486 8.89608 25.8111L8.41077 27.7513C8.88558 27.8701 9.22565 27.6055 9.24707 27.5902C9.29342 27.5569 9.32757 27.5265 9.34444 27.5111C9.3539 27.5024 9.36157 27.4951 9.36647 27.4904C9.37109 27.4859 9.3751 27.482 9.37546 27.4816L7.97433 26.0544ZM8.68473 25.7604C8.42124 25.7604 8.23584 25.8645 8.1842 25.8942C8.11182 25.9359 8.06071 25.9775 8.04012 25.9947C8.01558 26.0152 7.9971 26.0326 7.98934 26.0399C7.98471 26.0443 7.98095 26.048 7.97869 26.0502C7.97655 26.0523 7.97462 26.0542 7.97436 26.0544L9.37543 27.4817C9.38773 27.4696 9.35748 27.5003 9.32117 27.5306C9.30226 27.5463 9.25268 27.5869 9.18168 27.6277C9.14459 27.6491 9.08712 27.679 9.01278 27.7049C8.9399 27.7303 8.82639 27.7604 8.68473 27.7604V25.7604ZM9.19376 25.8995L9.18342 25.8936L8.18605 27.6271L8.1964 27.6331L9.19376 25.8995ZM9.63668 26.2149C9.46317 26.0478 9.24914 25.9314 9.1937 25.8995L8.19646 27.6331C8.21829 27.6457 8.23407 27.6548 8.249 27.6637C8.26344 27.6722 8.27297 27.6782 8.27933 27.6823C8.28577 27.6865 8.28602 27.687 8.28203 27.6839C8.27828 27.6811 8.26621 27.6717 8.2494 27.6555L9.63668 26.2149ZM10.0713 27.0106C10.0027 26.6525 9.81888 26.3728 9.60154 26.1826L8.28454 27.6878C8.19244 27.6072 8.1286 27.4996 8.107 27.3868L10.0713 27.0106ZM10.037 26.8825C10.0359 26.8798 10.0352 26.8781 10.0346 26.8766C10.0344 26.876 10.0342 26.8755 10.034 26.8751C10.0339 26.8748 10.0338 26.8747 10.0338 26.8747C10.0338 26.8747 10.0339 26.8748 10.034 26.8752C10.0342 26.8755 10.0344 26.8761 10.0347 26.8768C10.0352 26.8782 10.036 26.8804 10.0371 26.8832C10.0408 26.8934 10.0502 26.9197 10.0593 26.9562L8.11901 27.4412C8.14408 27.5415 8.18113 27.628 8.18377 27.6345L10.037 26.8825ZM10.0674 26.9615C10.0543 26.9247 10.0411 26.8925 10.037 26.8825L8.18379 27.6346L8.18392 27.6342L10.0674 26.9615ZM10.148 27.2139C10.1165 27.0566 10.06 26.9237 10.0061 26.8237L8.2452 27.7719C8.23515 27.7533 8.22497 27.7317 8.21547 27.7066C8.2061 27.6819 8.19527 27.6483 8.18684 27.6062L10.148 27.2139ZM10.1153 27.2322C10.0972 27.1794 10.1338 27.2702 10.1447 27.385C10.1516 27.4566 10.1521 27.5573 10.1246 27.6739C10.0962 27.7944 10.0435 27.9074 9.97098 28.0052L8.36385 26.8148C8.16851 27.0785 8.13361 27.3641 8.15383 27.5755C8.16275 27.6687 8.1816 27.744 8.19441 27.7893C8.20665 27.8327 8.22022 27.8715 8.22295 27.8795L10.1153 27.2322ZM10.1904 27.6162C10.1868 27.4998 10.166 27.4052 10.1504 27.3462C10.1357 27.2904 10.1184 27.2412 10.1153 27.2322L8.22295 27.8795C8.23015 27.9005 8.22327 27.8818 8.21663 27.8566C8.20913 27.8282 8.19407 27.7643 8.19139 27.6787L10.1904 27.6162ZM9.86044 28.6467C10.0584 28.3827 10.1976 28.0256 10.1908 27.6302L8.19105 27.6647C8.19019 27.6148 8.19874 27.5735 8.20962 27.5416C8.22025 27.5105 8.23624 27.4789 8.26045 27.4466L9.86044 28.6467ZM9.20293 29.1712C9.41136 29.075 9.65724 28.9176 9.86045 28.6466L8.26044 27.4466C8.28107 27.4191 8.30513 27.396 8.32829 27.3785C8.35015 27.362 8.36514 27.3551 8.36483 27.3552L9.20293 29.1712ZM7.78045 29.1809C8.17479 29.3326 8.73223 29.4071 9.2311 29.1576L8.33666 27.3688C8.38959 27.3423 8.43322 27.3307 8.46047 27.3255C8.4881 27.3202 8.50626 27.3201 8.51348 27.3202C8.52603 27.3205 8.51859 27.322 8.49841 27.3142L7.78045 29.1809ZM7.02573 28.6993C7.23217 28.8977 7.49 29.0704 7.78386 29.1822L8.49501 27.3129C8.47372 27.3048 8.44115 27.2857 8.41143 27.2571L7.02573 28.6993ZM6.86042 27.4419C6.84022 27.4892 6.82036 27.5357 6.80016 27.5826L8.63701 28.3738C8.65865 28.3236 8.67973 28.2742 8.69976 28.2273L6.86042 27.4419ZM7.15297 26.803C7.04501 27.0079 6.94545 27.2428 6.86042 27.4419L8.69976 28.2273C8.79415 28.0063 8.86016 27.8534 8.92239 27.7353L7.15297 26.803ZM7.78869 25.996C7.52467 26.188 7.30638 26.4888 7.13962 26.8293L8.93574 27.709C8.97282 27.6333 9.00237 27.5902 9.01621 27.5721C9.02303 27.5632 9.02415 27.5628 9.01827 27.5688C9.01324 27.5739 8.99597 27.591 8.96503 27.6135L7.78869 25.996ZM8.5921 25.76C8.38772 25.7463 8.21913 25.7946 8.14749 25.8174C8.06322 25.8442 7.92909 25.8956 7.7956 25.991L8.95812 27.6184C8.90213 27.6584 8.85523 27.6819 8.83001 27.6935C8.80164 27.7067 8.776 27.7162 8.75299 27.7235C8.73047 27.7307 8.7001 27.739 8.66192 27.7456C8.6306 27.751 8.55704 27.7621 8.45906 27.7555L8.5921 25.76ZM6.55942 28.5144C6.49933 28.5451 6.45062 28.5598 6.42485 28.5664L5.92639 26.6295C5.84651 26.6501 5.75031 26.6819 5.64924 26.7335L6.55942 28.5144ZM6.92478 27.4701C6.94311 27.5025 7.02786 27.663 6.99094 27.9064C6.94582 28.2038 6.75041 28.4212 6.54354 28.5224L5.66513 26.7256C5.34084 26.8841 5.07629 27.1928 5.01356 27.6064C4.95903 27.9659 5.0777 28.2673 5.18473 28.4562L6.92478 27.4701ZM7.09292 28.1423C7.09273 28.1315 7.11027 27.7703 6.90641 27.4391L5.2031 28.4873C5.12844 28.3659 5.10545 28.2567 5.09769 28.2043C5.09151 28.1627 5.09239 28.1317 5.09326 28.1789L7.09292 28.1423ZM7.09337 28.1631C7.09326 28.1597 7.09316 28.155 7.09292 28.1422L5.09326 28.1789C5.09345 28.1894 5.09378 28.2079 5.09441 28.2276L7.09337 28.1631ZM7.11256 28.1486C7.10608 28.1322 7.10052 28.1173 7.09592 28.104C7.09128 28.0906 7.08809 28.0804 7.08607 28.0733C7.08398 28.066 7.08386 28.0646 7.08467 28.0685C7.08537 28.0719 7.08822 28.0864 7.09024 28.11L5.09755 28.2808C5.11823 28.5221 5.19977 28.7502 5.25264 28.8839L7.11256 28.1486ZM7.16662 28.2392C7.16936 28.2432 7.16164 28.2319 7.14175 28.1951C7.12328 28.1609 7.10244 28.1199 7.07703 28.0691L5.28817 28.9635C5.3339 29.0549 5.41803 29.2242 5.51167 29.3622L7.16662 28.2392ZM7.19593 28.2362C7.182 28.2268 7.1709 28.2193 7.1602 28.212C7.14977 28.2048 7.14138 28.199 7.13424 28.1939C7.11957 28.1835 7.11355 28.1786 7.11246 28.1777C7.11152 28.1769 7.11891 28.1829 7.13074 28.1955C7.14281 28.2084 7.16094 28.2298 7.18033 28.2599L5.49797 29.3414C5.70064 29.6567 6.00318 29.8441 6.07607 29.8933L7.19593 28.2362ZM7.52373 28.4954C7.39407 28.3657 7.24146 28.267 7.19592 28.2362L6.07608 29.8933C6.09381 29.9053 6.10628 29.9137 6.11771 29.9216C6.12874 29.9293 6.13523 29.9339 6.139 29.9367C6.14274 29.9395 6.14151 29.9387 6.13702 29.935C6.13255 29.9312 6.12265 29.9227 6.1095 29.9096L7.52373 28.4954ZM8.17514 28.9588C7.94314 28.8596 7.73142 28.7051 7.52709 28.4988L6.10613 29.9062C6.4445 30.2478 6.86419 30.5734 7.38883 30.7977L8.17514 28.9588ZM8.85524 29.0425C8.63796 29.0874 8.39783 29.0538 8.17435 28.9584L7.38962 30.7981C7.91234 31.021 8.56976 31.1439 9.26045 31.001L8.85524 29.0425ZM9.53052 28.5983C9.38652 28.8057 9.12234 28.9883 8.85893 29.0417L9.25676 31.0018C10.0474 30.8413 10.7486 30.3507 11.1734 29.7389L9.53052 28.5983ZM9.86949 27.7137C9.81888 28.0465 9.71717 28.3365 9.53787 28.5878L11.166 29.7493C11.5712 29.1814 11.7617 28.5738 11.8468 28.0143L9.86949 27.7137ZM9.77014 26.7865C9.88432 27.0727 9.91197 27.39 9.86671 27.7333L11.8495 27.9947C11.9295 27.3883 11.8945 26.7141 11.6278 26.0454L9.77014 26.7865ZM9.22847 26.1817C9.4397 26.2867 9.6641 26.5257 9.77261 26.7926L11.6253 26.0393C11.3477 25.3565 10.7998 24.7293 10.1187 24.3907L9.22847 26.1817ZM8.72209 26.0125C8.88659 26.0362 9.0504 26.0909 9.21897 26.1769L10.1282 24.3955C9.79583 24.2259 9.42215 24.0927 9.00743 24.0329L8.72209 26.0125ZM8.27318 26.039C8.39666 26.0001 8.55761 25.9885 8.72082 26.0123L9.0087 24.0331C8.59792 23.9734 8.12746 23.9879 7.67173 24.1316L8.27318 26.039ZM7.88247 26.2593C8.0002 26.1518 8.13318 26.0783 8.23781 26.0495L7.70709 24.1212C7.24294 24.2489 6.83843 24.5042 6.53349 24.7827L7.88247 26.2593ZM7.67322 26.5661C7.72397 26.4454 7.79352 26.3407 7.88289 26.2589L6.53307 24.7831C6.19455 25.0928 5.97187 25.4525 5.82955 25.7909L7.67322 26.5661ZM7.46076 27.0739C7.53208 26.9024 7.60183 26.7347 7.67224 26.5684L5.83053 25.7886C5.75723 25.9617 5.68504 26.1353 5.61413 26.3058L7.46076 27.0739ZM7.30821 27.4395C7.35969 27.3169 7.41062 27.1944 7.46076 27.0739L5.61413 26.3058C5.56379 26.4268 5.51407 26.5463 5.46401 26.6656L7.30821 27.4395ZM7.12286 27.9185C7.17317 27.7698 7.23522 27.6131 7.30791 27.4403L5.46431 26.6649C5.38335 26.8574 5.30069 27.0638 5.22839 27.2774L7.12286 27.9185Z" fill="#F94C4C" mask="url(#path-1-outside-1_85_171)"/>
</svg>
