<svg width="27" height="28" viewBox="0 0 27 28" fill="none" xmlns="http://www.w3.org/2000/svg">
<g clip-path="url(#clip0_22_266)">
<path d="M24.9322 6.8628C24.0733 7.2427 23.1625 7.4922 22.23 7.60305C23.2129 7.01516 23.9486 6.08994 24.3 4.9998C23.3775 5.5488 22.3661 5.93355 21.312 6.14167C20.6039 5.38407 19.6654 4.88163 18.6423 4.71245C17.6192 4.54328 16.5689 4.71685 15.6546 5.20618C14.7404 5.69551 14.0134 6.47319 13.5867 7.41831C13.16 8.36343 13.0576 9.42305 13.2952 10.4324C11.4245 10.3387 9.59434 9.85251 7.92367 9.00554C6.25299 8.15858 4.77911 6.96972 3.59772 5.51617C3.17954 6.23443 2.95979 7.05093 2.96097 7.88205C2.96097 9.5133 3.79122 10.9544 5.05347 11.7982C4.30648 11.7747 3.57593 11.5729 2.92272 11.2098V11.2683C2.92294 12.3547 3.29888 13.4076 3.9868 14.2485C4.67471 15.0894 5.63226 15.6665 6.69709 15.8819C6.00366 16.0698 5.27656 16.0975 4.57084 15.9629C4.87107 16.8981 5.45623 17.7159 6.24438 18.3019C7.03254 18.8879 7.98424 19.2128 8.96622 19.231C7.99026 19.9975 6.87279 20.5642 5.67771 20.8985C4.48262 21.2328 3.23336 21.3283 2.00134 21.1795C4.152 22.5627 6.65558 23.2969 9.21259 23.2945C17.8672 23.2945 22.6001 16.1249 22.6001 9.90705C22.6001 9.70455 22.5945 9.4998 22.5855 9.29955C23.5067 8.63373 24.3018 7.80894 24.9333 6.86392L24.9322 6.8628Z" fill="white"/>
</g>
<defs>
<clipPath id="clip0_22_266">
<rect width="27" height="27" fill="white" transform="translate(0 0.5)"/>
</clipPath>
</defs>
</svg>
