<svg width="26" height="20" viewBox="0 0 26 20" fill="none" xmlns="http://www.w3.org/2000/svg">
<path d="M3 20C2.3125 20 1.72396 19.7552 1.23438 19.2656C0.744792 18.776 0.5 18.1875 0.5 17.5V2.5C0.5 1.8125 0.744792 1.22396 1.23438 0.734375C1.72396 0.244792 2.3125 0 3 0H18C18.6875 0 19.276 0.244792 19.7656 0.734375C20.2552 1.22396 20.5 1.8125 20.5 2.5V8.125L25.5 3.125V16.875L20.5 11.875V17.5C20.5 18.1875 20.2552 18.776 19.7656 19.2656C19.276 19.7552 18.6875 20 18 20H3ZM3 17.5H18V2.5H3V17.5Z" fill="#F94C56"/>
</svg>
