<?xml version="1.0" encoding="UTF-8" standalone="no"?>
<svg
   xmlns:dc="http://purl.org/dc/elements/1.1/"
   xmlns:cc="http://creativecommons.org/ns#"
   xmlns:rdf="http://www.w3.org/1999/02/22-rdf-syntax-ns#"
   xmlns:svg="http://www.w3.org/2000/svg"
   xmlns="http://www.w3.org/2000/svg"
   xmlns:sodipodi="http://sodipodi.sourceforge.net/DTD/sodipodi-0.dtd"
   xmlns:inkscape="http://www.inkscape.org/namespaces/inkscape"
   width="749"
   height="602"
   viewBox="0 0 749 602"
   fill="none"
   version="1.1"
   id="svg59"
   sodipodi:docname="img-8.7316a496.svg"
   inkscape:version="1.0.1 (3bc2e813f5, 2020-09-07)">
  <metadata
     id="metadata63">
    <rdf:RDF>
      <cc:Work
         rdf:about="">
        <dc:format>image/svg+xml</dc:format>
        <dc:type
           rdf:resource="http://purl.org/dc/dcmitype/StillImage" />
      </cc:Work>
    </rdf:RDF>
  </metadata>
  <sodipodi:namedview
     pagecolor="#ffffff"
     bordercolor="#666666"
     borderopacity="1"
     objecttolerance="10"
     gridtolerance="10"
     guidetolerance="10"
     inkscape:pageopacity="0"
     inkscape:pageshadow="2"
     inkscape:window-width="2560"
     inkscape:window-height="1387"
     id="namedview61"
     showgrid="false"
     inkscape:zoom="1.7266561"
     inkscape:cx="322.13815"
     inkscape:cy="302.61186"
     inkscape:window-x="1912"
     inkscape:window-y="-8"
     inkscape:window-maximized="1"
     inkscape:current-layer="svg59" />
  <g
     filter="url(#filter0_d)"
     id="g4">
    <rect
       x="59"
       y="124.965"
       width="312.825"
       height="417.761"
       rx="27.7187"
       transform="rotate(-15 59 124.965)"
       fill="white"
       id="rect2" />
  </g>
  <mask
     id="mask0"
     mask-type="alpha"
     maskUnits="userSpaceOnUse"
     x="59"
     y="44"
     width="411"
     height="485">
    <rect
       x="59"
       y="124.965"
       width="312.825"
       height="417.761"
       rx="27.8755"
       transform="rotate(-15 59 124.965)"
       fill="white"
       id="rect6" />
  </mask>
  <g
     mask="url(#mask0)"
     id="g11">
    <circle
       cx="451.82"
       cy="236.983"
       r="188.091"
       transform="rotate(-15 451.82 236.983)"
       fill="#FFC906"
       id="circle9" />
  </g>
  <path
     d="M171.256 276.819L187.791 272.389C201.17 268.804 208.091 256.262 204.709 243.64C201.395 231.27 189.113 223.806 175.734 227.391L159.199 231.821L171.256 276.819ZM178.726 265.821L171.167 237.611L177.225 235.987C184.988 233.907 192.595 238.566 194.691 246.391C196.856 254.47 192.295 262.185 184.721 264.215L178.726 265.821ZM207.362 218.916L219.403 263.851L249.696 255.734L247.43 247.277L226.856 252.79L224.201 242.881L240.483 238.518L238.217 230.061L221.935 234.424L219.347 224.768L239.164 219.459L236.898 211.002L207.362 218.916ZM246.158 208.52L258.199 253.455L288.492 245.338L286.226 236.881L265.652 242.394L262.997 232.486L279.279 228.123L277.013 219.666L260.731 224.029L258.143 214.373L277.96 209.063L275.694 200.606L246.158 208.52ZM297.011 243.123L306.667 240.536L302.744 225.894L310.128 223.916C318.711 221.616 323.785 213.289 321.418 204.454C319.118 195.87 310.64 191.243 301.931 193.576L284.954 198.125L297.011 243.123ZM300.495 217.5L296.859 203.932L302.855 202.325C306.641 201.31 310.351 203.293 311.383 207.142C312.415 210.992 310.277 214.879 306.49 215.894L300.495 217.5ZM160.195 304.024L185.505 345.47L195.161 342.883L195.698 309.798L212.706 338.182L222.362 335.595L223.558 287.046L213.713 289.684L213.732 323.837L196.231 294.368L187.522 296.701L187.1 330.974L170.04 301.386L160.195 304.024ZM249.806 279.201C236.237 282.837 229.068 295.715 232.552 308.716C236.035 321.717 248.7 329.349 262.269 325.713C275.901 322.061 282.926 309.153 279.443 296.152C275.959 283.151 263.438 275.548 249.806 279.201ZM252.275 288.415C260.037 286.335 267.294 290.952 269.408 298.84C271.539 306.792 267.562 314.419 259.8 316.499C252.037 318.579 244.717 313.979 242.586 306.027C240.472 298.139 244.512 290.495 252.275 288.415ZM303.8 313.706L299.454 297.486L306.585 295.576L318.063 309.884L328.602 307.06L315.216 291.436C319.593 287.829 321.641 282.342 320.085 276.536C317.819 268.079 309.998 263.884 301.163 266.251L282.04 271.375L294.081 316.31L303.8 313.706ZM294.008 277.165L301.897 275.051C305.936 273.969 309.103 275.69 310.067 279.288C311.065 283.011 309.108 286.309 305.069 287.391L297.306 289.471L294.008 277.165ZM337.454 304.756L347.173 302.152L343.875 289.845L347.641 281.937L364.844 297.417L376.141 294.39L352.568 273.311L363.389 249.578L351.525 252.757L340.409 276.907L335.116 257.154L325.397 259.758L337.454 304.756Z"
     fill="#141C31"
     id="path13" />
  <path
     d="m 229.92129,382.43248 c -0.791,2.192 -2.306,4.033 -5.064,4.772 -3.989,1.069 -7.847,-1.226 -8.937,-5.296 -1.091,-4.07 1.022,-7.965 4.958,-9.019 2.758,-0.739 4.991,0.097 6.655,1.488 l 1.474,-2.317 c -1.972,-1.682 -5.103,-2.765 -8.825,-1.768 -5.328,1.427 -8.485,6.779 -6.993,12.348 1.492,5.569 6.956,8.61 12.364,7.161 3.508,-0.94 5.738,-3.431 6.74,-6.225 z m 9.567,1.282 c -1.366,0.366 -2.484,-0.166 -2.778,-1.264 -0.28,-1.044 0.232,-1.813 1.779,-2.572 l 3.681,-1.79 0.23,0.857 c 0.516,1.928 -0.717,4.181 -2.912,4.769 z m 4.584,-8.488 c -0.868,-3.24 -3.514,-4.655 -6.915,-3.743 -2.222,0.595 -3.808,1.852 -4.73,3.764 l 1.797,1.355 c 0.67,-1.356 1.89,-2.372 3.309,-2.752 2.008,-0.538 3.432,0.171 3.913,1.964 l 0.072,0.268 -4.008,1.964 c -2.768,1.344 -3.875,3.104 -3.301,5.246 0.603,2.249 2.949,3.4 5.439,2.732 1.901,-0.509 3.238,-1.728 3.772,-3.593 l 0.559,2.088 2.41,-0.645 z m 4.93871,3.89452 c 0.767,2.865 2.703,3.236 4.524,2.748 0.455,-0.122 0.835,-0.31 1.147,-0.537 l -0.624,-2.329 c -0.312,0.227 -0.599,0.333 -0.84,0.397 -1.044,0.28 -1.452,-0.385 -1.732,-1.43 l -4.039,-15.073 -2.597,0.695 z m 15.637,-0.574 2.677,-0.717 -3.802,-14.19 14.271,11.385 2.329,-0.624 -5.065,-18.903 -2.65,0.71 3.795,14.164 -14.264,-11.359 -2.356,0.632 z m 30.377,-14.682 c -0.048,-0.504 -0.124,-1 -0.26,-1.509 -0.933,-3.48 -4.069,-5.653 -7.951,-4.613 -4.07,1.091 -6.015,4.969 -4.946,8.959 1.061,3.962 4.785,6.293 9.149,5.124 2.142,-0.574 3.762,-1.812 4.853,-3.739 l -2.068,-1.398 c -0.657,1.296 -1.763,2.309 -3.37,2.74 -2.329,0.624 -4.758,-0.304 -5.661,-2.816 z m -7.561,-3.8 c 2.009,-0.538 3.845,0.319 4.578,2.304 l 0.007,0.026 -7.765,2.081 c -0.15,-2.169 1.065,-3.844 3.18,-4.411 z m 7.204,-4.082 8.048,12.364 2.517,-0.674 0.712,-10.838 6.035,9.03 2.517,-0.675 0.787,-14.731 -2.704,0.724 -0.396,10.839 -5.949,-9.138 -2.517,0.674 -0.584,10.889 -5.762,-9.189 z m 30.846,11.995 -1.93,-7.203 c 1.133,1.017 3.259,1.452 5.052,0.971 3.615,-0.969 5.63,-4.694 4.525,-8.817 -1.112,-4.15 -4.712,-6.342 -8.327,-5.373 -1.901,0.509 -3.456,1.987 -3.961,3.529 l -0.531,-1.981 -2.49,0.667 5.065,18.902 z m -3.411,-12.086 c -0.767,-2.865 0.692,-5.236 2.941,-5.839 2.249,-0.602 4.74,0.768 5.493,3.579 0.754,2.811 -0.718,5.243 -2.967,5.846 -2.249,0.602 -4.713,-0.775 -5.467,-3.586 z m 22.353,1.615 c 3.989,-1.069 6.182,-4.985 5.113,-8.975 -1.069,-3.989 -4.926,-6.284 -8.916,-5.215 -3.989,1.069 -6.182,4.985 -5.113,8.975 1.069,3.989 4.926,6.284 8.916,5.215 z m -3.143,-11.727 c 2.571,-0.689 4.939,0.973 5.606,3.463 0.667,2.49 -0.553,5.112 -3.123,5.801 -2.571,0.689 -4.938,-0.973 -5.606,-3.463 -0.667,-2.49 0.553,-5.112 3.123,-5.801 z m 12.393,-5.616 -2.543,0.681 3.63,13.548 2.597,-0.696 -1.801,-6.72 c -0.746,-2.785 0.414,-4.989 2.904,-5.657 0.187,-0.05 0.435,-0.088 0.55,-0.09 l -0.682,-2.543 c -0.209,-0.03 -0.537,0.029 -0.858,0.115 -1.821,0.488 -2.941,1.878 -3.158,3.745 z m 6.13,-1.643 0.581,2.169 2.035,-0.545 1.98,7.389 c 0.739,2.758 2.708,3.895 5.385,3.178 0.937,-0.251 1.617,-0.606 2.047,-1.037 l -0.639,-2.383 c -0.535,0.574 -1.197,0.78 -1.491,0.859 -1.473,0.395 -2.397,-0.161 -2.791,-1.634 l -1.894,-7.068 3.48,-0.933 -0.581,-2.168 -3.48,0.932 -0.998,-3.721 -2.516,0.674 0.997,3.722 z"
     fill="#52545C"
     id="path15"
     sodipodi:nodetypes="cccccccssccsccccscccccccccccccccsccccccccccccccccccccccccccccccccccccccccccccccccccccccccccccccccccccsccccccccccccccccccscccccccccccc" />
  <g
     filter="url(#filter1_d)"
     id="g19">
    <rect
       x="370.526"
       y="75.2754"
       width="313.488"
       height="418.641"
       rx="27.8755"
       transform="rotate(7 370.526 75.2754)"
       fill="#FB4141"
       id="rect17" />
  </g>
  <path
     d="M385.066 463.007L392.376 463.905C398.396 464.644 403.274 460.704 403.978 454.97C404.671 449.323 400.895 444.29 394.875 443.551L387.565 442.654L385.066 463.007ZM389.258 460.147L390.941 446.444L394.18 446.841C397.935 447.303 400.558 450.593 400.079 454.491C399.59 458.476 396.224 461.002 392.469 460.541L389.258 460.147ZM414.886 457.415L410.569 457.729C407.399 457.951 405.55 459.266 405.279 461.474C404.969 463.996 406.787 466.023 409.567 466.365C411.517 466.604 413.17 465.934 414.181 464.574L413.938 466.552L417.378 466.975L418.515 457.715C418.952 454.161 416.865 451.722 412.938 451.24C410.3 450.916 408.109 451.695 406.533 453.16L408.19 455.778C409.238 454.83 410.676 454.25 412.282 454.447C414.031 454.662 415.107 455.609 414.907 457.243L414.886 457.415ZM410.665 463.59C409.489 463.445 408.768 462.688 408.891 461.684C409.003 460.767 409.762 460.278 411.141 460.185L414.633 459.945L414.556 460.576C414.327 462.439 412.671 463.836 410.665 463.59ZM421.652 463.484C421.275 466.551 422.959 468.009 425.367 468.305C426.026 468.386 426.613 468.342 427.154 468.204L427.541 465.051C427.151 465.148 426.803 465.135 426.545 465.103C425.427 464.966 425.347 464.199 425.46 463.282L427.392 447.544L423.665 447.086L421.652 463.484ZM437.826 454.296C433.469 453.761 429.925 456.788 429.401 461.06C428.876 465.331 431.646 469.076 436.463 469.667C438.871 469.963 440.818 469.504 442.836 468.005L441.074 465.287C440.073 466.095 438.724 466.657 437.032 466.449C434.882 466.185 433.109 464.745 433.162 462.424L443.424 463.684C443.606 463.153 443.795 462.565 443.876 461.906C444.351 458.036 441.983 454.806 437.826 454.296ZM437.414 457.417C439.163 457.632 440.405 458.89 440.326 460.714L440.323 460.742L433.471 459.901C434.012 458.105 435.579 457.192 437.414 457.417ZM469.122 466.606C467.521 468.505 465.474 469.534 462.866 469.214C459.11 468.752 456.667 465.426 457.146 461.527C457.624 457.629 460.742 454.985 464.555 455.453C467.078 455.763 468.973 457.393 469.891 459.397L472.989 457.391C471.711 454.528 468.958 452.298 465.031 451.816C458.982 451.073 453.979 455.086 453.247 461.049C452.515 467.011 456.484 472.126 462.476 472.861C466.289 473.329 469.57 471.724 471.685 469.191L469.122 466.606ZM482.69 465.74L478.374 466.054C475.204 466.276 473.354 467.591 473.083 469.799C472.774 472.322 474.591 474.349 477.371 474.69C479.321 474.93 480.974 474.26 481.985 472.9L481.742 474.878L485.182 475.3L486.319 466.041C486.756 462.486 484.669 460.047 480.742 459.565C478.104 459.241 475.914 460.02 474.337 461.485L475.994 464.104C477.042 463.156 478.481 462.576 480.086 462.773C481.835 462.987 482.912 463.934 482.711 465.568L482.69 465.74ZM478.469 471.915C477.293 471.771 476.572 471.013 476.695 470.009C476.808 469.092 477.566 468.603 478.945 468.511L482.437 468.27L482.36 468.901C482.131 470.764 480.476 472.161 478.469 471.915ZM494.607 461.617L490.937 461.166L489.142 475.786L492.869 476.244L493.657 469.822C494.027 466.812 495.843 465.057 498.452 465.377C498.796 465.419 499.05 465.48 499.24 465.59L499.68 462.007C499.49 461.896 499.15 461.825 498.806 461.783C496.856 461.544 495.232 462.45 494.294 464.168L494.607 461.617ZM502.192 462.548L500.396 477.168L504.123 477.626L505.049 470.086C505.295 468.08 506.584 466.114 508.906 466.399C510.626 466.61 511.722 467.879 511.465 469.972L510.43 478.4L514.157 478.858L515.244 470C515.719 466.13 513.758 463.619 510.318 463.197C508.168 462.933 506.632 463.588 505.528 464.995L505.775 462.988L502.192 462.548ZM526.375 465.168C522.017 464.633 518.474 467.661 517.949 471.932C517.425 476.204 520.195 479.948 525.011 480.54C527.419 480.835 529.367 480.376 531.384 478.878L529.623 476.159C528.622 476.967 527.272 477.529 525.581 477.321C523.431 477.057 521.658 475.618 521.71 473.296L531.973 474.556C532.155 474.026 532.343 473.438 532.424 472.778C532.899 468.908 530.531 465.678 526.375 465.168ZM525.962 468.289C527.711 468.504 528.953 469.762 528.875 471.586L528.871 471.615L522.02 470.773C522.561 468.977 524.128 468.064 525.962 468.289ZM532.864 483.25C532.565 485.687 535.066 487.594 539.28 488.112C543.838 488.671 547.037 487.027 547.358 484.418C547.657 481.982 545.868 479.958 542.887 479.592L539.218 479.141C538.644 479.071 538.106 478.714 538.177 478.14C538.222 477.768 538.548 477.488 539.006 477.311C539.372 477.414 539.741 477.489 540.113 477.534C543.525 477.953 546.472 475.987 546.838 473.006C546.926 472.289 546.839 471.58 546.572 470.907L548.837 471.185L549.189 468.319L543.427 467.611C542.796 467.301 542.151 467.105 541.434 467.017C538.051 466.602 535.129 468.6 534.77 471.524C534.544 473.359 535.333 474.998 536.707 476.127C535.63 476.606 534.894 477.388 534.777 478.334C534.668 479.223 534.928 479.953 535.581 480.557C534.163 480.965 533.037 481.845 532.864 483.25ZM541.082 469.884C542.573 470.067 543.621 471.243 543.456 472.591C543.29 473.938 541.985 474.854 540.494 474.671C539.003 474.488 537.987 473.287 538.152 471.939C538.318 470.592 539.591 469.701 541.082 469.884ZM536.565 483.21C536.66 482.436 537.34 482.112 537.913 481.949L541.983 482.449C542.987 482.572 543.819 483.14 543.71 484.029C543.594 484.975 542.223 485.476 539.7 485.166C537.751 484.926 536.442 484.213 536.565 483.21ZM550.144 483.276L553.87 483.734L555.666 469.114L551.939 468.656L550.144 483.276ZM554.551 462.546C553.319 462.395 552.296 463.142 552.144 464.375C551.993 465.607 552.801 466.609 554.034 466.76C555.209 466.904 556.293 466.135 556.445 464.903C556.596 463.67 555.727 462.69 554.551 462.546ZM566.324 470.073C561.966 469.538 558.423 472.566 557.898 476.837C557.374 481.109 560.144 484.853 564.96 485.445C567.368 485.74 569.316 485.281 571.333 483.783L569.572 481.064C568.571 481.872 567.221 482.434 565.53 482.227C563.38 481.963 561.607 480.523 561.659 478.201L571.922 479.461C572.104 478.931 572.292 478.343 572.373 477.683C572.848 473.813 570.481 470.584 566.324 470.073ZM565.911 473.194C567.66 473.409 568.902 474.667 568.824 476.491L568.82 476.52L561.969 475.678C562.51 473.882 564.077 472.969 565.911 473.194Z"
     fill="white"
     id="path21" />
  <path
     d="M364.722 122.538L675.874 160.743L640.813 446.29L329.661 408.085L364.722 122.538Z"
     fill="#FAFAFA"
     id="path23" />
  <path
     d="M444.201 200.431L441.535 222.148L446.226 222.724L447.314 213.86L456.208 214.952L455.12 223.816L459.81 224.392L462.477 202.675L457.786 202.099L456.739 210.627L447.845 209.535L448.892 201.007L444.201 200.431ZM479.232 204.361C472.683 203.557 467.295 207.904 466.525 214.179C465.755 220.453 469.927 226.005 476.476 226.809C483.055 227.617 488.385 223.232 489.156 216.957C489.926 210.683 485.811 205.169 479.232 204.361ZM478.686 208.808C482.432 209.268 484.78 212.555 484.313 216.363C483.842 220.2 480.768 222.822 477.022 222.362C473.275 221.902 470.897 218.611 471.368 214.773C471.835 210.966 474.94 208.348 478.686 208.808ZM493.127 206.438L496.857 228.94L501.517 229.513L507.572 215.199L509.984 230.552L514.645 231.125L523.707 210.193L518.956 209.609L512.955 224.486L510.519 208.574L506.316 208.057L500.102 222.908L497.878 207.021L493.127 206.438ZM532.571 215.455L538.602 216.196L536.44 233.801L541.131 234.377L543.292 216.771L549.323 217.512L549.828 213.4L533.076 211.343L532.571 215.455ZM562.986 214.645C556.438 213.841 551.05 218.188 550.279 224.462C549.509 230.737 553.681 236.289 560.23 237.093C566.809 237.901 572.14 233.515 572.91 227.241C573.681 220.966 569.565 215.452 562.986 214.645ZM562.44 219.092C566.187 219.552 568.535 222.839 568.067 226.646C567.596 230.484 564.522 233.106 560.776 232.646C557.03 232.186 554.651 228.895 555.122 225.057C555.59 221.25 558.694 218.632 562.44 219.092ZM394.53 233.625L398.26 256.127L402.92 256.699L408.975 242.386L411.387 257.739L416.047 258.311L425.11 237.38L420.359 236.796L414.358 251.673L411.922 235.76L407.718 235.244L401.505 250.095L399.281 234.208L394.53 233.625ZM426.738 259.624L431.429 260.2L434.096 238.483L429.405 237.907L426.738 259.624ZM438.322 261.046L443.013 261.622L444.703 247.855L453.003 262.849L456.963 263.335L459.629 241.618L454.939 241.042L453.267 254.657L444.948 239.815L440.989 239.329L438.322 261.046ZM475.668 243.587L473.001 265.304L477.692 265.88L478.72 257.504L486 258.398L486.497 254.347L479.218 253.453L479.857 248.245L488.721 249.333L489.222 245.251L475.668 243.587ZM496.299 268.134L497.26 260.306L500.702 260.729L503.183 268.979L508.269 269.604L505.189 260.445C507.73 259.644 509.587 257.615 509.931 254.813C510.432 250.731 507.764 247.528 503.5 247.005L494.271 245.871L491.608 267.558L496.299 268.134ZM498.464 250.498L502.272 250.966C504.221 251.205 505.297 252.512 505.084 254.248C504.864 256.045 503.431 257.137 501.482 256.898L497.735 256.438L498.464 250.498ZM513.748 270.307L518.439 270.883L521.105 249.166L516.414 248.59L513.748 270.307ZM527.998 250.013L525.336 271.699L539.956 273.494L540.457 269.413L530.527 268.194L531.114 263.412L538.973 264.377L539.474 260.295L531.616 259.33L532.188 254.67L541.752 255.844L542.253 251.763L527.998 250.013ZM545.274 274.178L549.965 274.754L551.655 260.987L559.955 275.981L563.915 276.467L566.581 254.75L561.891 254.174L560.219 267.789L551.9 252.947L547.94 252.461L545.274 274.178ZM570.808 277.313L578.788 278.293C585.245 279.086 590.466 274.842 591.214 268.75C591.947 262.78 587.912 257.369 581.455 256.576L573.475 255.596L570.808 277.313ZM575.996 273.838L577.668 260.223L580.592 260.582C584.338 261.042 586.831 264.409 586.367 268.186C585.889 272.085 582.545 274.642 578.89 274.194L575.996 273.838ZM611.02 263.855C609.872 261.117 607.395 259.39 604.349 259.016C600.084 258.493 596.492 260.803 596.032 264.55C595.576 268.266 598.096 269.905 600.943 271.645C603.797 273.325 605.455 273.931 605.253 275.576C605.107 276.763 603.757 277.432 601.929 277.208C599.889 276.958 598.424 275.541 597.678 273.811L593.964 276.106C595.231 279.137 598.086 281.065 601.375 281.469C606.249 282.067 609.543 279.411 609.962 275.999C610.433 272.161 607.856 270.485 604.51 268.528C602.346 267.273 600.532 266.432 600.708 265C600.872 263.66 602.214 263.052 603.768 263.243C605.321 263.433 606.507 264.352 607.261 266.021L611.02 263.855ZM393.399 290.111C392.939 293.857 396.53 296.586 400.886 297.121C402.987 297.379 405.019 296.948 406.863 296.031L408.027 297.627L413.266 298.27L409.96 293.721C411.772 291.81 412.923 289.231 412.936 286.357L408.946 285.867C408.949 287.599 408.45 289.145 407.582 290.43L404.405 286.083C407.687 284.538 409.21 283.21 409.491 280.925C409.835 278.123 407.602 275.159 403.733 274.684C399.713 274.19 396.879 276.625 396.534 279.427C396.31 281.255 397.151 282.718 398.498 284.584C395.517 285.95 393.713 287.552 393.399 290.111ZM397.898 290.23C398.089 288.924 399.104 288.214 400.644 287.507L404.561 292.873C403.553 293.275 402.457 293.387 401.3 293.245C399.564 293.032 397.681 291.997 397.898 290.23ZM400.833 279.924C400.964 278.858 401.979 278.148 403.288 278.309C404.507 278.458 405.415 279.374 405.284 280.44C405.149 281.536 404.168 282.22 402.237 283.096C401.305 281.868 400.702 280.99 400.833 279.924ZM425.996 299.833L430.687 300.409L433.354 278.692L428.663 278.116L425.996 299.833ZM437.58 301.256L442.271 301.831L443.961 288.064L452.261 303.058L456.221 303.544L458.887 281.827L454.197 281.251L452.525 294.866L444.206 280.025L440.247 279.538L437.58 301.256ZM465.781 282.674L463.114 304.391L467.805 304.967L468.833 296.591L476.113 297.484L476.61 293.433L469.331 292.539L469.97 287.331L478.834 288.419L479.335 284.338L465.781 282.674ZM481.718 306.675L495.181 308.328L495.686 304.216L486.913 303.139L489.075 285.534L484.384 284.958L481.718 306.675ZM507.35 310.193C512.62 310.84 516.742 307.482 517.33 302.7L518.986 289.206L514.296 288.631L512.684 301.758C512.362 304.378 510.451 306.091 507.893 305.777C505.365 305.466 503.895 303.338 504.216 300.719L505.828 287.591L501.137 287.015L499.481 300.508C498.894 305.29 502.081 309.546 507.35 310.193ZM525.607 290.019L522.944 311.706L537.565 313.501L538.066 309.42L528.136 308.2L528.723 303.418L536.582 304.383L537.083 300.302L529.225 299.337L529.797 294.677L539.361 295.851L539.862 291.77L525.607 290.019ZM542.883 314.185L547.573 314.761L549.264 300.994L557.564 315.988L561.524 316.474L564.19 294.757L559.499 294.181L557.828 307.796L549.509 292.954L545.549 292.468L542.883 314.185ZM584.886 311.613C583.242 313.668 581.136 314.708 578.608 314.398C574.953 313.949 572.635 310.665 573.103 306.858C573.57 303.051 576.488 300.441 580.325 300.912C582.762 301.211 584.787 302.851 585.629 305.057L589.506 302.688C588.102 299.27 585.078 296.951 580.936 296.442C574.296 295.627 569.03 299.989 568.26 306.263C567.489 312.538 571.631 318.086 578.119 318.883C582.2 319.384 585.877 317.64 588.113 314.792L584.886 311.613ZM594.922 298.53L592.259 320.217L606.88 322.012L607.381 317.93L597.451 316.711L598.038 311.929L605.897 312.894L606.398 308.813L598.539 307.848L599.112 303.188L608.676 304.362L609.177 300.28L594.922 298.53ZM436.825 341.463L441.485 342.035L442.353 334.969L445.917 335.407C450.059 335.915 453.734 333.182 454.257 328.918C454.766 324.775 451.888 321.268 447.685 320.752L439.492 319.746L436.825 341.463ZM442.85 330.918L443.654 324.369L446.548 324.725C448.375 324.949 449.642 326.465 449.414 328.323C449.186 330.181 447.571 331.498 445.744 331.273L442.85 330.918ZM460.058 322.271L457.396 343.958L472.016 345.753L472.517 341.672L462.587 340.452L463.175 335.67L471.033 336.635L471.534 332.554L463.676 331.589L464.248 326.929L473.812 328.103L474.313 324.022L460.058 322.271ZM489.289 325.489C482.74 324.685 477.352 329.033 476.582 335.307C475.811 341.581 479.984 347.133 486.532 347.937C493.111 348.745 498.442 344.36 499.213 338.086C499.983 331.811 495.868 326.297 489.289 325.489ZM488.743 329.936C492.489 330.396 494.837 333.684 494.37 337.491C493.898 341.329 490.825 343.951 487.078 343.491C483.332 343.031 480.953 339.739 481.425 335.902C481.892 332.094 484.996 329.476 488.743 329.936ZM503.255 349.62L507.915 350.192L508.783 343.126L512.346 343.563C516.489 344.072 520.163 341.338 520.687 337.074C521.196 332.932 518.318 329.425 514.115 328.909L505.921 327.903L503.255 349.62ZM509.28 339.075L510.084 332.526L512.978 332.881C514.805 333.106 516.072 334.622 515.844 336.479C515.616 338.337 514.001 339.654 512.174 339.43L509.28 339.075ZM523.822 352.145L537.284 353.798L537.789 349.686L529.017 348.609L531.179 331.004L526.488 330.428L523.822 352.145ZM544.527 332.643L541.864 354.329L556.484 356.125L556.985 352.043L547.056 350.824L547.643 346.042L555.501 347.007L556.002 342.925L548.144 341.96L548.716 337.3L558.28 338.475L558.781 334.393L544.527 332.643Z"
     fill="#FB4141"
     id="path25" />
  <defs
     id="defs57">
    <filter
       id="filter0_d"
       x="0.98978"
       y="0.497607"
       width="526.311"
       height="600.511"
       filterUnits="userSpaceOnUse"
       color-interpolation-filters="sRGB">
      <feFlood
         flood-opacity="0"
         result="BackgroundImageFix"
         id="feFlood27" />
      <feColorMatrix
         in="SourceAlpha"
         type="matrix"
         values="0 0 0 0 0 0 0 0 0 0 0 0 0 0 0 0 0 0 127 0"
         id="feColorMatrix29" />
      <feOffset
         dy="14.5078"
         id="feOffset31" />
      <feGaussianBlur
         stdDeviation="29.0051"
         id="feGaussianBlur33" />
      <feColorMatrix
         type="matrix"
         values="0 0 0 0 0.670833 0 0 0 0 0.239935 0 0 0 0 0.145347 0 0 0 0.21 0"
         id="feColorMatrix35" />
      <feBlend
         mode="normal"
         in2="BackgroundImageFix"
         result="effect1_dropShadow"
         id="feBlend37" />
      <feBlend
         mode="normal"
         in="SourceGraphic"
         in2="effect1_dropShadow"
         result="shape"
         id="feBlend39" />
    </filter>
    <filter
       id="filter1_d"
       x="252.345"
       y="11.7237"
       width="496.495"
       height="588.049"
       filterUnits="userSpaceOnUse"
       color-interpolation-filters="sRGB">
      <feFlood
         flood-opacity="0"
         result="BackgroundImageFix"
         id="feFlood42" />
      <feColorMatrix
         in="SourceAlpha"
         type="matrix"
         values="0 0 0 0 0 0 0 0 0 0 0 0 0 0 0 0 0 0 127 0"
         id="feColorMatrix44" />
      <feOffset
         dy="3.61029"
         id="feOffset46" />
      <feGaussianBlur
         stdDeviation="33.581"
         id="feGaussianBlur48" />
      <feColorMatrix
         type="matrix"
         values="0 0 0 0 0.341667 0 0 0 0 0.150333 0 0 0 0 0.0427083 0 0 0 0.44 0"
         id="feColorMatrix50" />
      <feBlend
         mode="normal"
         in2="BackgroundImageFix"
         result="effect1_dropShadow"
         id="feBlend52" />
      <feBlend
         mode="normal"
         in="SourceGraphic"
         in2="effect1_dropShadow"
         result="shape"
         id="feBlend54" />
    </filter>
  </defs>
</svg>
