<svg width="194" height="26" viewBox="0 0 194 26" fill="none" xmlns="http://www.w3.org/2000/svg">
<path d="M45.5315 22.1069C44.3757 22.1069 43.259 21.9272 42.1814 21.568C41.1194 21.1932 40.2838 20.6934 39.6747 20.0687C39.4716 19.8969 39.3701 19.6704 39.3701 19.3893C39.3701 19.2175 39.417 19.0691 39.5107 18.9441C39.62 18.8192 39.7371 18.7568 39.8621 18.7568C40.0183 18.7568 40.1979 18.8349 40.4009 18.991C41.869 20.2093 43.5792 20.8184 45.5315 20.8184C46.9527 20.8184 48.046 20.5373 48.8113 19.975C49.5922 19.3971 49.9827 18.585 49.9827 17.5385C49.9827 16.9295 49.7952 16.4375 49.4204 16.0627C49.0456 15.6879 48.5692 15.3989 47.9913 15.1958C47.4135 14.9772 46.6404 14.7585 45.672 14.5398C44.3914 14.2587 43.3527 13.9698 42.5562 13.6731C41.7753 13.3764 41.1115 12.9313 40.5649 12.3378C40.0183 11.7287 39.745 10.9165 39.745 9.9013C39.745 8.97986 39.987 8.16769 40.4712 7.46485C40.971 6.74642 41.666 6.19198 42.5562 5.80153C43.4465 5.41103 44.4694 5.21582 45.6252 5.21582C46.7028 5.21582 47.718 5.39546 48.6707 5.75468C49.6234 6.09831 50.4122 6.59802 51.0369 7.25399C51.2399 7.457 51.3414 7.68353 51.3414 7.93342C51.3414 8.10527 51.2868 8.25365 51.1774 8.37856C51.0837 8.50353 50.9744 8.56599 50.8495 8.56599C50.6933 8.56599 50.5137 8.48791 50.3106 8.3317C49.4673 7.6445 48.702 7.16809 48.0148 6.90256C47.3432 6.63709 46.5467 6.50439 45.6252 6.50439C44.2352 6.50439 43.1497 6.80111 42.3688 7.39456C41.5879 7.98808 41.1974 8.81588 41.1974 9.87787C41.1974 10.5183 41.3692 11.0415 41.7128 11.4476C42.0564 11.838 42.5016 12.1503 43.0482 12.3845C43.6104 12.6188 44.3289 12.8454 45.2035 13.064L45.8126 13.2045C47.0777 13.5168 48.0772 13.8058 48.8113 14.0714C49.5453 14.3369 50.1623 14.7507 50.662 15.313C51.1774 15.8596 51.4351 16.6015 51.4351 17.5385C51.4351 18.4288 51.1853 19.2254 50.6855 19.9281C50.2013 20.6153 49.5063 21.1542 48.6004 21.5446C47.7102 21.9195 46.6872 22.1069 45.5315 22.1069Z" fill="#141C31"/>
<path d="M68.9493 5.28516C69.1836 5.28516 69.3632 5.35546 69.4881 5.49601C69.6131 5.62099 69.6755 5.80063 69.6755 6.03487V21.2859C69.6755 21.5203 69.6131 21.7077 69.4881 21.8482C69.3632 21.9731 69.1836 22.0357 68.9493 22.0357C68.7306 22.0357 68.5588 21.9654 68.4339 21.8248C68.3089 21.6842 68.2465 21.5046 68.2465 21.2859V14.164H57.7042V21.2859C57.7042 21.5046 57.6417 21.6842 57.5168 21.8248C57.3918 21.9654 57.22 22.0357 57.0014 22.0357C56.7827 22.0357 56.6031 21.9654 56.4626 21.8248C56.3376 21.6842 56.2751 21.5046 56.2751 21.2859V6.03487C56.2751 5.81621 56.3376 5.63657 56.4626 5.49601C56.6031 5.35546 56.7827 5.28516 57.0014 5.28516C57.22 5.28516 57.3918 5.35546 57.5168 5.49601C57.6417 5.63657 57.7042 5.81621 57.7042 6.03487V12.8991H68.2465V6.03487C68.2465 5.81621 68.3089 5.63657 68.4339 5.49601C68.5588 5.35546 68.7306 5.28516 68.9493 5.28516Z" fill="#141C31"/>
<path d="M82.2582 22.1069C80.7589 22.1069 79.4548 21.7711 78.3459 21.0996C77.237 20.4124 76.3858 19.4362 75.7923 18.1711C75.1988 16.8904 74.9021 15.3911 74.9021 13.6731C74.9021 11.9395 75.1988 10.4401 75.7923 9.17502C76.3858 7.89436 77.2292 6.91818 78.3225 6.24656C79.4314 5.55936 80.7433 5.21582 82.2582 5.21582C83.7732 5.21582 85.0851 5.55936 86.194 6.24656C87.3029 6.91818 88.1541 7.88652 88.7476 9.15159C89.3411 10.4167 89.6378 11.916 89.6378 13.6496C89.6378 15.3833 89.3411 16.8904 88.7476 18.1711C88.1541 19.4362 87.3029 20.4124 86.194 21.0996C85.0851 21.7711 83.7732 22.1069 82.2582 22.1069ZM82.2582 20.8184C84.1168 20.8184 85.5615 20.1936 86.5923 18.9441C87.6231 17.6947 88.1385 15.9299 88.1385 13.6496C88.1385 11.3694 87.6231 9.6124 86.5923 8.37856C85.5771 7.12914 84.1324 6.50439 82.2582 6.50439C80.3997 6.50439 78.955 7.12914 77.9242 8.37856C76.909 9.62805 76.4014 11.385 76.4014 13.6496C76.4014 15.9142 76.909 17.6791 77.9242 18.9441C78.955 20.1936 80.3997 20.8184 82.2582 20.8184Z" fill="#141C31"/>
<path d="M107.231 21.0527C107.325 21.1933 107.372 21.3261 107.372 21.451C107.372 21.6227 107.302 21.7711 107.161 21.8961C107.036 22.0054 106.888 22.0601 106.716 22.0601C106.451 22.0601 106.24 21.9351 106.083 21.6852L102.921 16.625C102.468 15.9066 101.999 15.4146 101.515 15.149C101.047 14.8836 100.391 14.7509 99.5473 14.7509H96.3377V21.287C96.3377 21.5213 96.2675 21.7087 96.1269 21.8492C96.002 21.9742 95.8302 22.0367 95.6115 22.0367C95.3928 22.0367 95.2132 21.9742 95.0727 21.8492C94.9477 21.7087 94.8853 21.5213 94.8853 21.287V6.12961C94.8853 5.92653 94.9555 5.75473 95.0961 5.61418C95.2523 5.47362 95.4397 5.40332 95.6584 5.40332H101.492C103.225 5.40332 104.561 5.80165 105.498 6.59818C106.435 7.37906 106.903 8.52687 106.903 10.0418C106.903 11.3694 106.505 12.4237 105.709 13.2046C104.912 13.9855 103.788 14.4385 102.335 14.5634C102.71 14.6884 103.054 14.8992 103.366 15.1959C103.678 15.4771 103.998 15.8753 104.326 16.3906L107.231 21.0527ZM101.398 13.5093C104.116 13.5093 105.474 12.3456 105.474 10.0185C105.474 8.87836 105.139 8.03493 104.467 7.48835C103.795 6.92606 102.772 6.64492 101.398 6.64492H96.3143V13.5093H101.398Z" fill="#141C31"/>
<path d="M116.773 22.0367C116.555 22.0367 116.383 21.9664 116.258 21.8258C116.133 21.6853 116.071 21.5056 116.071 21.287V6.66846H110.659C110.456 6.66846 110.292 6.61379 110.167 6.50446C110.058 6.39513 110.003 6.23897 110.003 6.03589C110.003 5.83288 110.058 5.67665 110.167 5.56732C110.292 5.45799 110.456 5.40332 110.659 5.40332H122.888C123.075 5.40332 123.232 5.46577 123.356 5.59075C123.481 5.70001 123.544 5.84846 123.544 6.03589C123.544 6.22332 123.481 6.37949 123.356 6.50446C123.232 6.61379 123.075 6.66846 122.888 6.66846H117.5V21.287C117.5 21.5056 117.429 21.6853 117.289 21.8258C117.164 21.9664 116.992 22.0367 116.773 22.0367Z" fill="#141C31"/>
<path d="M128.136 22.0367C127.917 22.0367 127.738 21.9664 127.597 21.8258C127.472 21.6853 127.41 21.5056 127.41 21.287V6.12961C127.41 5.92653 127.48 5.75473 127.621 5.61418C127.777 5.47362 127.964 5.40332 128.183 5.40332H136.851C137.054 5.40332 137.21 5.45799 137.319 5.56732C137.444 5.67665 137.507 5.83288 137.507 6.03589C137.507 6.23897 137.444 6.39513 137.319 6.50446C137.21 6.59815 137.054 6.64492 136.851 6.64492H128.862V12.9001H136.382C136.585 12.9001 136.742 12.9548 136.851 13.0641C136.976 13.1734 137.038 13.3296 137.038 13.5326C137.038 13.7356 136.976 13.8918 136.851 14.0011C136.742 14.1105 136.585 14.165 136.382 14.165H128.862V21.287C128.862 21.5213 128.8 21.7087 128.675 21.8492C128.55 21.9742 128.37 22.0367 128.136 22.0367Z" fill="#141C31"/>
<path d="M148.222 22.1069C146.723 22.1069 145.419 21.7711 144.31 21.0996C143.201 20.4124 142.35 19.4362 141.756 18.1711C141.163 16.8904 140.866 15.3911 140.866 13.6731C140.866 11.9395 141.163 10.4401 141.756 9.17502C142.35 7.89436 143.193 6.91818 144.287 6.24656C145.395 5.55936 146.707 5.21582 148.222 5.21582C149.737 5.21582 151.049 5.55936 152.158 6.24656C153.267 6.91818 154.118 7.88652 154.712 9.15159C155.305 10.4167 155.602 11.916 155.602 13.6496C155.602 15.3833 155.305 16.8904 154.712 18.1711C154.118 19.4362 153.267 20.4124 152.158 21.0996C151.049 21.7711 149.737 22.1069 148.222 22.1069ZM148.222 20.8184C150.081 20.8184 151.526 20.1936 152.556 18.9441C153.587 17.6947 154.103 15.9299 154.103 13.6496C154.103 11.3694 153.587 9.6124 152.556 8.37856C151.541 7.12914 150.097 6.50439 148.222 6.50439C146.364 6.50439 144.919 7.12914 143.888 8.37856C142.873 9.62805 142.366 11.385 142.366 13.6496C142.366 15.9142 142.873 17.6791 143.888 18.9441C144.919 20.1936 146.364 20.8184 148.222 20.8184Z" fill="#141C31"/>
<path d="M173.195 21.0527C173.289 21.1933 173.336 21.3261 173.336 21.451C173.336 21.6227 173.266 21.7711 173.125 21.8961C173 22.0054 172.852 22.0601 172.68 22.0601C172.414 22.0601 172.204 21.9351 172.047 21.6852L168.885 16.625C168.432 15.9066 167.963 15.4146 167.479 15.149C167.01 14.8836 166.355 14.7509 165.511 14.7509H162.302V21.287C162.302 21.5213 162.231 21.7087 162.091 21.8492C161.966 21.9742 161.794 22.0367 161.575 22.0367C161.357 22.0367 161.177 21.9742 161.037 21.8492C160.912 21.7087 160.849 21.5213 160.849 21.287V6.12961C160.849 5.92653 160.919 5.75473 161.06 5.61418C161.216 5.47362 161.404 5.40332 161.622 5.40332H167.456C169.189 5.40332 170.525 5.80165 171.462 6.59818C172.399 7.37906 172.867 8.52687 172.867 10.0418C172.867 11.3694 172.469 12.4237 171.673 13.2046C170.876 13.9855 169.751 14.4385 168.299 14.5634C168.674 14.6884 169.017 14.8992 169.33 15.1959C169.642 15.4771 169.962 15.8753 170.29 16.3906L173.195 21.0527ZM167.362 13.5093C170.079 13.5093 171.438 12.3456 171.438 10.0185C171.438 8.87836 171.102 8.03493 170.431 7.48835C169.759 6.92606 168.736 6.64492 167.362 6.64492H162.278V13.5093H167.362Z" fill="#141C31"/>
<path d="M193.081 5.28516C193.315 5.28516 193.495 5.35546 193.62 5.49601C193.76 5.63657 193.831 5.81621 193.831 6.03487V21.2859C193.831 21.5046 193.768 21.6842 193.643 21.8248C193.518 21.9654 193.346 22.0357 193.128 22.0357C192.909 22.0357 192.745 21.9731 192.636 21.8482C192.527 21.7077 192.472 21.5203 192.472 21.2859V8.2839L186.92 19.0135C186.732 19.3727 186.474 19.5523 186.147 19.5523C185.819 19.5523 185.561 19.3727 185.373 19.0135L179.774 8.37761V21.2859C179.774 21.5203 179.72 21.7077 179.61 21.8482C179.501 21.9731 179.337 22.0357 179.118 22.0357C178.884 22.0357 178.704 21.9731 178.58 21.8482C178.47 21.7077 178.416 21.5203 178.416 21.2859V6.03487C178.416 5.81621 178.478 5.63657 178.603 5.49601C178.744 5.35546 178.931 5.28516 179.165 5.28516C179.446 5.28516 179.681 5.4648 179.868 5.82401L186.17 17.9125L192.378 5.82401C192.566 5.4648 192.8 5.28516 193.081 5.28516Z" fill="#141C31"/>
<path d="M14.7583 23.7838L8.44982 12.8572L2.14136 1.93066H14.7583H27.3752L21.0667 12.8572L14.7583 23.7838Z" fill="#FFC906"/>
<path d="M14.4328 25.9707C14.1903 25.9203 13.9442 25.7847 13.7467 25.5939C13.5787 25.4313 13.4759 25.2551 7.10072 14.2058C3.53925 8.03359 0.496521 2.76036 0.339093 2.48796C0.0669691 2.01707 0.051257 1.9823 0.0202951 1.78325C-0.105174 0.976678 0.362094 0.234082 1.11825 0.038165C1.25256 0.00301006 2.57959 -0.000827587 14.7701 0.000122546C26.5821 0.000502599 28.2924 0.00956728 28.4267 0.0371211C28.6623 0.0922288 28.9022 0.226177 29.0972 0.410123C29.4785 0.769938 29.6425 1.36084 29.5118 1.9048C29.4769 2.05036 16.0234 25.3607 15.8783 25.5273C15.7474 25.6774 15.4828 25.8498 15.2695 25.9241C15.0439 26.0029 14.6801 26.0231 14.4328 25.9716V25.9707ZM15.056 20.1889C15.2356 19.8812 15.2444 19.8657 15.3375 19.6966C15.3715 19.6348 15.4079 19.573 15.4183 19.5595C15.4288 19.5462 15.5419 19.3527 15.6696 19.1297C16.1855 18.2297 16.2846 18.0588 16.3246 18.0001C16.3475 17.9659 16.3852 17.9 16.4082 17.8528C16.4521 17.7625 16.4547 17.7579 16.6022 17.5232C16.6529 17.4424 16.6943 17.3672 16.6943 17.3557C16.6943 17.3443 16.733 17.2768 16.7802 17.2075C16.8275 17.1372 16.8662 17.0659 16.8662 17.0488C16.8662 17.0327 16.8746 17.0175 16.8848 17.0175C16.895 17.0175 16.919 16.9814 16.9381 16.9377C16.9572 16.893 17.014 16.7916 17.0644 16.7106C17.1147 16.6289 17.2053 16.4747 17.2657 16.3667C17.3261 16.2587 17.4709 16.0065 17.5874 15.8063C17.704 15.6062 17.7994 15.432 17.7994 15.4195C17.7994 15.4071 17.8104 15.3958 17.8239 15.3958C17.8374 15.3958 17.8485 15.3796 17.8485 15.3587C17.8485 15.3255 17.4909 15.3217 14.7778 15.3217H11.7071L11.7676 15.426C11.8009 15.483 11.9245 15.6963 12.0422 15.8988C12.16 16.1014 12.3029 16.3501 12.3598 16.4513C12.4167 16.5526 12.5201 16.7328 12.5896 16.8515C12.6591 16.9703 12.716 17.0782 12.716 17.0909C12.716 17.1042 12.7246 17.1147 12.7352 17.1147C12.7457 17.1147 12.7681 17.1461 12.785 17.1831C12.8183 17.2572 12.8876 17.3789 13.0632 17.6735C13.1258 17.7786 13.2047 17.9143 13.2384 17.9751C13.2721 18.0359 13.3741 18.2128 13.465 18.368C13.6386 18.6647 13.6755 18.7286 13.7774 18.9083C13.9983 19.2981 14.1351 19.5348 14.2407 19.7098C14.3071 19.8196 14.3613 19.9165 14.3613 19.925C14.3613 19.9345 14.4205 20.0369 14.4927 20.1547C14.565 20.2729 14.6503 20.4192 14.6823 20.4801C14.7798 20.6651 14.7827 20.6667 14.8389 20.5655C14.8666 20.5152 14.9643 20.3458 15.056 20.1888L15.056 20.1889ZM19.5765 12.3827C19.5846 12.3599 19.6218 12.2877 19.6592 12.2248C19.8873 11.8393 20.0968 11.4774 20.1044 11.4561C20.1129 11.4314 20.1745 11.3252 20.5429 10.6945C20.6376 10.5324 20.75 10.3362 20.7928 10.2585C20.8356 10.1806 20.8978 10.0771 20.9312 10.0279C20.9646 9.97849 20.9919 9.92353 20.9919 9.90519C20.9919 9.88714 21.0029 9.8719 21.0164 9.8719C21.0299 9.8719 21.041 9.86143 21.041 9.84812C21.041 9.83482 21.0782 9.76546 21.1236 9.69468C21.1691 9.62342 21.2411 9.49619 21.2836 9.41191L21.3609 9.25835H14.7894C11.1751 9.25835 8.22214 9.26778 8.22733 9.27633C8.23246 9.28678 8.26139 9.34478 8.29148 9.4053C8.32158 9.46611 8.39514 9.59309 8.45495 9.68772C8.51476 9.78273 8.56417 9.86838 8.56474 9.87921C8.56528 9.88966 8.60446 9.95998 8.65173 10.0332C8.69901 10.1073 8.73768 10.1726 8.73768 10.1787C8.73768 10.1882 8.82096 10.3312 8.92275 10.5035C9.11771 10.8342 9.12461 10.8461 9.2229 11.0242C9.25703 11.086 9.30407 11.1643 9.32743 11.1979C9.35077 11.2321 9.40239 11.3202 9.4421 11.3945C9.53542 11.5691 9.57849 11.6436 9.61217 11.6891C9.62716 11.71 9.67517 11.7924 9.71884 11.8733C9.76253 11.955 9.85322 12.1119 9.9204 12.2232L10.0425 12.426H14.8022C19.3132 12.426 19.5626 12.4259 19.5765 12.3832L19.5765 12.3827ZM23.1409 6.1942C23.1939 6.10298 23.2514 6.01384 23.2687 5.99598C23.2861 5.97793 23.3003 5.95315 23.3003 5.93984C23.3003 5.91894 23.5467 5.48624 23.7251 5.19407C23.7765 5.10951 23.8323 5.01046 23.9733 4.75183C23.9881 4.72428 24.0062 4.69771 24.0136 4.69106C24.0296 4.6768 24.3526 4.11472 24.3912 4.03424C24.4057 4.00289 24.4259 3.97915 24.436 3.97915C24.4462 3.97915 24.4546 3.96494 24.4549 3.94784C24.4551 3.93168 24.5159 3.81768 24.5899 3.69615C24.664 3.57463 24.7424 3.43637 24.7642 3.38915C24.786 3.34164 24.8234 3.27556 24.8473 3.24173C24.8712 3.20753 24.9201 3.12793 24.9558 3.0637L25.0208 2.94656H14.7905H4.56009L4.60419 3.02635C4.62844 3.07101 4.66066 3.1223 4.67581 3.14291C4.69094 3.16382 4.73631 3.24041 4.77661 3.3148C4.81692 3.38986 4.98423 3.67978 5.14842 3.96083C5.31261 4.24169 5.44694 4.47768 5.44694 4.48519C5.44694 4.49469 5.48009 4.54796 5.52061 4.60801C5.56113 4.66787 5.59429 4.72317 5.59429 4.73049C5.59429 4.73999 5.61465 4.77325 5.63953 4.80936C5.66442 4.84546 5.71691 4.93541 5.75618 5.00943C5.79545 5.08449 5.8635 5.19941 5.90739 5.26668C5.95129 5.33509 5.98721 5.39735 5.98721 5.40714C5.98721 5.41664 6.05351 5.53463 6.13455 5.66879C6.21559 5.80305 6.2819 5.92427 6.2819 5.93834C6.2819 5.95259 6.29609 5.97923 6.31343 5.99633C6.33078 6.01438 6.38833 6.10343 6.44132 6.19454L6.53768 6.36017H14.7911H23.0445L23.1409 6.1942Z" fill="#141C31"/>
</svg>
