<svg width="180" height="25" viewBox="0 0 180 25" fill="none" xmlns="http://www.w3.org/2000/svg">
<path d="M42.3716 20.957C41.3048 20.957 40.274 20.7912 39.2792 20.4596C38.2989 20.1136 37.5276 19.6522 36.9653 19.0756C36.7779 18.917 36.6842 18.7079 36.6842 18.4484C36.6842 18.2899 36.7275 18.1529 36.814 18.0375C36.9149 17.9222 37.023 17.8646 37.1383 17.8646C37.2825 17.8646 37.4483 17.9367 37.6357 18.0808C38.9909 19.2053 40.5695 19.7676 42.3716 19.7676C43.6835 19.7676 44.6927 19.5081 45.3991 18.9891C46.12 18.4557 46.4804 17.706 46.4804 16.7401C46.4804 16.1778 46.3074 15.7237 45.9614 15.3777C45.6154 15.0317 45.1757 14.765 44.6423 14.5775C44.1088 14.3757 43.3952 14.1738 42.5014 13.972C41.3192 13.7125 40.3605 13.4459 39.6252 13.1719C38.9044 12.8981 38.2917 12.4872 37.7871 11.9393C37.2825 11.3771 37.0302 10.6274 37.0302 9.69029C37.0302 8.83974 37.2537 8.09004 37.7006 7.44126C38.1619 6.7781 38.8035 6.2663 39.6252 5.90589C40.447 5.54543 41.3913 5.36523 42.4581 5.36523C43.4529 5.36523 44.39 5.53106 45.2694 5.86264C46.1488 6.17984 46.8769 6.64111 47.4535 7.24662C47.6409 7.43402 47.7346 7.64312 47.7346 7.87379C47.7346 8.03241 47.6842 8.16938 47.5833 8.28469C47.4968 8.40005 47.3959 8.4577 47.2805 8.4577C47.1364 8.4577 46.9706 8.38562 46.7831 8.24143C46.0046 7.6071 45.2982 7.16733 44.6639 6.92223C44.044 6.67718 43.3087 6.55468 42.4581 6.55468C41.175 6.55468 40.1731 6.82858 39.4522 7.37638C38.7314 7.92424 38.371 8.68836 38.371 9.66867C38.371 10.2598 38.5296 10.7428 38.8467 11.1176C39.1639 11.478 39.5748 11.7663 40.0794 11.9825C40.5984 12.1988 41.2615 12.4079 42.0689 12.6097L42.6311 12.7394C43.7989 13.0277 44.7215 13.2945 45.3991 13.5396C46.0767 13.7847 46.6462 14.1667 47.1075 14.6857C47.5833 15.1903 47.8212 15.8751 47.8212 16.7401C47.8212 17.5619 47.5905 18.2971 47.1291 18.9458C46.6822 19.5802 46.0407 20.0775 45.2045 20.438C44.3828 20.784 43.4385 20.957 42.3716 20.957V20.957Z" fill="#141C31"/>
<path d="M63.988 5.42969C64.2043 5.42969 64.3701 5.49458 64.4854 5.62432C64.6007 5.73969 64.6584 5.90551 64.6584 6.12173V20.1996C64.6584 20.4159 64.6007 20.5889 64.4854 20.7187C64.3701 20.834 64.2043 20.8917 63.988 20.8917C63.7862 20.8917 63.6276 20.8268 63.5123 20.6971C63.3969 20.5673 63.3393 20.4015 63.3393 20.1996V13.6255H53.608V20.1996C53.608 20.4015 53.5503 20.5673 53.4349 20.6971C53.3196 20.8268 53.161 20.8917 52.9592 20.8917C52.7574 20.8917 52.5916 20.8268 52.4618 20.6971C52.3465 20.5673 52.2888 20.4015 52.2888 20.1996V6.12173C52.2888 5.91989 52.3465 5.75407 52.4618 5.62432C52.5916 5.49458 52.7574 5.42969 52.9592 5.42969C53.161 5.42969 53.3196 5.49458 53.4349 5.62432C53.5503 5.75407 53.608 5.91989 53.608 6.12173V12.4579H63.3393V6.12173C63.3393 5.91989 63.3969 5.75407 63.5123 5.62432C63.6276 5.49458 63.7862 5.42969 63.988 5.42969Z" fill="#141C31"/>
<path d="M76.2731 20.957C74.8891 20.957 73.6853 20.6471 72.6617 20.0272C71.6381 19.3928 70.8524 18.4917 70.3045 17.324C69.7567 16.1418 69.4828 14.7578 69.4828 13.1719C69.4828 11.5717 69.7567 10.1876 70.3045 9.01988C70.8524 7.83774 71.6309 6.93664 72.6401 6.31669C73.6636 5.68235 74.8747 5.36523 76.2731 5.36523C77.6715 5.36523 78.8825 5.68235 79.9061 6.31669C80.9297 6.93664 81.7154 7.83049 82.2633 8.99825C82.8111 10.166 83.085 11.55 83.085 13.1503C83.085 14.7506 82.8111 16.1418 82.2633 17.324C81.7154 18.4917 80.9297 19.3928 79.9061 20.0272C78.8825 20.6471 77.6715 20.957 76.2731 20.957V20.957ZM76.2731 19.7676C77.9887 19.7676 79.3222 19.1909 80.2737 18.0375C81.2252 16.8842 81.701 15.2551 81.701 13.1503C81.701 11.0454 81.2252 9.42362 80.2737 8.28469C79.3366 7.13137 78.0031 6.55468 76.2731 6.55468C74.5575 6.55468 73.2239 7.13137 72.2724 8.28469C71.3353 9.43806 70.8668 11.0599 70.8668 13.1503C70.8668 15.2407 71.3353 16.8698 72.2724 18.0375C73.2239 19.1909 74.5575 19.7676 76.2731 19.7676Z" fill="#141C31"/>
<path d="M99.3255 19.9836C99.412 20.1134 99.4553 20.236 99.4553 20.3513C99.4553 20.5099 99.3904 20.6468 99.2606 20.7622C99.1453 20.8631 99.0084 20.9136 98.8498 20.9136C98.6047 20.9136 98.4101 20.7982 98.2659 20.5676L95.3465 15.8966C94.9284 15.2334 94.4959 14.7792 94.049 14.5341C93.6165 14.2891 93.011 14.1666 92.2325 14.1666H89.2698V20.1999C89.2698 20.4162 89.205 20.5892 89.0752 20.7189C88.9599 20.8342 88.8013 20.892 88.5995 20.892C88.3976 20.892 88.2318 20.8342 88.1021 20.7189C87.9867 20.5892 87.9291 20.4162 87.9291 20.1999V6.2085C87.9291 6.02105 87.994 5.86247 88.1237 5.73272C88.2679 5.60298 88.4409 5.53809 88.6427 5.53809H94.0274C95.6276 5.53809 96.8603 5.90577 97.7253 6.64103C98.5903 7.36185 99.0228 8.42137 99.0228 9.81979C99.0228 11.0453 98.6551 12.0184 97.9199 12.7392C97.1846 13.4601 96.1466 13.8783 94.8059 13.9936C95.1519 14.1089 95.469 14.3035 95.7574 14.5774C96.0457 14.8369 96.3413 15.2045 96.644 15.6802L99.3255 19.9836ZM93.9409 13.0205C96.4494 13.0205 97.7036 11.9464 97.7036 9.79827C97.7036 8.74581 97.3937 7.96726 96.7738 7.46273C96.1538 6.94369 95.2095 6.68418 93.9409 6.68418H89.2482V13.0205H93.9409Z" fill="#141C31"/>
<path d="M108.133 20.892C107.931 20.892 107.773 20.8271 107.657 20.6973C107.542 20.5676 107.484 20.4017 107.484 20.1999V6.70591H102.489C102.302 6.70591 102.15 6.65544 102.035 6.55453C101.934 6.45361 101.884 6.30945 101.884 6.122C101.884 5.9346 101.934 5.79039 102.035 5.68947C102.15 5.58855 102.302 5.53809 102.489 5.53809H113.777C113.95 5.53809 114.095 5.59574 114.21 5.7111C114.325 5.81196 114.383 5.94899 114.383 6.122C114.383 6.29501 114.325 6.43916 114.21 6.55453C114.095 6.65544 113.95 6.70591 113.777 6.70591H108.804V20.1999C108.804 20.4017 108.739 20.5676 108.609 20.6973C108.494 20.8271 108.335 20.892 108.133 20.892V20.892Z" fill="#141C31"/>
<path d="M118.622 20.892C118.42 20.892 118.254 20.8271 118.124 20.6973C118.009 20.5676 117.951 20.4017 117.951 20.1999V6.2085C117.951 6.02105 118.016 5.86247 118.146 5.73272C118.29 5.60298 118.463 5.53809 118.665 5.53809H126.666C126.854 5.53809 126.998 5.58855 127.099 5.68947C127.214 5.79039 127.272 5.9346 127.272 6.122C127.272 6.30945 127.214 6.45361 127.099 6.55453C126.998 6.641 126.854 6.68418 126.666 6.68418H119.292V12.4582H126.234C126.421 12.4582 126.565 12.5087 126.666 12.6096C126.782 12.7105 126.839 12.8546 126.839 13.042C126.839 13.2294 126.782 13.3736 126.666 13.4745C126.565 13.5755 126.421 13.6258 126.234 13.6258H119.292V20.1999C119.292 20.4162 119.235 20.5892 119.119 20.7189C119.004 20.8342 118.838 20.892 118.622 20.892V20.892Z" fill="#141C31"/>
<path d="M137.163 20.957C135.779 20.957 134.575 20.6471 133.552 20.0272C132.528 19.3928 131.742 18.4917 131.194 17.324C130.647 16.1418 130.373 14.7578 130.373 13.1719C130.373 11.5717 130.647 10.1876 131.194 9.01988C131.742 7.83774 132.521 6.93664 133.53 6.31669C134.554 5.68235 135.765 5.36523 137.163 5.36523C138.561 5.36523 139.772 5.68235 140.796 6.31669C141.82 6.93664 142.605 7.83049 143.153 8.99825C143.701 10.166 143.975 11.55 143.975 13.1503C143.975 14.7506 143.701 16.1418 143.153 17.324C142.605 18.4917 141.82 19.3928 140.796 20.0272C139.772 20.6471 138.561 20.957 137.163 20.957V20.957ZM137.163 19.7676C138.879 19.7676 140.212 19.1909 141.164 18.0375C142.115 16.8842 142.591 15.2551 142.591 13.1503C142.591 11.0454 142.115 9.42362 141.164 8.28469C140.227 7.13137 138.893 6.55468 137.163 6.55468C135.447 6.55468 134.114 7.13137 133.162 8.28469C132.225 9.43806 131.757 11.0599 131.757 13.1503C131.757 15.2407 132.225 16.8698 133.162 18.0375C134.114 19.1909 135.447 19.7676 137.163 19.7676Z" fill="#141C31"/>
<path d="M160.215 19.9836C160.302 20.1134 160.345 20.236 160.345 20.3513C160.345 20.5099 160.28 20.6468 160.15 20.7622C160.035 20.8631 159.898 20.9136 159.739 20.9136C159.494 20.9136 159.3 20.7982 159.156 20.5676L156.236 15.8966C155.818 15.2334 155.386 14.7792 154.939 14.5341C154.506 14.2891 153.901 14.1666 153.122 14.1666H150.159V20.1999C150.159 20.4162 150.095 20.5892 149.965 20.7189C149.85 20.8342 149.691 20.892 149.489 20.892C149.287 20.892 149.121 20.8342 148.992 20.7189C148.876 20.5892 148.819 20.4162 148.819 20.1999V6.2085C148.819 6.02105 148.884 5.86247 149.013 5.73272C149.158 5.60298 149.331 5.53809 149.532 5.53809H154.917C156.517 5.53809 157.75 5.90577 158.615 6.64103C159.48 7.36185 159.912 8.42137 159.912 9.81979C159.912 11.0453 159.545 12.0184 158.81 12.7392C158.074 13.4601 157.036 13.8783 155.696 13.9936C156.042 14.1089 156.359 14.3035 156.647 14.5774C156.935 14.8369 157.231 15.2045 157.534 15.6802L160.215 19.9836ZM154.831 13.0205C157.339 13.0205 158.593 11.9464 158.593 9.79827C158.593 8.74581 158.283 7.96726 157.663 7.46273C157.043 6.94369 156.099 6.68418 154.831 6.68418H150.138V13.0205H154.831Z" fill="#141C31"/>
<path d="M178.571 5.42969C178.787 5.42969 178.953 5.49458 179.068 5.62432C179.198 5.75407 179.263 5.91989 179.263 6.12173V20.1996C179.263 20.4015 179.205 20.5673 179.09 20.6971C178.975 20.8268 178.816 20.8917 178.614 20.8917C178.412 20.8917 178.261 20.834 178.16 20.7187C178.059 20.5889 178.009 20.4159 178.009 20.1996V8.19776L172.884 18.102C172.711 18.4336 172.473 18.5994 172.17 18.5994C171.867 18.5994 171.629 18.4336 171.456 18.102L166.288 8.28426V20.1996C166.288 20.4159 166.238 20.5889 166.137 20.7187C166.036 20.834 165.884 20.8917 165.682 20.8917C165.466 20.8917 165.3 20.834 165.185 20.7187C165.084 20.5889 165.034 20.4159 165.034 20.1996V6.12173C165.034 5.91989 165.091 5.75407 165.207 5.62432C165.336 5.49458 165.509 5.42969 165.726 5.42969C165.985 5.42969 166.201 5.59551 166.374 5.92709L172.192 17.0857L177.922 5.92709C178.095 5.59551 178.312 5.42969 178.571 5.42969V5.42969Z" fill="#141C31"/>
<path d="M13.9655 22.5061L8.14228 12.42L2.31909 2.33398H13.9655H25.6119L19.7887 12.42L13.9655 22.5061Z" fill="white"/>
<path d="M13.665 24.5237C13.4411 24.4772 13.2139 24.352 13.0317 24.1759C12.8766 24.0258 12.7817 23.8632 6.89691 13.6639C3.60941 7.9664 0.800734 3.09881 0.655416 2.84736C0.404225 2.41269 0.389721 2.3806 0.361141 2.19685C0.245323 1.45233 0.676647 0.766857 1.37464 0.58601C1.49861 0.55356 2.72356 0.550017 13.9763 0.550894C24.8798 0.551245 26.4585 0.559613 26.5825 0.585047C26.7999 0.635916 27.0214 0.75956 27.2014 0.929356C27.5534 1.26149 27.7047 1.80695 27.5841 2.30905C27.5518 2.44342 15.1332 23.9607 14.9993 24.1144C14.8785 24.253 14.6342 24.4121 14.4373 24.4807C14.2291 24.5535 13.8932 24.5721 13.665 24.5246V24.5237ZM14.2403 19.1867C14.4061 18.9027 14.4142 18.8884 14.5001 18.7323C14.5315 18.6752 14.5651 18.6182 14.5747 18.6057C14.5844 18.5934 14.6887 18.4148 14.8067 18.2089C15.2829 17.3782 15.3743 17.2205 15.4112 17.1663C15.4324 17.1347 15.4672 17.0739 15.4884 17.0303C15.529 16.947 15.5313 16.9427 15.6675 16.726C15.7143 16.6515 15.7525 16.582 15.7525 16.5714C15.7525 16.5609 15.7882 16.4986 15.8319 16.4346C15.8755 16.3697 15.9112 16.3039 15.9112 16.2881C15.9112 16.2732 15.9189 16.2592 15.9283 16.2592C15.9378 16.2592 15.9599 16.2259 15.9775 16.1856C15.9952 16.1444 16.0476 16.0507 16.0941 15.976C16.1406 15.9005 16.2243 15.7582 16.28 15.6585C16.3357 15.5588 16.4694 15.326 16.577 15.1412C16.6846 14.9565 16.7726 14.7957 16.7726 14.7842C16.7726 14.7728 16.7828 14.7623 16.7953 14.7623C16.8077 14.7623 16.8179 14.7473 16.8179 14.7281C16.8179 14.6974 16.4879 14.6939 13.9834 14.6939H11.1489L11.2048 14.7901C11.2355 14.8428 11.3496 15.0397 11.4583 15.2266C11.5671 15.4136 11.699 15.6432 11.7515 15.7366C11.804 15.8301 11.8994 15.9964 11.9636 16.106C12.0278 16.2157 12.0802 16.3153 12.0802 16.327C12.0802 16.3393 12.0882 16.349 12.0979 16.349C12.1077 16.349 12.1284 16.3779 12.1439 16.4121C12.1747 16.4805 12.2387 16.5928 12.4007 16.8648C12.4585 16.9618 12.5313 17.0871 12.5624 17.1431C12.5936 17.1993 12.6877 17.3626 12.7716 17.5059C12.9319 17.7798 12.966 17.8387 13.06 18.0046C13.2639 18.3644 13.3902 18.5829 13.4877 18.7445C13.5489 18.8458 13.599 18.9352 13.599 18.9431C13.599 18.9518 13.6536 19.0464 13.7203 19.1551C13.787 19.2642 13.8657 19.3992 13.8953 19.4554C13.9853 19.6263 13.988 19.6278 14.0399 19.5344C14.0655 19.4879 14.1556 19.3315 14.2402 19.1866L14.2403 19.1867ZM18.413 11.981C18.4205 11.9599 18.4548 11.8933 18.4893 11.8353C18.6999 11.4794 18.8933 11.1453 18.9003 11.1257C18.9082 11.1029 18.965 11.0049 19.3051 10.4226C19.3925 10.273 19.4963 10.0919 19.5357 10.0201C19.5752 9.94822 19.6327 9.85273 19.6635 9.8073C19.6943 9.7617 19.7195 9.71096 19.7195 9.69403C19.7195 9.67737 19.7297 9.66331 19.7422 9.66331C19.7547 9.66331 19.7649 9.65364 19.7649 9.64136C19.7649 9.62908 19.7992 9.56506 19.8411 9.49972C19.8831 9.43394 19.9495 9.31649 19.9888 9.2387L20.0602 9.09695H13.9942C10.6579 9.09695 7.93207 9.10565 7.93686 9.11355C7.9416 9.12319 7.9683 9.17673 7.99608 9.2326C8.02386 9.28873 8.09176 9.40594 8.14697 9.49329C8.20218 9.581 8.24779 9.66005 8.24832 9.67005C8.24882 9.6797 8.28499 9.74461 8.32862 9.81223C8.37226 9.88064 8.40796 9.94087 8.40796 9.94648C8.40796 9.95525 8.48483 10.0873 8.57879 10.2464C8.75875 10.5516 8.76512 10.5626 8.85585 10.727C8.88736 10.784 8.93078 10.8563 8.95234 10.8873C8.97389 10.9189 9.02154 11.0002 9.05819 11.0688C9.14434 11.2299 9.18409 11.2987 9.21518 11.3407C9.22902 11.36 9.27333 11.436 9.31365 11.5108C9.35397 11.5862 9.43769 11.731 9.4997 11.8338L9.61243 12.0209H14.0059C18.17 12.0209 18.4002 12.0209 18.413 11.9814L18.413 11.981ZM21.7032 6.2685C21.7521 6.1843 21.8052 6.10202 21.8212 6.08553C21.8372 6.06887 21.8503 6.04599 21.8503 6.03371C21.8503 6.01442 22.0778 5.615 22.2425 5.34531C22.29 5.26725 22.3414 5.17582 22.4716 4.93709C22.4852 4.91165 22.502 4.88713 22.5088 4.88099C22.5235 4.86783 22.8217 4.34898 22.8573 4.2747C22.8708 4.24576 22.8894 4.22384 22.8987 4.22384C22.9081 4.22384 22.9159 4.21072 22.9161 4.19494C22.9163 4.18003 22.9725 4.07479 23.0408 3.96262C23.1092 3.85044 23.1816 3.72281 23.2017 3.67922C23.2218 3.63537 23.2563 3.57437 23.2784 3.54315C23.3004 3.51158 23.3455 3.4381 23.3785 3.37881L23.4386 3.27068H13.9951H4.55172L4.59242 3.34434C4.61481 3.38556 4.64456 3.4329 4.65854 3.45193C4.67251 3.47123 4.71439 3.54193 4.75159 3.6106C4.78879 3.67988 4.94324 3.9475 5.09479 4.20693C5.24635 4.46618 5.37035 4.68402 5.37035 4.69095C5.37035 4.69972 5.40095 4.7489 5.43836 4.80433C5.47576 4.85958 5.50636 4.91063 5.50636 4.91739C5.50636 4.92616 5.52516 4.95686 5.54813 4.99019C5.5711 5.02352 5.61955 5.10655 5.6558 5.17487C5.69205 5.24416 5.75486 5.35024 5.79538 5.41233C5.8359 5.47548 5.86906 5.53295 5.86906 5.54198C5.86906 5.55075 5.93026 5.65967 6.00507 5.78351C6.07988 5.90744 6.14108 6.01934 6.14108 6.03232C6.14108 6.04548 6.15418 6.07007 6.17019 6.08585C6.1862 6.10252 6.23932 6.18471 6.28824 6.26882L6.37719 6.4217H13.9957H21.6142L21.7032 6.2685Z" fill="#FFC906"/>
</svg>
